<?xml version="1.0" standalone="no"?>
<!DOCTYPE svg PUBLIC "-//W3C//DTD SVG 20010904//EN"
 "http://www.w3.org/TR/2001/REC-SVG-20010904/DTD/svg10.dtd">
<svg version="1.0" xmlns="http://www.w3.org/2000/svg"
 width="1667.000000pt" height="1667.000000pt" viewBox="0 0 1667.000000 1667.000000"
 preserveAspectRatio="xMidYMid meet">
<metadata>
Created by potrace 1.11, written by Peter Selinger 2001-2013
</metadata>
<g transform="translate(0.000000,1667.000000) scale(0.100000,-0.100000)"
fill="#000000" stroke="none">
<path d="M8088 14804 c-2 -1 -59 -5 -128 -9 -69 -3 -143 -8 -165 -10 -22 -2
-69 -7 -105 -10 -125 -12 -281 -32 -395 -51 -188 -32 -477 -92 -550 -114 -16
-5 -41 -11 -55 -14 -54 -10 -253 -70 -410 -122 -233 -79 -454 -166 -655 -260
-33 -15 -62 -28 -65 -29 -8 -1 -230 -114 -290 -148 -389 -213 -689 -414 -1015
-678 -66 -53 -129 -105 -140 -115 -12 -11 -59 -52 -105 -93 -165 -145 -484
-475 -625 -645 -22 -27 -45 -54 -50 -60 -6 -6 -53 -65 -104 -131 -51 -66 -98
-127 -104 -135 -21 -26 -171 -243 -209 -300 -433 -668 -725 -1357 -898 -2125
-7 -27 -14 -59 -16 -70 -3 -11 -7 -31 -10 -45 -2 -14 -9 -47 -14 -75 -5 -27
-11 -61 -14 -75 -2 -14 -7 -36 -10 -50 -3 -14 -7 -44 -10 -67 -3 -22 -7 -52
-10 -65 -3 -12 -8 -45 -11 -73 -3 -27 -8 -63 -11 -80 -5 -37 -12 -100 -19
-180 -3 -33 -8 -78 -10 -100 -29 -271 -24 -857 10 -1180 2 -27 7 -77 11 -109
3 -33 7 -67 9 -76 2 -9 6 -39 9 -66 4 -27 8 -62 10 -79 7 -49 37 -219 41 -225
1 -3 6 -25 9 -50 8 -59 14 -88 19 -98 3 -4 8 -24 11 -44 3 -21 11 -57 16 -80
6 -24 13 -54 16 -68 7 -35 42 -164 61 -230 9 -30 18 -60 19 -66 9 -52 163
-492 209 -599 138 -322 235 -524 325 -682 28 -47 50 -88 50 -90 0 -10 167
-277 256 -410 88 -130 208 -298 244 -341 6 -7 48 -58 92 -115 45 -56 96 -118
113 -137 175 -195 233 -257 334 -358 646 -649 1427 -1158 2271 -1479 126 -48
396 -142 425 -147 6 -2 42 -12 80 -24 134 -40 422 -110 518 -126 15 -3 35 -7
45 -10 9 -3 33 -7 52 -10 19 -3 46 -8 60 -11 13 -2 40 -7 60 -10 20 -3 45 -7
55 -9 11 -2 45 -7 75 -11 30 -4 62 -9 70 -10 8 -1 44 -6 80 -10 36 -4 75 -9
88 -11 377 -44 887 -48 1317 -10 39 4 86 9 105 11 19 3 58 7 85 10 28 3 61 8
75 10 29 5 56 9 165 25 269 39 665 135 980 238 111 37 314 110 360 131 11 5
40 17 65 26 46 17 58 22 173 74 38 17 70 31 73 31 6 0 306 150 374 187 193
106 203 112 425 252 66 41 122 78 125 81 3 3 30 22 60 42 443 297 936 750
1319 1211 258 312 600 828 742 1120 15 32 32 64 37 71 15 18 169 357 218 478
75 184 153 408 204 578 12 41 28 95 35 120 14 44 63 235 71 275 2 11 13 61 24
110 20 92 64 334 75 415 3 25 8 56 10 70 4 22 7 47 20 165 3 33 14 148 20 210
21 237 22 826 0 995 -1 14 -6 66 -10 114 -4 49 -8 96 -10 105 -1 9 -6 43 -9
76 -8 68 -11 89 -31 225 -3 17 -24 145 -29 175 -11 63 -61 291 -78 355 -11 41
-21 84 -24 95 -25 121 -179 596 -233 720 -5 11 -37 88 -71 170 -63 151 -236
505 -305 625 -21 36 -46 81 -57 100 -50 89 -124 207 -140 226 -10 11 -18 23
-18 27 0 11 -148 225 -254 367 -238 319 -549 662 -826 910 -52 47 -97 88 -100
91 -3 3 -52 45 -110 93 -236 198 -567 432 -845 598 -455 272 -980 500 -1490
648 -164 47 -499 128 -605 145 -19 3 -71 12 -115 20 -44 8 -100 17 -125 20
-25 3 -56 8 -70 10 -37 6 -98 13 -155 20 -27 2 -69 7 -93 10 -24 3 -76 7 -115
10 -40 3 -103 8 -142 11 -70 6 -633 13 -637 8z"/>
</g>
</svg>
