<?xml version="1.0" encoding="UTF-8"?>
<svg xmlns="http://www.w3.org/2000/svg" style="display: none;">
  <symbol id="activity" viewBox="0 0 24 24">
    <path d="M22 12 L18 12 L15 21 L9 3 L6 12 L2 12"></path>
  </symbol>
  <symbol id="airplay" viewBox="0 0 24 24">
    <path d="M5 17H4a2 2 0 01-2-2V5a2 2 0 012-2h16a2 2 0 012 2v10a2 2 0 01-2 2h-1 M12 15 L17 21 L7 21 L12 15 Z"></path>
  </symbol>
  <symbol id="alarm-check" viewBox="0 0 24 24">
    <path d="M12 21a8 8 0 100-16 8 8 0 000 16z M5 3L2 6 M22 6l-3-3 M6 19l-2 2 M18 19l2 2 M9 13l2 2 4-4"></path>
  </symbol>
  <symbol id="alarm-clock" viewBox="0 0 24 24">
    <path d="M20 13 A8 8 0 0 1 12 21 A8 8 0 0 1 4 13 A8 8 0 0 1 20 13 z M12 9v4l2 2 M5 3L2 6 M22 6l-3-3 M6 19l-2 2 M18 19l2 2"></path>
  </symbol>
  <symbol id="alarm-minus" viewBox="0 0 24 24">
    <path d="M12 21a8 8 0 100-16 8 8 0 000 16z M5 3L2 6 M22 6l-3-3 M6 19l-2 2 M18 19l2 2 M9 13h6"></path>
  </symbol>
  <symbol id="alarm-plus" viewBox="0 0 24 24">
    <path d="M12 21a8 8 0 100-16 8 8 0 000 16z M5 3L2 6 M22 6l-3-3 M6 19l-2 2 M18 19l2 2 M12 10v6 M9 13h6"></path>
  </symbol>
  <symbol id="album" viewBox="0 0 24 24">
    <path d="M5 3 H19 A2 2 0 0 1 21 5 V19 A2 2 0 0 1 19 21 H5 A2 2 0 0 1 3 19 V5 A2 2 0 0 1 5 3 z M11 3 L11 11 L14 8 L17 11 L17 3"></path>
  </symbol>
  <symbol id="alert-circle" viewBox="0 0 24 24">
    <path d="M22 12 A10 10 0 0 1 12 22 A10 10 0 0 1 2 12 A10 10 0 0 1 22 12 z M12 8 L12 12 M12 16 L12.01 16"></path>
  </symbol>
  <symbol id="alert-octagon" viewBox="0 0 24 24">
    <path d="M7.86 2 L16.14 2 L22 7.86 L22 16.14 L16.14 22 L7.86 22 L2 16.14 L2 7.86 L7.86 2 Z M12 8 L12 12 M12 16 L12.01 16"></path>
  </symbol>
  <symbol id="alert-triangle" viewBox="0 0 24 24">
    <path d="M10.29 3.86L1.82 18a2 2 0 001.71 3h16.94a2 2 0 001.71-3L13.71 3.86a2 2 0 00-3.42 0z M12 9 L12 13 M12 17 L12.01 17"></path>
  </symbol>
  <symbol id="align-center" viewBox="0 0 24 24">
    <path d="M21 6 L3 6 M17 12 L7 12 M19 18 L5 18"></path>
  </symbol>
  <symbol id="align-justify" viewBox="0 0 24 24">
    <path d="M3 6 L21 6 M3 12 L21 12 M3 18 L21 18"></path>
  </symbol>
  <symbol id="align-left" viewBox="0 0 24 24">
    <path d="M21 6 L3 6 M15 12 L3 12 M17 18 L3 18"></path>
  </symbol>
  <symbol id="align-right" viewBox="0 0 24 24">
    <path d="M21 6 L3 6 M21 12 L9 12 M21 18 L7 18"></path>
  </symbol>
  <symbol id="anchor" viewBox="0 0 24 24">
    <path d="M15 5 A3 3 0 0 1 12 8 A3 3 0 0 1 9 5 A3 3 0 0 1 15 5 z M12 22 L12 8 M5 12H2a10 10 0 0020 0h-3"></path>
  </symbol>
  <symbol id="aperture" viewBox="0 0 24 24">
    <path d="M22 12 A10 10 0 0 1 12 22 A10 10 0 0 1 2 12 A10 10 0 0 1 22 12 z M14.31 8 L20.05 17.94 M9.69 8 L21.17 8 M7.38 12 L13.12 2.06 M9.69 16 L3.95 6.06 M14.31 16 L2.83 16 M16.62 12 L10.88 21.94"></path>
  </symbol>
  <symbol id="archive" viewBox="0 0 24 24">
    <path d="M21 8 L21 21 L3 21 L3 8 M1 3 H23 V8 H1 V3 z M10 12 L14 12"></path>
  </symbol>
  <symbol id="array" viewBox="0 0 24 24">
    <path d="M 9 17 H 2 V 7 H 22 V 17 H 9 M8.5 7 L8.5 16 M15.5 7 L15.5 16"></path>
  </symbol>
  <symbol id="arrow-big-down" viewBox="0 0 24 24">
    <path d="M9 3h6v11h4l-7 7-7-7h4z"></path>
  </symbol>
  <symbol id="arrow-big-left" viewBox="0 0 24 24">
    <path d="M3 12l7-7v4h11v6H10v4z"></path>
  </symbol>
  <symbol id="arrow-big-right" viewBox="0 0 24 24">
    <path d="M21 12l-7-7v4H3v6h11v4z"></path>
  </symbol>
  <symbol id="arrow-big-up" viewBox="0 0 24 24">
    <path d="M9 21V10H5l7-7 7 7h-4v11z"></path>
  </symbol>
  <symbol id="arrow-down-circle" viewBox="0 0 24 24">
    <path d="M22 12 A10 10 0 0 1 12 22 A10 10 0 0 1 2 12 A10 10 0 0 1 22 12 z M8 12 L12 16 L16 12 M12 8 L12 16"></path>
  </symbol>
  <symbol id="arrow-down-left" viewBox="0 0 24 24">
    <path d="M17 7 L7 17 M17 17 L7 17 L7 7"></path>
  </symbol>
  <symbol id="arrow-down-right" viewBox="0 0 24 24">
    <path d="M7 7 L17 17 M17 7 L17 17 L7 17"></path>
  </symbol>
  <symbol id="arrow-down" viewBox="0 0 24 24">
    <path d="M12 5 L12 19 M19 12 L12 19 L5 12"></path>
  </symbol>
  <symbol id="arrow-left-circle" viewBox="0 0 24 24">
    <path d="M22 12 A10 10 0 0 1 12 22 A10 10 0 0 1 2 12 A10 10 0 0 1 22 12 z M12 8 L8 12 L12 16 M16 12 L8 12"></path>
  </symbol>
  <symbol id="arrow-left" viewBox="0 0 24 24">
    <path d="M19 12 L5 12 M12 19 L5 12 L12 5"></path>
  </symbol>
  <symbol id="arrow-right-circle" viewBox="0 0 24 24">
    <path d="M22 12 A10 10 0 0 1 12 22 A10 10 0 0 1 2 12 A10 10 0 0 1 22 12 z M12 16 L16 12 L12 8 M8 12 L16 12"></path>
  </symbol>
  <symbol id="arrow-right" viewBox="0 0 24 24">
    <path d="M5 12 L19 12 M12 5 L19 12 L12 19"></path>
  </symbol>
  <symbol id="arrow-up-circle" viewBox="0 0 24 24">
    <path d="M22 12 A10 10 0 0 1 12 22 A10 10 0 0 1 2 12 A10 10 0 0 1 22 12 z M16 12 L12 8 L8 12 M12 16 L12 8"></path>
  </symbol>
  <symbol id="arrow-up-left" viewBox="0 0 24 24">
    <path d="M17 17 L7 7 M7 17 L7 7 L17 7"></path>
  </symbol>
  <symbol id="arrow-up-right" viewBox="0 0 24 24">
    <path d="M7 17 L17 7 M7 7 L17 7 L17 17"></path>
  </symbol>
  <symbol id="arrow-up" viewBox="0 0 24 24">
    <path d="M12 19 L12 5 M5 12 L12 5 L19 12"></path>
  </symbol>
  <symbol id="asterisk" viewBox="0 0 24 24">
    <path d="M12 6v12 M17.196 9L6.804 15 M6.804 9l10.392 6"></path>
  </symbol>
  <symbol id="at-sign" viewBox="0 0 24 24">
    <path d="M16 12 A4 4 0 0 1 12 16 A4 4 0 0 1 8 12 A4 4 0 0 1 16 12 z M16 8v5a3 3 0 006 0v-1a10 10 0 10-3.92 7.94"></path>
  </symbol>
  <symbol id="atom-alt" viewBox="0 0 24 24">
    <path d="M 4 12 A 9 6 45 0 1 20 12 A 9 6 45 0 1 4 12 M 4 12 A 9 6 -45 0 1 20 12 A 9 6 -45 0 1 4 12 M13 12 A1 1 0 0 1 12 13 A1 1 0 0 1 11 12 A1 1 0 0 1 13 12 z M12 12 L12.001 12"></path>
  </symbol>
  <symbol id="award" viewBox="0 0 24 24">
    <path d="M19 8 A7 7 0 0 1 12 15 A7 7 0 0 1 5 8 A7 7 0 0 1 19 8 z M8.21 13.89 L7 23 L12 20 L17 23 L15.79 13.88"></path>
  </symbol>
  <symbol id="axe" viewBox="0 0 24 24">
    <path d="M14 12l-8.501 8.501a2.12 2.12 0 01-2.998 0h-.002a2.12 2.12 0 010-2.998L11 9.002 M9 7l4-4 6 6h3l-.13.648a7.648 7.648 0 01-5.081 5.756L15 16v-3z"></path>
  </symbol>
  <symbol id="backspace" viewBox="0 0 24 24">
    <path d="M 4 12 L 8 4 H 20 V 20 H 8 Z M10 9 L16 15 M16 9 L10 15"></path>
  </symbol>
  <symbol id="banknote" viewBox="0 0 24 24">
    <path d="M4 6 H20 A2 2 0 0 1 22 8 V16 A2 2 0 0 1 20 18 H4 A2 2 0 0 1 2 16 V8 A2 2 0 0 1 4 6 z M14 12 A2 2 0 0 1 12 14 A2 2 0 0 1 10 12 A2 2 0 0 1 14 12 z M6 12h.01M18 12h.01"></path>
  </symbol>
  <symbol id="bar-chart-2" viewBox="0 0 24 24">
    <path d="M18 20 L18 10 M12 20 L12 4 M6 20 L6 14"></path>
  </symbol>
  <symbol id="bar-chart" viewBox="0 0 24 24">
    <path d="M12 20 L12 10 M18 20 L18 4 M6 20 L6 16"></path>
  </symbol>
  <symbol id="battery-charging" viewBox="0 0 24 24">
    <path d="M7 7H3.78A1.73 1.73 0 002 8.67v6.66A1.73 1.73 0 003.78 17H6m8-10h2.22A1.73 1.73 0 0118 8.67v6.66A1.73 1.73 0 0116.22 17H13 M11 7 L8 12 L12 12 L9 17 M22 11 L22 13"></path>
  </symbol>
  <symbol id="battery-full" viewBox="0 0 24 24">
    <path d="M4 7 H16 A2 2 0 0 1 18 9 V15 A2 2 0 0 1 16 17 H4 A2 2 0 0 1 2 15 V9 A2 2 0 0 1 4 7 z M22 11 L22 13 M6 10 L6 14 M10 10 L10 14 M14 10 L14 14"></path>
  </symbol>
  <symbol id="battery-low" viewBox="0 0 24 24">
    <path d="M4 7 H16 A2 2 0 0 1 18 9 V15 A2 2 0 0 1 16 17 H4 A2 2 0 0 1 2 15 V9 A2 2 0 0 1 4 7 z M22 11 L22 13 M6 10 L6 14"></path>
  </symbol>
  <symbol id="battery-medium" viewBox="0 0 24 24">
    <path d="M4 7 H16 A2 2 0 0 1 18 9 V15 A2 2 0 0 1 16 17 H4 A2 2 0 0 1 2 15 V9 A2 2 0 0 1 4 7 z M22 11 L22 13 M6 10 L6 14 M10 10 L10 14"></path>
  </symbol>
  <symbol id="battery" viewBox="0 0 24 24">
    <path d="M4 7 H16 A2 2 0 0 1 18 9 V15 A2 2 0 0 1 16 17 H4 A2 2 0 0 1 2 15 V9 A2 2 0 0 1 4 7 z M22 11 L22 13"></path>
  </symbol>
  <symbol id="beaker" viewBox="0 0 24 24">
    <path d="M4.5 3h15 M6 3v16a2 2 0 002 2h8a2 2 0 002-2V3 M6 14h12"></path>
  </symbol>
  <symbol id="bell-minus" viewBox="0 0 24 24">
    <path d="M13.73 21a2 2 0 01-3.46 0 M21 5h-6 M18.021 9C18.29 15.193 21 17 21 17H3s3-2 3-9a6 6 0 017-5.916"></path>
  </symbol>
  <symbol id="bell-off" viewBox="0 0 24 24">
    <path d="M13.73 21a2 2 0 01-3.46 0 M18.63 13A17.888 17.888 0 0118 8 M6.26 6.26A5.86 5.86 0 006 8c0 7-3 9-3 9h14 M18 8a6 6 0 00-9.33-5 M2 2l20 20"></path>
  </symbol>
  <symbol id="bell-plus" viewBox="0 0 24 24">
    <path d="M18.387 12C19.198 15.799 21 17 21 17H3s3-2 3-9a6 6 0 017-5.916 M13.73 21a2 2 0 01-3.46 0 M18 2v6 M21 5h-6"></path>
  </symbol>
  <symbol id="bell-ring" viewBox="0 0 24 24">
    <path d="M18 8A6 6 0 006 8c0 7-3 9-3 9h18s-3-2-3-9 M13.73 21a2 2 0 01-3.46 0 M2 8c0-2.2.7-4.3 2-6 M22 8a10 10 0 00-2-6"></path>
  </symbol>
  <symbol id="bell" viewBox="0 0 24 24">
    <path d="M18 8A6 6 0 006 8c0 7-3 9-3 9h18s-3-2-3-9 M13.73 21a2 2 0 01-3.46 0"></path>
  </symbol>
  <symbol id="bike" viewBox="0 0 24 24">
    <path d="M9 17.5 A3.5 3.5 0 0 1 5.5 21 A3.5 3.5 0 0 1 2 17.5 A3.5 3.5 0 0 1 9 17.5 z M22 17.5 A3.5 3.5 0 0 1 18.5 21 A3.5 3.5 0 0 1 15 17.5 A3.5 3.5 0 0 1 22 17.5 z M15 6a1 1 0 100-2 1 1 0 000 2zm-3 11.5V14l-3-3 4-3 2 3h2"></path>
  </symbol>
  <symbol id="binary" viewBox="0 0 24 24">
    <path d="M10 4H6v6h4V4z M18 14h-4v6h4v-6z M14 4h2v6m-2 0h4 M6 14h2v6m-2 0h4"></path>
  </symbol>
  <symbol id="bitcoin" viewBox="0 0 24 24">
    <path d="M11.767 19.089c4.924.868 6.14-6.025 1.216-6.894m-1.216 6.894L5.86 18.047m5.908 1.042l-.347 1.97m1.563-8.864c4.924.869 6.14-6.025 1.215-6.893m-1.215 6.893l-3.94-.694m5.155-6.2L8.29 4.26m5.908 1.042l.348-1.97M7.48 20.364l3.126-17.727"></path>
  </symbol>
  <symbol id="bluetooth-connected" viewBox="0 0 24 24">
    <path d="M7 7l10 10-5 5V2l5 5L7 17 M18 12 L21 12 M3 12 L6 12"></path>
  </symbol>
  <symbol id="bluetooth-off" viewBox="0 0 24 24">
    <path d="M17 17l-5 5V12l-5 5 M2 2l20 20 M14.5 9.5L17 7l-5-5v4.5"></path>
  </symbol>
  <symbol id="bluetooth-searching" viewBox="0 0 24 24">
    <path d="M7 7l10 10-5 5V2l5 5L7 17 M20.83 14.83a4 4 0 000-5.66 M18 12h.01"></path>
  </symbol>
  <symbol id="bluetooth" viewBox="0 0 24 24">
    <path d="M7 7l10 10-5 5V2l5 5L7 17"></path>
  </symbol>
  <symbol id="bold" viewBox="0 0 24 24">
    <path d="M6 4h8a4 4 0 014 4 4 4 0 01-4 4H6z M6 12h9a4 4 0 014 4 4 4 0 01-4 4H6z"></path>
  </symbol>
  <symbol id="book-open" viewBox="0 0 24 24">
    <path d="M2 3h6a4 4 0 014 4v14a3 3 0 00-3-3H2z M22 3h-6a4 4 0 00-4 4v14a3 3 0 013-3h7z"></path>
  </symbol>
  <symbol id="book" viewBox="0 0 24 24">
    <path d="M4 19.5A2.5 2.5 0 016.5 17H20 M6.5 2H20v20H6.5A2.5 2.5 0 014 19.5v-15A2.5 2.5 0 016.5 2z"></path>
  </symbol>
  <symbol id="bookmark" viewBox="0 0 24 24">
    <path d="M19 21l-7-5-7 5V5a2 2 0 012-2h10a2 2 0 012 2z"></path>
  </symbol>
  <symbol id="bot" viewBox="0 0 24 24">
    <path d="M5 11 H19 A2 2 0 0 1 21 13 V19 A2 2 0 0 1 19 21 H5 A2 2 0 0 1 3 19 V13 A2 2 0 0 1 5 11 z M14 5 A2 2 0 0 1 12 7 A2 2 0 0 1 10 5 A2 2 0 0 1 14 5 z M12 7v4 M8 16 L8 16 M16 16 L16 16"></path>
  </symbol>
  <symbol id="box-select" viewBox="0 0 24 24">
    <path d="M4 2a2 2 0 00-2 2 M8 2 L10 2 M14 2 L16 2 M4 22a2 2 0 01-2-2 M22 8 L22 10 M22 14 L22 16 M22 20a2 2 0 01-2 2 M14 22 L16 22 M8 22 L10 22 M20 2a2 2 0 012 2 M2 14 L2 16 M2 8 L2 10"></path>
  </symbol>
  <symbol id="box" viewBox="0 0 24 24">
    <path d="M21 16V8a2 2 0 00-1-1.73l-7-4a2 2 0 00-2 0l-7 4A2 2 0 003 8v8a2 2 0 001 1.73l7 4a2 2 0 002 0l7-4A2 2 0 0021 16z M3.27 6.96 L12 12.01 L20.73 6.96 M12 22.08 L12 12"></path>
  </symbol>
  <symbol id="brackets-curly" viewBox="0 0 24 24">
    <path d="M 8 4 H 4 V 10 L 2 12 L 4 14 V 20 H 8 M 16 4 H 20 V 10 L 22 12 L 20 14 V 20 H 16"></path>
  </symbol>
  <symbol id="brackets" viewBox="0 0 24 24">
    <path d="M 8 4 H 4 V 20 H 8 M 16 4 H 20 V 20 H 16"></path>
  </symbol>
  <symbol id="briefcase" viewBox="0 0 24 24">
    <path d="M4 7 H20 A2 2 0 0 1 22 9 V19 A2 2 0 0 1 20 21 H4 A2 2 0 0 1 2 19 V9 A2 2 0 0 1 4 7 z M16 21V5a2 2 0 00-2-2h-4a2 2 0 00-2 2v16"></path>
  </symbol>
  <symbol id="broadcast-tower" viewBox="0 0 24 24">
    <path d="M14 7 A2 2 0 0 1 12 9 A2 2 0 0 1 10 7 A2 2 0 0 1 14 7 z M 7 5 A 4 4 0 0 0 7 9 M 4 3 A 8 8 0 0 0 4 11 M 17 5 A 4 4 0 0 1 17 9 M 20 3 A 8 8 0 0 1 20 11 M 4 3 A 8 8 0 0 0 4 11 M7 21 L11 9 M17 21 L13 9 M10 14 L14 14"></path>
  </symbol>
  <symbol id="brush" viewBox="0 0 24 24">
    <path d="M9.06 11.9l8.07-8.06a2.85 2.85 0 114.03 4.03l-8.06 8.08 M7.07 14.94c-1.66 0-3 1.35-3 3.02 0 1.33-2.5 1.52-2 2.02 1.08 1.1 2.49 2.02 4 2.02 2.2 0 4-1.8 4-4.04a3.01 3.01 0 00-3-3.02z"></path>
  </symbol>
  <symbol id="bug" viewBox="0 0 24 24">
    <path d="M12 6 H12 A4 4 0 0 1 16 10 V16 A4 4 0 0 1 12 20 H12 A4 4 0 0 1 8 16 V10 A4 4 0 0 1 12 6 z M19 7l-3 2 M5 7l3 2 M19 19l-3-2 M5 19l3-2 M20 13h-4 M4 13h4 M10 4l1 2 M14 4l-1 2"></path>
  </symbol>
  <symbol id="building" viewBox="0 0 24 24">
    <path d="M6 2 H18 A2 2 0 0 1 20 4 V20 A2 2 0 0 1 18 22 H6 A2 2 0 0 1 4 20 V4 A2 2 0 0 1 6 2 z M9 22v-4h6v4 M8 6h.01 M16 6h.01 M12 6h.01 M12 10h.01 M12 14h.01 M16 10h.01 M16 14h.01 M8 10h.01 M8 14h.01"></path>
  </symbol>
  <symbol id="bus" viewBox="0 0 24 24">
    <path d="M19 17h2l.64-2.54a6 6 0 000-2.92l-1.07-4.27A3 3 0 0017.66 5H4a2 2 0 00-2 2v10h2m10 0h-4 M9 17.5 A2.5 2.5 0 0 1 6.5 20 A2.5 2.5 0 0 1 4 17.5 A2.5 2.5 0 0 1 9 17.5 z M19 17.5 A2.5 2.5 0 0 1 16.5 20 A2.5 2.5 0 0 1 14 17.5 A2.5 2.5 0 0 1 19 17.5 z"></path>
  </symbol>
  <symbol id="calculator" viewBox="0 0 24 24">
    <path d="M6 2 H18 A2 2 0 0 1 20 4 V20 A2 2 0 0 1 18 22 H6 A2 2 0 0 1 4 20 V4 A2 2 0 0 1 6 2 z M8 6 L16 6 M16 14 L16 18 M16 10h.01 M12 10h.01 M8 10h.01 M12 14h.01 M8 14h.01 M12 18h.01 M8 18h.01"></path>
  </symbol>
  <symbol id="calendar" viewBox="0 0 24 24">
    <path d="M5 4 H19 A2 2 0 0 1 21 6 V20 A2 2 0 0 1 19 22 H5 A2 2 0 0 1 3 20 V6 A2 2 0 0 1 5 4 z M16 2 L16 6 M8 2 L8 6 M3 10 L21 10"></path>
  </symbol>
  <symbol id="camera-off" viewBox="0 0 24 24">
    <path d="M2 2 L22 22 M9.5 4h5L17 7h3a2 2 0 012 2v7.5M7 7H4a2 2 0 00-2 2v9a2 2 0 002 2h16 M14.121 15.121A3 3 0 119.88 10.88"></path>
  </symbol>
  <symbol id="camera" viewBox="0 0 24 24">
    <path d="M14.5 4h-5L7 7H4a2 2 0 00-2 2v9a2 2 0 002 2h16a2 2 0 002-2V9a2 2 0 00-2-2h-3l-2.5-3z M15 13 A3 3 0 0 1 12 16 A3 3 0 0 1 9 13 A3 3 0 0 1 15 13 z"></path>
  </symbol>
  <symbol id="car" viewBox="0 0 24 24">
    <path d="M14 16H9m10 0h3v-3.15a1 1 0 00-.84-.99L16 11l-2.7-3.6a1 1 0 00-.8-.4H5.24a2 2 0 00-1.8 1.1l-.8 1.63A6 6 0 002 12.42V16h2 M9 16.5 A2.5 2.5 0 0 1 6.5 19 A2.5 2.5 0 0 1 4 16.5 A2.5 2.5 0 0 1 9 16.5 z M19 16.5 A2.5 2.5 0 0 1 16.5 19 A2.5 2.5 0 0 1 14 16.5 A2.5 2.5 0 0 1 19 16.5 z"></path>
  </symbol>
  <symbol id="cast" viewBox="0 0 24 24">
    <path d="M2 16.1A5 5 0 015.9 20M2 12.05A9 9 0 019.95 20M2 8V6a2 2 0 012-2h16a2 2 0 012 2v12a2 2 0 01-2 2h-6 M2 20 L2.01 20"></path>
  </symbol>
  <symbol id="chalkboard" viewBox="0 0 24 24">
    <path d="M5 5 H19 A2 2 0 0 1 21 7 V17 A2 2 0 0 1 19 19 H5 A2 2 0 0 1 3 17 V7 A2 2 0 0 1 5 5 z M12 16 H18 V19 H12 V16 z"></path>
  </symbol>
  <symbol id="check-circle-2" viewBox="0 0 24 24">
    <path d="M12 22c5.523 0 10-4.477 10-10S17.523 2 12 2 2 6.477 2 12s4.477 10 10 10z M9 12l2 2 4-4"></path>
  </symbol>
  <symbol id="check-circle" viewBox="0 0 24 24">
    <path d="M22 11.08V12a10 10 0 11-5.93-9.14 M22 4 L12 14.01 L9 11.01"></path>
  </symbol>
  <symbol id="check-square" viewBox="0 0 24 24">
    <path d="M9 11 L12 14 L22 4 M21 12v7a2 2 0 01-2 2H5a2 2 0 01-2-2V5a2 2 0 012-2h11"></path>
  </symbol>
  <symbol id="check" viewBox="0 0 24 24">
    <path d="M20 6 L9 17 L4 12"></path>
  </symbol>
  <symbol id="chevron-down" viewBox="0 0 24 24">
    <path d="M6 9 L12 15 L18 9"></path>
  </symbol>
  <symbol id="chevron-left" viewBox="0 0 24 24">
    <path d="M15 18 L9 12 L15 6"></path>
  </symbol>
  <symbol id="chevron-right" viewBox="0 0 24 24">
    <path d="M9 18 L15 12 L9 6"></path>
  </symbol>
  <symbol id="chevron-up" viewBox="0 0 24 24">
    <path d="M18 15 L12 9 L6 15"></path>
  </symbol>
  <symbol id="chevrons-down-up" viewBox="undefined">
    <path d="M7 20l5-5 5 5 M7 4l5 5 5-5"></path>
  </symbol>
  <symbol id="chevrons-down" viewBox="0 0 24 24">
    <path d="M7 13 L12 18 L17 13 M7 6 L12 11 L17 6"></path>
  </symbol>
  <symbol id="chevrons-left" viewBox="0 0 24 24">
    <path d="M11 17 L6 12 L11 7 M18 17 L13 12 L18 7"></path>
  </symbol>
  <symbol id="chevrons-right" viewBox="0 0 24 24">
    <path d="M13 17 L18 12 L13 7 M6 17 L11 12 L6 7"></path>
  </symbol>
  <symbol id="chevrons-up-down" viewBox="0 0 24 24">
    <path d="M7 15l5 5 5-5 M7 9l5-5 5 5"></path>
  </symbol>
  <symbol id="chevrons-up" viewBox="0 0 24 24">
    <path d="M17 11 L12 6 L7 11 M17 18 L12 13 L7 18"></path>
  </symbol>
  <symbol id="chrome" viewBox="0 0 24 24">
    <path d="M22 12 A10 10 0 0 1 12 22 A10 10 0 0 1 2 12 A10 10 0 0 1 22 12 z M16 12 A4 4 0 0 1 12 16 A4 4 0 0 1 8 12 A4 4 0 0 1 16 12 z M21.17 8 L12 8 M3.95 6.06 L8.54 14 M10.88 21.94 L15.46 14"></path>
  </symbol>
  <symbol id="circle-slashed" viewBox="0 0 24 24">
    <path d="M22 12 A10 10 0 0 1 12 22 A10 10 0 0 1 2 12 A10 10 0 0 1 22 12 z M22 2L2 22"></path>
  </symbol>
  <symbol id="circle" viewBox="0 0 24 24">
    <path d="M22 12 A10 10 0 0 1 12 22 A10 10 0 0 1 2 12 A10 10 0 0 1 22 12 z"></path>
  </symbol>
  <symbol id="clipboard-check" viewBox="0 0 24 24">
    <path d="M16 4h2a2 2 0 012 2v14a2 2 0 01-2 2H6a2 2 0 01-2-2V6a2 2 0 012-2h2 M15 2H9a1 1 0 00-1 1v2a1 1 0 001 1h6a1 1 0 001-1V3a1 1 0 00-1-1z M9 13l2 2 4-4"></path>
  </symbol>
  <symbol id="clipboard-copy" viewBox="0 0 24 24">
    <path d="M16 4h2a2 2 0 012 2v4M8 4H6a2 2 0 00-2 2v14a2 2 0 002 2h12a2 2 0 002-2v-2 M9 2 H15 A1 1 0 0 1 16 3 V5 A1 1 0 0 1 15 6 H9 A1 1 0 0 1 8 5 V3 A1 1 0 0 1 9 2 z M21 14H11 M15 10l-4 4 4 4"></path>
  </symbol>
  <symbol id="clipboard-list" viewBox="0 0 24 24">
    <path d="M16 4h2a2 2 0 012 2v14a2 2 0 01-2 2H6a2 2 0 01-2-2V6a2 2 0 012-2h2 M15 2H9a1 1 0 00-1 1v2a1 1 0 001 1h6a1 1 0 001-1V3a1 1 0 00-1-1z M12 11h4 M12 16h4 M8 11h.01 M8 16h.01"></path>
  </symbol>
  <symbol id="clipboard-x" viewBox="0 0 24 24">
    <path d="M16 4h2a2 2 0 012 2v14a2 2 0 01-2 2H6a2 2 0 01-2-2V6a2 2 0 012-2h2 M15 2H9a1 1 0 00-1 1v2a1 1 0 001 1h6a1 1 0 001-1V3a1 1 0 00-1-1z M15 11l-6 6 M9 11l6 6"></path>
  </symbol>
  <symbol id="clipboard" viewBox="0 0 24 24">
    <path d="M16 4h2a2 2 0 012 2v14a2 2 0 01-2 2H6a2 2 0 01-2-2V6a2 2 0 012-2h2 M9 2 H15 A1 1 0 0 1 16 3 V5 A1 1 0 0 1 15 6 H9 A1 1 0 0 1 8 5 V3 A1 1 0 0 1 9 2 z"></path>
  </symbol>
  <symbol id="clock" viewBox="0 0 24 24">
    <path d="M22 12 A10 10 0 0 1 12 22 A10 10 0 0 1 2 12 A10 10 0 0 1 22 12 z M12 6 L12 12 L16 14"></path>
  </symbol>
  <symbol id="cloud-drizzle" viewBox="0 0 24 24">
    <path d="M20 16.2A4.5 4.5 0 0017.5 8h-1.8A7 7 0 104 14.9 M8 19v1 M8 14v1 M16 19v1 M16 14v1 M12 21v1 M12 16v1"></path>
  </symbol>
  <symbol id="cloud-fog" viewBox="0 0 24 24">
    <path d="M20 16.2A4.5 4.5 0 0017.5 8h-1.8A7 7 0 104 14.9 M16 17L7 17 M17 21L9 21"></path>
  </symbol>
  <symbol id="cloud-hail" viewBox="0 0 24 24">
    <path d="M20 16.2A4.5 4.5 0 0017.5 8h-1.8A7 7 0 104 14.9 M16 14v2 M8 14v2 M16 20h0 M8 20h0 M12 16v2 M12 22h0"></path>
  </symbol>
  <symbol id="cloud-lightning" viewBox="0 0 24 24">
    <path d="M17.5 17a4.5 4.5 0 100-9h-1.8a7 7 0 10-10.3 8 M12 12l-3 5h5l-3 5"></path>
  </symbol>
  <symbol id="cloud-moon" viewBox="0 0 24 24">
    <path d="M13.63 22A3.3 3.3 0 0017 18.79a3.3 3.3 0 00-3.38-3.22h-1.34A5.23 5.23 0 007.25 12 5.13 5.13 0 002 17c0 2.76 2.35 5 5.25 5h6.38z M9.95 9a6.13 6.13 0 015.5-5.18 4.77 4.77 0 006.67 6.67A6.13 6.13 0 0119.46 15"></path>
  </symbol>
  <symbol id="cloud-off" viewBox="0 0 24 24">
    <path d="M2 2l20 20 M10 5a7 7 0 015.7 5h1.8a4.5 4.5 0 014 6.5 M18.8 18.8c-.4.2-.8.2-1.3.2H9A7 7 0 015.8 5.8"></path>
  </symbol>
  <symbol id="cloud-rain-wind" viewBox="0 0 24 24">
    <path d="M20 16.2A4.5 4.5 0 0017.5 8h-1.8A7 7 0 104 14.9 M9.2 22l3-7 M9 13l-3 7 M17 13l-3 7"></path>
  </symbol>
  <symbol id="cloud-rain" viewBox="0 0 24 24">
    <path d="M20 16.2A4.5 4.5 0 0017.5 8h-1.8A7 7 0 104 14.9 M16 14v6 M8 14v6 M12 16v6"></path>
  </symbol>
  <symbol id="cloud-snow" viewBox="0 0 24 24">
    <path d="M20 16.2A4.5 4.5 0 0017.5 8h-1.8A7 7 0 104 14.9 M8 15h0 M8 19h0 M12 17h0 M12 21h0 M16 15h0 M16 19h0"></path>
  </symbol>
  <symbol id="cloud-sun" viewBox="0 0 24 24">
    <path d="M12 2v2 M5.22 5.22l1.42 1.42 M20 12h2 M15.97 12.5A4 4 0 009.5 8.88 M13.63 22A3.3 3.3 0 0017 18.79a3.3 3.3 0 00-3.38-3.22h-1.34A5.23 5.23 0 007.25 12 5.13 5.13 0 002 17c0 2.76 2.35 5 5.25 5h6.38z M17.36 6.64l1.42-1.42"></path>
  </symbol>
  <symbol id="cloud" viewBox="0 0 24 24">
    <path d="M17.5 19a4.5 4.5 0 100-9h-1.8A7 7 0 109 19h8.5z"></path>
  </symbol>
  <symbol id="cloudy" viewBox="0 0 24 24">
    <path d="M17.5 21a4.5 4.5 0 100-9h-1.8A7 7 0 109 21h8.5z M22 10c0-1.5-1.5-3-3.5-3H17c-.7-2.3-2.9-4-5.4-4-2.7 0-5 2-5.5 4.5"></path>
  </symbol>
  <symbol id="clover" viewBox="0 0 24 24">
    <path d="M16.2 3.8a2.7 2.7 0 00-3.81 0l-.4.38-.4-.4a2.7 2.7 0 00-3.82 0C6.73 4.85 6.67 6.64 8 8l4 4 4-4c1.33-1.36 1.27-3.15.2-4.2z M8 8c-1.36-1.33-3.15-1.27-4.2-.2a2.7 2.7 0 000 3.81l.38.4-.4.4a2.7 2.7 0 000 3.82C4.85 17.27 6.64 17.33 8 16 M16 16c1.36 1.33 3.15 1.27 4.2.2a2.7 2.7 0 000-3.81l-.38-.4.4-.4a2.7 2.7 0 000-3.82C19.15 6.73 17.36 6.67 16 8 M7.8 20.2a2.7 2.7 0 003.81 0l.4-.38.4.4a2.7 2.7 0 003.82 0c1.06-1.06 1.12-2.85-.21-4.21l-4-4-4 4c-1.33 1.36-1.27 3.15-.2 4.2z M7 17l-5 5"></path>
  </symbol>
  <symbol id="code-2" viewBox="0 0 24 24">
    <path d="M18 16L22 12L18 8 M6 8L2 12L6 16 M14.5 4L9.5 20"></path>
  </symbol>
  <symbol id="code" viewBox="0 0 24 24">
    <path d="M16 18 L22 12 L16 6 M8 6 L2 12 L8 18"></path>
  </symbol>
  <symbol id="codepen" viewBox="0 0 24 24">
    <path d="M12 2 L22 8.5 L22 15.5 L12 22 L2 15.5 L2 8.5 L12 2 Z M12 22 L12 15.5 M22 8.5 L12 15.5 L2 8.5 M2 15.5 L12 8.5 L22 15.5 M12 2 L12 8.5"></path>
  </symbol>
  <symbol id="codesandbox" viewBox="0 0 24 24">
    <path d="M21 16V8a2 2 0 00-1-1.73l-7-4a2 2 0 00-2 0l-7 4A2 2 0 003 8v8a2 2 0 001 1.73l7 4a2 2 0 002 0l7-4A2 2 0 0021 16z M7.5 4.21 L12 6.81 L16.5 4.21 M7.5 19.79 L7.5 14.6 L3 12 M21 12 L16.5 14.6 L16.5 19.79 M3.27 6.96 L12 12.01 L20.73 6.96 M12 22.08 L12 12"></path>
  </symbol>
  <symbol id="coffee" viewBox="0 0 24 24">
    <path d="M18 8h1a4 4 0 010 8h-1 M2 8h16v9a4 4 0 01-4 4H6a4 4 0 01-4-4V8z M6 1 L6 4 M10 1 L10 4 M14 1 L14 4"></path>
  </symbol>
  <symbol id="coins" viewBox="0 0 24 24">
    <path d="M15 8 A7 7 0 0 1 8 15 A7 7 0 0 1 1 8 A7 7 0 0 1 15 8 z M19.5 9.94a7 7 0 11-9.56 9.56 M7 6h1v4 M17.3 14.3l.7.7-2.8 2.8"></path>
  </symbol>
  <symbol id="columns" viewBox="0 0 24 24">
    <path d="M5 3 H19 A2 2 0 0 1 21 5 V19 A2 2 0 0 1 19 21 H5 A2 2 0 0 1 3 19 V5 A2 2 0 0 1 5 3 z M12 3 L12 21"></path>
  </symbol>
  <symbol id="command" viewBox="0 0 24 24">
    <path d="M18 3a3 3 0 00-3 3v12a3 3 0 003 3 3 3 0 003-3 3 3 0 00-3-3H6a3 3 0 00-3 3 3 3 0 003 3 3 3 0 003-3V6a3 3 0 00-3-3 3 3 0 00-3 3 3 3 0 003 3h12a3 3 0 003-3 3 3 0 00-3-3z"></path>
  </symbol>
  <symbol id="compass" viewBox="0 0 24 24">
    <path d="M22 12 A10 10 0 0 1 12 22 A10 10 0 0 1 2 12 A10 10 0 0 1 22 12 z M16.24 7.76 L14.12 14.12 L7.76 16.24 L9.88 9.88 L16.24 7.76 Z"></path>
  </symbol>
  <symbol id="contact" viewBox="0 0 24 24">
    <path d="M19 22H5c-1.1 0-2-.9-2-2V6c0-1.1.9-2 2-2h14c1.1 0 2 .9 2 2v14c0 1.1-.9 2-2 2z M16 2 L16 4 M8 2 L8 4 M15 11 A3 3 0 0 1 12 14 A3 3 0 0 1 9 11 A3 3 0 0 1 15 11 z M17 18.5c-1.4-1-3.1-1.5-5-1.5s-3.6.6-5 1.5"></path>
  </symbol>
  <symbol id="contrast" viewBox="0 0 24 24">
    <path d="M22 12 A10 10 0 0 1 12 22 A10 10 0 0 1 2 12 A10 10 0 0 1 22 12 z M12 18a6 6 0 000-12v12z"></path>
  </symbol>
  <symbol id="copy" viewBox="0 0 24 24">
    <path d="M11 9 H20 A2 2 0 0 1 22 11 V20 A2 2 0 0 1 20 22 H11 A2 2 0 0 1 9 20 V11 A2 2 0 0 1 11 9 z M5 15H4a2 2 0 01-2-2V4a2 2 0 012-2h9a2 2 0 012 2v1"></path>
  </symbol>
  <symbol id="copyleft" viewBox="0 0 24 24">
    <path d="M22 12 A10 10 0 0 1 12 22 A10 10 0 0 1 2 12 A10 10 0 0 1 22 12 z M9 9.35a4 4 0 110 5.3"></path>
  </symbol>
  <symbol id="copyright" viewBox="0 0 24 24">
    <path d="M22 12 A10 10 0 0 1 12 22 A10 10 0 0 1 2 12 A10 10 0 0 1 22 12 z M15 9.354a4 4 0 100 5.292"></path>
  </symbol>
  <symbol id="corner-down-left" viewBox="0 0 24 24">
    <path d="M9 10 L4 15 L9 20 M20 4v7a4 4 0 01-4 4H4"></path>
  </symbol>
  <symbol id="corner-down-right" viewBox="0 0 24 24">
    <path d="M15 10 L20 15 L15 20 M4 4v7a4 4 0 004 4h12"></path>
  </symbol>
  <symbol id="corner-left-down" viewBox="0 0 24 24">
    <path d="M14 15 L9 20 L4 15 M20 4h-7a4 4 0 00-4 4v12"></path>
  </symbol>
  <symbol id="corner-left-up" viewBox="0 0 24 24">
    <path d="M14 9 L9 4 L4 9 M20 20h-7a4 4 0 01-4-4V4"></path>
  </symbol>
  <symbol id="corner-right-down" viewBox="0 0 24 24">
    <path d="M10 15 L15 20 L20 15 M4 4h7a4 4 0 014 4v12"></path>
  </symbol>
  <symbol id="corner-right-up" viewBox="0 0 24 24">
    <path d="M10 9 L15 4 L20 9 M4 20h7a4 4 0 004-4V4"></path>
  </symbol>
  <symbol id="corner-up-left" viewBox="0 0 24 24">
    <path d="M9 14 L4 9 L9 4 M20 20v-7a4 4 0 00-4-4H4"></path>
  </symbol>
  <symbol id="corner-up-right" viewBox="0 0 24 24">
    <path d="M15 14 L20 9 L15 4 M4 20v-7a4 4 0 014-4h12"></path>
  </symbol>
  <symbol id="cpu" viewBox="0 0 24 24">
    <path d="M6 4 H18 A2 2 0 0 1 20 6 V18 A2 2 0 0 1 18 20 H6 A2 2 0 0 1 4 18 V6 A2 2 0 0 1 6 4 z M9 9 H15 V15 H9 V9 z M9 1 L9 4 M15 1 L15 4 M9 20 L9 23 M15 20 L15 23 M20 9 L23 9 M20 14 L23 14 M1 9 L4 9 M1 14 L4 14"></path>
  </symbol>
  <symbol id="credit-card" viewBox="0 0 24 24">
    <path d="M3 4 H21 A2 2 0 0 1 23 6 V18 A2 2 0 0 1 21 20 H3 A2 2 0 0 1 1 18 V6 A2 2 0 0 1 3 4 z M1 10 L23 10"></path>
  </symbol>
  <symbol id="crop" viewBox="0 0 24 24">
    <path d="M6.13 1L6 16a2 2 0 002 2h15 M1 6.13L16 6a2 2 0 012 2v15"></path>
  </symbol>
  <symbol id="cross" viewBox="0 0 24 24">
    <path d="M11 2a2 2 0 00-2 2v5H4a2 2 0 00-2 2v2c0 1.1.9 2 2 2h5v5c0 1.1.9 2 2 2h2a2 2 0 002-2v-5h5a2 2 0 002-2v-2a2 2 0 00-2-2h-5V4a2 2 0 00-2-2h-2z"></path>
  </symbol>
  <symbol id="crosshair" viewBox="0 0 24 24">
    <path d="M22 12 A10 10 0 0 1 12 22 A10 10 0 0 1 2 12 A10 10 0 0 1 22 12 z M22 12 L18 12 M6 12 L2 12 M12 6 L12 2 M12 22 L12 18"></path>
  </symbol>
  <symbol id="crown" viewBox="0 0 24 24">
    <path d="M2 4l3 12h14l3-12-6 7-4-7-4 7-6-7zm3 16h14"></path>
  </symbol>
  <symbol id="currency" viewBox="0 0 24 24">
    <path d="M20 12 A8 8 0 0 1 12 20 A8 8 0 0 1 4 12 A8 8 0 0 1 20 12 z M3 3 L6 6 M21 3 L18 6 M3 21 L6 18 M21 21 L18 18"></path>
  </symbol>
  <symbol id="data" viewBox="0 0 24 24">
    <path d="M 4 18 L 12 4 L 20 18 Z"></path>
  </symbol>
  <symbol id="database" viewBox="0 0 24 24">
    <path d="M21 5 A9 3 0 0 1 12 8 A9 3 0 0 1 3 5 A9 3 0 0 1 21 5 z M21 12c0 1.66-4 3-9 3s-9-1.34-9-3 M3 5v14c0 1.66 4 3 9 3s9-1.34 9-3V5"></path>
  </symbol>
  <symbol id="delete" viewBox="0 0 24 24">
    <path d="M21 4H8l-7 8 7 8h13a2 2 0 002-2V6a2 2 0 00-2-2z M18 9 L12 15 M12 9 L18 15"></path>
  </symbol>
  <symbol id="description" viewBox="0 0 24 24">
    <path d="M4 4 L20 4 M4 12 L20 12 M4 20 L20 20"></path>
  </symbol>
  <symbol id="disc" viewBox="0 0 24 24">
    <path d="M22 12 A10 10 0 0 1 12 22 A10 10 0 0 1 2 12 A10 10 0 0 1 22 12 z M15 12 A3 3 0 0 1 12 15 A3 3 0 0 1 9 12 A3 3 0 0 1 15 12 z"></path>
  </symbol>
  <symbol id="divide-circle" viewBox="0 0 24 24">
    <path d="M8 12 L16 12 M12 16 L12 16 M12 8 L12 8 M22 12 A10 10 0 0 1 12 22 A10 10 0 0 1 2 12 A10 10 0 0 1 22 12 z"></path>
  </symbol>
  <symbol id="divide-square" viewBox="0 0 24 24">
    <path d="M5 3 H19 A2 2 0 0 1 21 5 V19 A2 2 0 0 1 19 21 H5 A2 2 0 0 1 3 19 V5 A2 2 0 0 1 5 3 z M8 12 L16 12 M12 16 L12 16 M12 8 L12 8"></path>
  </symbol>
  <symbol id="divide" viewBox="0 0 24 24">
    <path d="M13 6 A1 1 0 0 1 12 7 A1 1 0 0 1 11 6 A1 1 0 0 1 13 6 z M5 12 L19 12 M13 18 A1 1 0 0 1 12 19 A1 1 0 0 1 11 18 A1 1 0 0 1 13 18 z"></path>
  </symbol>
  <symbol id="dollar-sign" viewBox="0 0 24 24">
    <path d="M12 1 L12 23 M17 5H9.5a3.5 3.5 0 000 7h5a3.5 3.5 0 010 7H6"></path>
  </symbol>
  <symbol id="dot-circle" viewBox="0 0 24 24">
    <path d="M22 12 A10 10 0 0 1 12 22 A10 10 0 0 1 2 12 A10 10 0 0 1 22 12 z M12 12 L12.01 12"></path>
  </symbol>
  <symbol id="download-cloud" viewBox="0 0 24 24">
    <path d="M20 16.2A4.5 4.5 0 0017.5 8h-1.8A7 7 0 104 14.9 M12 12v9 M8 17l4 4 4-4"></path>
  </symbol>
  <symbol id="download" viewBox="0 0 24 24">
    <path d="M21 15v4a2 2 0 01-2 2H5a2 2 0 01-2-2v-4 M7 10 L12 15 L17 10 M12 15 L12 3"></path>
  </symbol>
  <symbol id="dribbble" viewBox="0 0 24 24">
    <path d="M22 12 A10 10 0 0 1 12 22 A10 10 0 0 1 2 12 A10 10 0 0 1 22 12 z M8.56 2.75c4.37 6.03 6.02 9.42 8.03 17.72m2.54-15.38c-3.72 4.35-8.94 5.66-16.88 5.85m19.5 1.9c-3.5-.93-6.63-.82-8.94 0-2.58.92-5.01 2.86-7.44 6.32"></path>
  </symbol>
  <symbol id="droplet" viewBox="0 0 24 24">
    <path d="M12 22a7 7 0 007-7c0-2-1-3.9-3-5.5s-3.5-4-4-6.5c-.5 2.5-2 4.9-4 6.5C6 11.1 5 13 5 15a7 7 0 007 7z"></path>
  </symbol>
  <symbol id="droplets" viewBox="0 0 24 24">
    <path d="M7 16.3c2.2 0 4-1.83 4-4.05 0-1.16-.57-2.26-1.71-3.19S7.29 6.75 7 5.3c-.29 1.45-1.14 2.84-2.29 3.76S3 11.1 3 12.25c0 2.22 1.8 4.05 4 4.05z M12.56 6.6A10.97 10.97 0 0014 3.02c.5 2.5 2 4.9 4 6.5s3 3.5 3 5.5a6.98 6.98 0 01-11.91 4.97"></path>
  </symbol>
  <symbol id="edit-2" viewBox="0 0 24 24">
    <path d="M17 3a2.828 2.828 0 114 4L7.5 20.5 2 22l1.5-5.5L17 3z"></path>
  </symbol>
  <symbol id="edit-3" viewBox="0 0 24 24">
    <path d="M12 20h9 M16.5 3.5a2.121 2.121 0 013 3L7 19l-4 1 1-4L16.5 3.5z"></path>
  </symbol>
  <symbol id="edit" viewBox="0 0 24 24">
    <path d="M11 4H4a2 2 0 00-2 2v14a2 2 0 002 2h14a2 2 0 002-2v-7 M18.5 2.5a2.121 2.121 0 013 3L12 15l-4 1 1-4 9.5-9.5z"></path>
  </symbol>
  <symbol id="enter" viewBox="0 0 24 24">
    <path d="M 20 4 V 16 H 6 M 8 12 L 4 16 L 8 20"></path>
  </symbol>
  <symbol id="equal-not" viewBox="0 0 24 24">
    <path d="M5 9 L19 9 M5 15 L19 15 M19 5 L5 19"></path>
  </symbol>
  <symbol id="equal" viewBox="0 0 24 24">
    <path d="M5 9 L19 9 M5 15 L19 15"></path>
  </symbol>
  <symbol id="eraser" viewBox="0 0 24 24">
    <path d="M 22 22 L 10 22 L 2 14 L 14 2 L 22 10 L 10 22 M8 8 L16 16"></path>
  </symbol>
  <symbol id="euro" viewBox="0 0 24 24">
    <path d="M4 10h12 M4 14h9 M19 6a7.7 7.7 0 00-5.2-2A7.9 7.9 0 006 12c0 4.4 3.5 8 7.8 8 2 0 3.8-.8 5.2-2"></path>
  </symbol>
  <symbol id="exchange" viewBox="0 0 24 24">
    <path d="M 8 4 L 4 8 H 20 M 16 20 L 20 16 H 4"></path>
  </symbol>
  <symbol id="exclamation" viewBox="0 0 24 24">
    <path d="M 12 20 V 20 M 12 16 V 4"></path>
  </symbol>
  <symbol id="expand" viewBox="0 0 24 24">
    <path d="M21 21l-6-6m6 6v-4.8m0 4.8h-4.8 M3 16.2V21m0 0h4.8M3 21l6-6 M21 7.8V3m0 0h-4.8M21 3l-6 6 M3 7.8V3m0 0h4.8M3 3l6 6"></path>
  </symbol>
  <symbol id="exponential" viewBox="0 0 24 24">
    <path d="M 3 7 L 15 19 M 3 19 L 15 7 M 21 4 L 18.5 10 M 18 4 L 19.5 6.5"></path>
  </symbol>
  <symbol id="external-link" viewBox="0 0 24 24">
    <path d="M18 13v6a2 2 0 01-2 2H5a2 2 0 01-2-2V8a2 2 0 012-2h6 M15 3 L21 3 L21 9 M10 14 L21 3"></path>
  </symbol>
  <symbol id="eye-off" viewBox="0 0 24 24">
    <path d="M17.94 17.94A10.07 10.07 0 0112 20c-7 0-11-8-11-8a18.45 18.45 0 015.06-5.94M9.9 4.24A9.12 9.12 0 0112 4c7 0 11 8 11 8a18.5 18.5 0 01-2.16 3.19m-6.72-1.07a3 3 0 11-4.24-4.24 M1 1 L23 23"></path>
  </symbol>
  <symbol id="eye" viewBox="0 0 24 24">
    <path d="M1 12s4-8 11-8 11 8 11 8-4 8-11 8-11-8-11-8z M15 12 A3 3 0 0 1 12 15 A3 3 0 0 1 9 12 A3 3 0 0 1 15 12 z"></path>
  </symbol>
  <symbol id="facebook" viewBox="0 0 24 24">
    <path d="M18 2h-3a5 5 0 00-5 5v3H7v4h3v8h4v-8h3l1-4h-4V7a1 1 0 011-1h3z"></path>
  </symbol>
  <symbol id="fast-forward" viewBox="0 0 24 24">
    <path d="M13 19 L22 12 L13 5 L13 19 Z M2 19 L11 12 L2 5 L2 19 Z"></path>
  </symbol>
  <symbol id="feather" viewBox="0 0 24 24">
    <path d="M20.24 12.24a6 6 0 00-8.49-8.49L5 10.5V19h8.5z M16 8 L2 22 M17.5 15 L9 15"></path>
  </symbol>
  <symbol id="figma" viewBox="0 0 24 24">
    <path d="M5 5.5A3.5 3.5 0 018.5 2H12v7H8.5A3.5 3.5 0 015 5.5z M12 2h3.5a3.5 3.5 0 110 7H12V2z M12 12.5a3.5 3.5 0 117 0 3.5 3.5 0 11-7 0z M5 19.5A3.5 3.5 0 018.5 16H12v3.5a3.5 3.5 0 11-7 0z M5 12.5A3.5 3.5 0 018.5 9H12v7H8.5A3.5 3.5 0 015 12.5z"></path>
  </symbol>
  <symbol id="file-check-2" viewBox="0 0 24 24">
    <path d="M4 22h14a2 2 0 002-2V7.5L14.5 2H6a2 2 0 00-2 2v4 M14 2v6h6 M3 15l2 2 4-4"></path>
  </symbol>
  <symbol id="file-check" viewBox="0 0 24 24">
    <path d="M14.5 2H6a2 2 0 00-2 2v16a2 2 0 002 2h12a2 2 0 002-2V7.5L14.5 2z M14 2 L14 8 L20 8 M9 15l2 2 4-4"></path>
  </symbol>
  <symbol id="file-code" viewBox="0 0 24 24">
    <path d="M4 22h14a2 2 0 002-2V7.5L14.5 2H6a2 2 0 00-2 2v4 M14 2v6h6 M9 18l3-3-3-3 M5 12l-3 3 3 3"></path>
  </symbol>
  <symbol id="file-digit" viewBox="0 0 24 24">
    <path d="M4 22h14a2 2 0 002-2V7.5L14.5 2H6a2 2 0 00-2 2v4 M14 2v6h6 M10 12h2v6 M2 12 H6 V18 H2 V12 z M10 18h4"></path>
  </symbol>
  <symbol id="file-input" viewBox="0 0 24 24">
    <path d="M4 22h14a2 2 0 002-2V7.5L14.5 2H6a2 2 0 00-2 2v4 M14 2v6h6 M2 15h10 M9 18l3-3-3-3"></path>
  </symbol>
  <symbol id="file-minus-2" viewBox="0 0 24 24">
    <path d="M4 22h14a2 2 0 002-2V7.5L14.5 2H6a2 2 0 00-2 2v4 M14 2v6h6 M3 15h6"></path>
  </symbol>
  <symbol id="file-minus" viewBox="0 0 24 24">
    <path d="M14.5 2H6a2 2 0 00-2 2v16a2 2 0 002 2h12a2 2 0 002-2V7.5L14.5 2z M14 2 L14 8 L20 8 M9 15 L15 15"></path>
  </symbol>
  <symbol id="file-output" viewBox="0 0 24 24">
    <path d="M4 22h14a2 2 0 002-2V7.5L14.5 2H6a2 2 0 00-2 2v4 M14 2v6h6 M2 15h10 M5 12l-3 3 3 3"></path>
  </symbol>
  <symbol id="file-plus-2" viewBox="0 0 24 24">
    <path d="M4 22h14a2 2 0 002-2V7.5L14.5 2H6a2 2 0 00-2 2v4 M14 2v6h6 M3 15h6 M6 12v6"></path>
  </symbol>
  <symbol id="file-plus" viewBox="0 0 24 24">
    <path d="M14.5 2H6a2 2 0 00-2 2v16a2 2 0 002 2h12a2 2 0 002-2V7.5L14.5 2z M14 2 L14 8 L20 8 M12 18 L12 12 M9 15 L15 15"></path>
  </symbol>
  <symbol id="file-search" viewBox="0 0 24 24">
    <path d="M4 22h14a2 2 0 002-2V7.5L14.5 2H6a2 2 0 00-2 2v3 M14 2v6h6 M5 17a3 3 0 100-6 3 3 0 000 6z M9 18l-1.5-1.5"></path>
  </symbol>
  <symbol id="file-text" viewBox="0 0 24 24">
    <path d="M14.5 2H6a2 2 0 00-2 2v16a2 2 0 002 2h12a2 2 0 002-2V7.5L14.5 2z M14 2 L14 8 L20 8 M16 13 L8 13 M16 17 L8 17 M10 9 L8 9"></path>
  </symbol>
  <symbol id="file-x-2" viewBox="0 0 24 24">
    <path d="M4 22h14a2 2 0 002-2V7.5L14.5 2H6a2 2 0 00-2 2v4 M14 2v6h6 M3 12.5l5 5 M8 12.5l-5 5"></path>
  </symbol>
  <symbol id="file-x" viewBox="0 0 24 24">
    <path d="M14.5 2H6a2 2 0 00-2 2v16a2 2 0 002 2h12a2 2 0 002-2V7.5L14.5 2z M14 2 L14 8 L20 8 M9.5 12.5 L14.5 17.5 M14.5 12.5 L9.5 17.5"></path>
  </symbol>
  <symbol id="file" viewBox="0 0 24 24">
    <path d="M14.5 2H6a2 2 0 00-2 2v16a2 2 0 002 2h12a2 2 0 002-2V7.5L14.5 2z M14 2 L14 8 L20 8"></path>
  </symbol>
  <symbol id="files" viewBox="0 0 24 24">
    <path d="M15.5 2H8.6c-.4 0-.8.2-1.1.5-.3.3-.5.7-.5 1.1v12.8c0 .4.2.8.5 1.1.3.3.7.5 1.1.5h9.8c.4 0 .8-.2 1.1-.5.3-.3.5-.7.5-1.1V6.5L15.5 2z M3 7.6v12.8c0 .4.2.8.5 1.1.3.3.7.5 1.1.5h9.8 M15 2v5h5"></path>
  </symbol>
  <symbol id="film" viewBox="0 0 24 24">
    <path d="M4.18 2 H19.82 A2.18 2.18 0 0 1 22 4.18 V19.82 A2.18 2.18 0 0 1 19.82 22 H4.18 A2.18 2.18 0 0 1 2 19.82 V4.18 A2.18 2.18 0 0 1 4.18 2 z M7 2 L7 22 M17 2 L17 22 M2 12 L22 12 M2 7 L7 7 M2 17 L7 17 M17 17 L22 17 M17 7 L22 7"></path>
  </symbol>
  <symbol id="filter" viewBox="0 0 24 24">
    <path d="M22 3 L2 3 L10 12.46 L10 19 L14 21 L14 12.46 L22 3 Z"></path>
  </symbol>
  <symbol id="flag" viewBox="0 0 24 24">
    <path d="M4 15s1-1 4-1 5 2 8 2 4-1 4-1V3s-1 1-4 1-5-2-8-2-4 1-4 1z M4 22 L4 15"></path>
  </symbol>
  <symbol id="flame" viewBox="0 0 24 24">
    <path d="M8.5 14.5A2.5 2.5 0 0011 12c0-1.38-.5-2-1-3-1.072-2.143-.224-4.054 2-6 .5 2.5 2 4.9 4 6.5 2 1.6 3 3.5 3 5.5a7 7 0 11-14 0c0-1.153.433-2.294 1-3a2.5 2.5 0 002.5 2.5z"></path>
  </symbol>
  <symbol id="flashlight-off" viewBox="0 0 24 24">
    <path d="M16 16v4a2 2 0 01-2 2h-4a2 2 0 01-2-2V10c0-2-2-2-2-4 M7 2h11v4c0 2-2 2-2 4v1 M11 6 L18 6 M2 2 L22 22"></path>
  </symbol>
  <symbol id="flashlight" viewBox="0 0 24 24">
    <path d="M18 6c0 2-2 2-2 4v10a2 2 0 01-2 2h-4a2 2 0 01-2-2V10c0-2-2-2-2-4V2h12z M6 6 L18 6 M12 12 L12 12"></path>
  </symbol>
  <symbol id="flask-conical" viewBox="0 0 24 24">
    <path d="M10 2v8L4.72 20.55a1 1 0 00.9 1.45h12.76a1 1 0 00.9-1.45L14 10V2 M8.5 2h7 M7 16h10"></path>
  </symbol>
  <symbol id="flask-round" viewBox="0 0 24 24">
    <path d="M10 2v7.31 M14 9.3V1.99 M8.5 2h7 M14 9.3a6.5 6.5 0 11-4 0 M5.58 16.5h12.85"></path>
  </symbol>
  <symbol id="folder-minus" viewBox="0 0 24 24">
    <path d="M22 19a2 2 0 01-2 2H4a2 2 0 01-2-2V5a2 2 0 012-2h5l2 3h9a2 2 0 012 2z M9 14 L15 14"></path>
  </symbol>
  <symbol id="folder-plus" viewBox="0 0 24 24">
    <path d="M22 19a2 2 0 01-2 2H4a2 2 0 01-2-2V5a2 2 0 012-2h5l2 3h9a2 2 0 012 2z M12 11 L12 17 M9 14 L15 14"></path>
  </symbol>
  <symbol id="folder" viewBox="0 0 24 24">
    <path d="M22 19a2 2 0 01-2 2H4a2 2 0 01-2-2V5a2 2 0 012-2h5l2 3h9a2 2 0 012 2z"></path>
  </symbol>
  <symbol id="form-input" viewBox="0 0 24 24">
    <path d="M4 6 H20 A2 2 0 0 1 22 8 V16 A2 2 0 0 1 20 18 H4 A2 2 0 0 1 2 16 V8 A2 2 0 0 1 4 6 z M12 12h.01 M17 12h.01 M7 12h.01"></path>
  </symbol>
  <symbol id="forward" viewBox="0 0 24 24">
    <path d="M15 17 L20 12 L15 7 M4 18v-2a4 4 0 0 1 4-4h12"></path>
  </symbol>
  <symbol id="framer" viewBox="0 0 24 24">
    <path d="M5 16V9h14V2H5l14 14h-7m-7 0l7 7v-7m-7 0h7"></path>
  </symbol>
  <symbol id="frown" viewBox="0 0 24 24">
    <path d="M22 12 A10 10 0 0 1 12 22 A10 10 0 0 1 2 12 A10 10 0 0 1 22 12 z M16 16s-1.5-2-4-2-4 2-4 2 M9 9 L9.01 9 M15 9 L15.01 9"></path>
  </symbol>
  <symbol id="function-square" viewBox="0 0 24 24">
    <path d="M5 3 H19 A2 2 0 0 1 21 5 V19 A2 2 0 0 1 19 21 H5 A2 2 0 0 1 3 19 V5 A2 2 0 0 1 5 3 z M9 17c1.93 0 2.85-1 2.85-2.8V9.99c0-1.93 1.03-3.26 3.15-2.93M9 11.24h5.66"></path>
  </symbol>
  <symbol id="gamepad-2" viewBox="0 0 24 24">
    <path d="M6 11 L10 11 M8 9 L8 13 M15 12 L15.01 12 M18 10 L18.01 10 M17.32 5H6.68a4 4 0 00-3.978 3.59c-.006.052-.01.101-.017.152C2.604 9.416 2 14.456 2 16a3 3 0 003 3c1 0 1.5-.5 2-1l1.414-1.414A2 2 0 019.828 16h4.344a2 2 0 011.414.586L17 18c.5.5 1 1 2 1a3 3 0 003-3c0-1.545-.604-6.584-.685-7.258-.007-.05-.011-.1-.017-.151A4 4 0 0017.32 5z"></path>
  </symbol>
  <symbol id="gamepad" viewBox="0 0 24 24">
    <path d="M6 12 L10 12 M8 10 L8 14 M15 13 L15.01 13 M18 11 L18.01 11 M4 6 H20 A2 2 0 0 1 22 8 V16 A2 2 0 0 1 20 18 H4 A2 2 0 0 1 2 16 V8 A2 2 0 0 1 4 6 z"></path>
  </symbol>
  <symbol id="gauge" viewBox="0 0 24 24">
    <path d="M12 15l3.5-3.5 M20.3 18c.4-1 .7-2.2.7-3.4C21 9.8 17 6 12 6s-9 3.8-9 8.6c0 1.2.3 2.4.7 3.4"></path>
  </symbol>
  <symbol id="gavel" viewBox="0 0 24 24">
    <path d="M14 13l-7.5 7.5c-.83.83-2.17.83-3 0 0 0 0 0 0 0a2.12 2.12 0 010-3L11 10 M16 16l6-6 M8 8l6-6 M9 7l8 8 M21 11l-8-8"></path>
  </symbol>
  <symbol id="ghost" viewBox="0 0 24 24">
    <path d="M9 10h.01 M15 10h.01 M12 2a8 8 0 00-8 8v12l3-3 2.5 2.5L12 19l2.5 2.5L17 19l3 3V10a8 8 0 00-8-8z"></path>
  </symbol>
  <symbol id="gift" viewBox="0 0 24 24">
    <path d="M20 12 L20 22 L4 22 L4 12 M2 7 H22 V12 H2 V7 z M12 22 L12 7 M12 7H7.5a2.5 2.5 0 010-5C11 2 12 7 12 7z M12 7h4.5a2.5 2.5 0 000-5C13 2 12 7 12 7z"></path>
  </symbol>
  <symbol id="git-branch-plus" viewBox="0 0 24 24">
    <path d="M6 3v12 M18 9a3 3 0 100-6 3 3 0 000 6z M6 21a3 3 0 100-6 3 3 0 000 6z M15 6a9 9 0 00-9 9 M18 15v6 M21 18h-6"></path>
  </symbol>
  <symbol id="git-branch" viewBox="0 0 24 24">
    <path d="M6 3 L6 15 M21 6 A3 3 0 0 1 18 9 A3 3 0 0 1 15 6 A3 3 0 0 1 21 6 z M9 18 A3 3 0 0 1 6 21 A3 3 0 0 1 3 18 A3 3 0 0 1 9 18 z M18 9a9 9 0 01-9 9"></path>
  </symbol>
  <symbol id="git-commit" viewBox="0 0 24 24">
    <path d="M15 12 A3 3 0 0 1 12 15 A3 3 0 0 1 9 12 A3 3 0 0 1 15 12 z M3 12 L9 12 M15 12 L21 12"></path>
  </symbol>
  <symbol id="git-merge" viewBox="0 0 24 24">
    <path d="M21 18 A3 3 0 0 1 18 21 A3 3 0 0 1 15 18 A3 3 0 0 1 21 18 z M9 6 A3 3 0 0 1 6 9 A3 3 0 0 1 3 6 A3 3 0 0 1 9 6 z M6 21V9a9 9 0 009 9"></path>
  </symbol>
  <symbol id="git-pull-request" viewBox="0 0 24 24">
    <path d="M21 18 A3 3 0 0 1 18 21 A3 3 0 0 1 15 18 A3 3 0 0 1 21 18 z M9 6 A3 3 0 0 1 6 9 A3 3 0 0 1 3 6 A3 3 0 0 1 9 6 z M13 6h3a2 2 0 012 2v7 M6 9 L6 21"></path>
  </symbol>
  <symbol id="github" viewBox="0 0 24 24">
    <path d="M9 19c-5 1.5-5-2.5-7-3m14 6v-3.87a3.37 3.37 0 00-.94-2.61c3.14-.35 6.44-1.54 6.44-7A5.44 5.44 0 0020 4.77 5.07 5.07 0 0019.91 1S18.73.65 16 2.48a13.38 13.38 0 00-7 0C6.27.65 5.09 1 5.09 1A5.07 5.07 0 005 4.77a5.44 5.44 0 00-1.5 3.78c0 5.42 3.3 6.61 6.44 7A3.37 3.37 0 009 18.13V22"></path>
  </symbol>
  <symbol id="gitlab" viewBox="0 0 24 24">
    <path d="M22.65 14.39L12 22.13 1.35 14.39a.84.84 0 01-.3-.94l1.22-3.78 2.44-7.51A.42.42 0 014.82 2a.43.43 0 01.58 0 .42.42 0 01.11.18l2.44 7.49h8.1l2.44-7.51A.42.42 0 0118.6 2a.43.43 0 01.58 0 .42.42 0 01.11.18l2.44 7.51L23 13.45a.84.84 0 01-.35.94z"></path>
  </symbol>
  <symbol id="glasses" viewBox="0 0 24 24">
    <path d="M10 15 A4 4 0 0 1 6 19 A4 4 0 0 1 2 15 A4 4 0 0 1 10 15 z M22 15 A4 4 0 0 1 18 19 A4 4 0 0 1 14 15 A4 4 0 0 1 22 15 z M14 15a2 2 0 00-2-2 2 2 0 00-2 2 M2.5 13L5 7c.7-1.3 1.4-2 3-2 M21.5 13L19 7c-.7-1.3-1.5-2-3-2"></path>
  </symbol>
  <symbol id="globe-2" viewBox="0 0 24 24">
    <path d="M15 21v-4a2 2 0 012-2h4 M7 4v2a3 3 0 003 2h0a2 2 0 012 2 2 2 0 004 0 2 2 0 012-2h3 M3 11h2a2 2 0 012 2v1a2 2 0 002 2 2 2 0 012 2v4 M22 12 A10 10 0 0 1 12 22 A10 10 0 0 1 2 12 A10 10 0 0 1 22 12 z"></path>
  </symbol>
  <symbol id="globe" viewBox="0 0 24 24">
    <path d="M22 12 A10 10 0 0 1 12 22 A10 10 0 0 1 2 12 A10 10 0 0 1 22 12 z M2 12 L22 12 M12 2a15.3 15.3 0 014 10 15.3 15.3 0 01-4 10 15.3 15.3 0 01-4-10 15.3 15.3 0 014-10z"></path>
  </symbol>
  <symbol id="grab" viewBox="0 0 24 24">
    <path d="M18 11.5V9a2 2 0 00-2-2v0a2 2 0 00-2 2v1.4 M14 10V8a2 2 0 00-2-2v0a2 2 0 00-2 2v2 M10 9.9V9a2 2 0 00-2-2v0a2 2 0 00-2 2v5 M6 14v0a2 2 0 00-2-2v0a2 2 0 00-2 2v0 M18 11v0a2 2 0 114 0v3a8 8 0 01-8 8h-4a8 8 0 01-8-8 2 2 0 114 0"></path>
  </symbol>
  <symbol id="graph" viewBox="0 0 24 24">
    <path d="M17 13 A4 4 0 0 1 13 17 A4 4 0 0 1 9 13 A4 4 0 0 1 17 13 z M8 5 A3 3 0 0 1 5 8 A3 3 0 0 1 2 5 A3 3 0 0 1 8 5 z M19 6 A1 1 0 0 1 18 7 A1 1 0 0 1 17 6 A1 1 0 0 1 19 6 z M22 18 A2 2 0 0 1 20 20 A2 2 0 0 1 18 18 A2 2 0 0 1 22 18 z M7 19 A1 1 0 0 1 6 20 A1 1 0 0 1 5 19 A1 1 0 0 1 7 19 z M7.5 7.5 L10 10 M18 16.5 L16.5 15.5 M18 6 L15.5 9.5 M6 19 L10 15.5"></path>
  </symbol>
  <symbol id="greater-than-equal" viewBox="0 0 24 24">
    <path d="M 6 4 L 18 10 L 6 16 M6 20 L18 20"></path>
  </symbol>
  <symbol id="greater-than" viewBox="0 0 24 24">
    <path d="M 18 6 L 6 12 L 18 18"></path>
  </symbol>
  <symbol id="grid" viewBox="0 0 24 24">
    <path d="M5 3 H19 A2 2 0 0 1 21 5 V19 A2 2 0 0 1 19 21 H5 A2 2 0 0 1 3 19 V5 A2 2 0 0 1 5 3 z M3 9 L21 9 M3 15 L21 15 M9 3 L9 21 M15 3 L15 21"></path>
  </symbol>
  <symbol id="grip-horizontal" viewBox="0 0 24 24">
    <path d="M13 9 A1 1 0 0 1 12 10 A1 1 0 0 1 11 9 A1 1 0 0 1 13 9 z M20 9 A1 1 0 0 1 19 10 A1 1 0 0 1 18 9 A1 1 0 0 1 20 9 z M6 9 A1 1 0 0 1 5 10 A1 1 0 0 1 4 9 A1 1 0 0 1 6 9 z M13 15 A1 1 0 0 1 12 16 A1 1 0 0 1 11 15 A1 1 0 0 1 13 15 z M20 15 A1 1 0 0 1 19 16 A1 1 0 0 1 18 15 A1 1 0 0 1 20 15 z M6 15 A1 1 0 0 1 5 16 A1 1 0 0 1 4 15 A1 1 0 0 1 6 15 z"></path>
  </symbol>
  <symbol id="grip-lines-horizontal" viewBox="0 0 24 24">
    <path d="M4 8 L20 8 M4 16 L20 16"></path>
  </symbol>
  <symbol id="grip-lines-vertical" viewBox="0 0 24 24">
    <path d="M8 4 L8 20 M16 4 L16 20"></path>
  </symbol>
  <symbol id="grip-vertical" viewBox="0 0 24 24">
    <path d="M10 12 A1 1 0 0 1 9 13 A1 1 0 0 1 8 12 A1 1 0 0 1 10 12 z M10 5 A1 1 0 0 1 9 6 A1 1 0 0 1 8 5 A1 1 0 0 1 10 5 z M10 19 A1 1 0 0 1 9 20 A1 1 0 0 1 8 19 A1 1 0 0 1 10 19 z M16 12 A1 1 0 0 1 15 13 A1 1 0 0 1 14 12 A1 1 0 0 1 16 12 z M16 5 A1 1 0 0 1 15 6 A1 1 0 0 1 14 5 A1 1 0 0 1 16 5 z M16 19 A1 1 0 0 1 15 20 A1 1 0 0 1 14 19 A1 1 0 0 1 16 19 z"></path>
  </symbol>
  <symbol id="half" viewBox="0 0 24 24">
    <path d="M 6 4 h 2 v 6 m -2 0 h 4 M 6 18 L 18 6 M 14 14 h 4 v 3 h -4 v 3 h 4"></path>
  </symbol>
  <symbol id="hammer" viewBox="0 0 24 24">
    <path d="M15 12l-8.5 8.5c-.83.83-2.17.83-3 0 0 0 0 0 0 0a2.12 2.12 0 010-3L12 9 M17.64 15L22 10.64 M20.91 11.7l-1.25-1.25c-.6-.6-.93-1.4-.93-2.25v-.86L16.01 4.6a5.56 5.56 0 00-3.94-1.64H9l.92.82A6.18 6.18 0 0112 8.4v1.56l2 2h2.47l2.26 1.91"></path>
  </symbol>
  <symbol id="hand-metal" viewBox="0 0 24 24">
    <path d="M18 12.5V10a2 2 0 00-2-2v0a2 2 0 00-2 2v1.4 M14 11V9a2 2 0 10-4 0v2 M10 10.5V5a2 2 0 10-4 0v9 M7 15l-1.76-1.76a2 2 0 00-2.83 2.82l3.6 3.6C7.5 21.14 9.2 22 12 22h2a8 8 0 008-8V7a2 2 0 10-4 0v5"></path>
  </symbol>
  <symbol id="hand" viewBox="0 0 24 24">
    <path d="M18 11V6a2 2 0 00-2-2v0a2 2 0 00-2 2v0 M14 10V4a2 2 0 00-2-2v0a2 2 0 00-2 2v2 M10 10.5V6a2 2 0 00-2-2v0a2 2 0 00-2 2v8 M18 8a2 2 0 114 0v6a8 8 0 01-8 8h-2c-2.8 0-4.5-.86-5.99-2.34l-3.6-3.6a2 2 0 012.83-2.82L7 15"></path>
  </symbol>
  <symbol id="hard-drive" viewBox="0 0 24 24">
    <path d="M22 12 L2 12 M5.45 5.11L2 12v6a2 2 0 002 2h16a2 2 0 002-2v-6l-3.45-6.89A2 2 0 0016.76 4H7.24a2 2 0 00-1.79 1.11z M6 16 L6.01 16 M10 16 L10.01 16"></path>
  </symbol>
  <symbol id="hard-hat" viewBox="0 0 24 24">
    <path d="M2 18a1 1 0 001 1h18a1 1 0 001-1v-2a1 1 0 00-1-1H3a1 1 0 00-1 1v2z M10 10V5a1 1 0 011-1h2a1 1 0 011 1v5 M4 15v-3a6 6 0 016-6h0 M14 6h0a6 6 0 016 6v3"></path>
  </symbol>
  <symbol id="hash" viewBox="0 0 24 24">
    <path d="M4 9 L20 9 M4 15 L20 15 M10 3 L8 21 M16 3 L14 21"></path>
  </symbol>
  <symbol id="haze" viewBox="0 0 24 24">
    <path d="M5.2 6.2l1.4 1.4 M2 13h2 M20 13h2 M17.4 7.6l1.4-1.4 M22 17H2 M22 21H2 M16 13a4 4 0 00-8 0 M12 5V2.5"></path>
  </symbol>
  <symbol id="headphones" viewBox="0 0 24 24">
    <path d="M3 18v-6a9 9 0 0118 0v6 M21 19a2 2 0 01-2 2h-1a2 2 0 01-2-2v-3a2 2 0 012-2h3zM3 19a2 2 0 002 2h1a2 2 0 002-2v-3a2 2 0 00-2-2H3z"></path>
  </symbol>
  <symbol id="heart" viewBox="0 0 24 24">
    <path d="M20.42 4.58a5.4 5.4 0 00-7.65 0l-.77.78-.77-.78a5.4 5.4 0 00-7.65 0C1.46 6.7 1.33 10.28 4 13l8 8 8-8c2.67-2.72 2.54-6.3.42-8.42z"></path>
  </symbol>
  <symbol id="help-circle" viewBox="0 0 24 24">
    <path d="M22 12 A10 10 0 0 1 12 22 A10 10 0 0 1 2 12 A10 10 0 0 1 22 12 z M9.09 9a3 3 0 015.83 1c0 2-3 3-3 3 M12 17 L12.01 17"></path>
  </symbol>
  <symbol id="hexagon" viewBox="0 0 24 24">
    <path d="M21 16V8a2 2 0 00-1-1.73l-7-4a2 2 0 00-2 0l-7 4A2 2 0 003 8v8a2 2 0 001 1.73l7 4a2 2 0 002 0l7-4A2 2 0 0021 16z"></path>
  </symbol>
  <symbol id="highlighter" viewBox="0 0 24 24">
    <path d="M9 11l-6 6v3h9l3-3 M22 12l-4.6 4.6a2 2 0 01-2.8 0l-5.2-5.2a2 2 0 010-2.8L14 4"></path>
  </symbol>
  <symbol id="history" viewBox="0 0 24 24">
    <path d="M3 3v5h5 M3.05 13A9 9 0 106 5.3L3 8 M12 7v5l4 2"></path>
  </symbol>
  <symbol id="home" viewBox="0 0 24 24">
    <path d="M3 9l9-7 9 7v11a2 2 0 01-2 2H5a2 2 0 01-2-2z M9 22 L9 12 L15 12 L15 22"></path>
  </symbol>
  <symbol id="image-minus" viewBox="0 0 24 24">
    <path d="M21 11v8a2 2 0 01-2 2H5a2 2 0 01-2-2V5a2 2 0 012-2h8 M8.5 10a1.5 1.5 0 100-3 1.5 1.5 0 000 3z M21 15l-5-5L5 21 M22 5h-6"></path>
  </symbol>
  <symbol id="image-off" viewBox="0 0 24 24">
    <path d="M2 2l20 20 M9 3h10a2 2 0 012 2v10M3.59 3.59A2 2 0 003 5v14c0 1.1.9 2 2 2h14a2 2 0 001.41-.59 M9.56 9.56a1.5 1.5 0 01-2.12-2.12 M21 15l-5-5M5 21l8-8"></path>
  </symbol>
  <symbol id="image-plus" viewBox="0 0 24 24">
    <path d="M21 11v8a2 2 0 01-2 2H5a2 2 0 01-2-2V5a2 2 0 012-2h8 M8.5 10a1.5 1.5 0 100-3 1.5 1.5 0 000 3z M21 15l-5-5L5 21 M19 2v6 M22 5h-6"></path>
  </symbol>
  <symbol id="image" viewBox="0 0 24 24">
    <path d="M5 3 H19 A2 2 0 0 1 21 5 V19 A2 2 0 0 1 19 21 H5 A2 2 0 0 1 3 19 V5 A2 2 0 0 1 5 3 z M10 8.5 A1.5 1.5 0 0 1 8.5 10 A1.5 1.5 0 0 1 7 8.5 A1.5 1.5 0 0 1 10 8.5 z M21 15 L16 10 L5 21"></path>
  </symbol>
  <symbol id="import" viewBox="0 0 24 24">
    <path d="M12 3v12 M8 11l4 4 4-4 M8 5H4a2 2 0 00-2 2v10a2 2 0 002 2h16a2 2 0 002-2V7a2 2 0 00-2-2h-4"></path>
  </symbol>
  <symbol id="inbox" viewBox="0 0 24 24">
    <path d="M22 12 L16 12 L14 15 L10 15 L8 12 L2 12 M5.45 5.11L2 12v6a2 2 0 002 2h16a2 2 0 002-2v-6l-3.45-6.89A2 2 0 0016.76 4H7.24a2 2 0 00-1.79 1.11z"></path>
  </symbol>
  <symbol id="indent" viewBox="0 0 24 24">
    <path d="M3 8 L7 12 L3 16 M21 12 L11 12 M21 6 L11 6 M21 18 L11 18"></path>
  </symbol>
  <symbol id="indian-rupee" viewBox="0 0 24 24">
    <path d="M6 3h12 M6 8h12 M6 13l8.5 8 M6 13h3 M9 13c6.667 0 6.667-10 0-10"></path>
  </symbol>
  <symbol id="infinity" viewBox="0 0 24 24">
    <path d="M18.178 8c5.096 0 5.096 8 0 8-5.095 0-7.133-8-12.739-8-4.585 0-4.585 8 0 8 5.606 0 7.644-8 12.74-8z"></path>
  </symbol>
  <symbol id="info-square" viewBox="0 0 24 24">
    <path d="M5 3 H19 A2 2 0 0 1 21 5 V19 A2 2 0 0 1 19 21 H5 A2 2 0 0 1 3 19 V5 A2 2 0 0 1 5 3 z M12 12 L12 16 M12 8 L12 8"></path>
  </symbol>
  <symbol id="info" viewBox="0 0 24 24">
    <path d="M22 12 A10 10 0 0 1 12 22 A10 10 0 0 1 2 12 A10 10 0 0 1 22 12 z M12 16 L12 12 M12 8 L12.01 8"></path>
  </symbol>
  <symbol id="inspect" viewBox="0 0 24 24">
    <path d="M19 11V4a2 2 0 00-2-2H4a2 2 0 00-2 2v13a2 2 0 002 2h7 M12 12l4.166 10 1.48-4.355L22 16.166 12 12z M18 18l3 3"></path>
  </symbol>
  <symbol id="instagram" viewBox="0 0 24 24">
    <path d="M7 2 H17 A5 5 0 0 1 22 7 V17 A5 5 0 0 1 17 22 H7 A5 5 0 0 1 2 17 V7 A5 5 0 0 1 7 2 z M16 11.37A4 4 0 1112.63 8 4 4 0 0116 11.37z M17.5 6.5 L17.51 6.5"></path>
  </symbol>
  <symbol id="italic" viewBox="0 0 24 24">
    <path d="M19 4 L10 4 M14 20 L5 20 M15 4 L9 20"></path>
  </symbol>
  <symbol id="jersey-pound" viewBox="0 0 24 24">
    <path d="M12 9.5V21m0-11.5L6 3m6 6.5L18 3 M6 15h12 M6 11h12"></path>
  </symbol>
  <symbol id="key" viewBox="0 0 24 24">
    <path d="M21 2l-2 2m-7.61 7.61a5.5 5.5 0 11-7.778 7.778 5.5 5.5 0 017.777-7.777zm0 0L15.5 7.5m0 0l3 3L22 7l-3-3m-3.5 3.5L19 4"></path>
  </symbol>
  <symbol id="keyboard" viewBox="0 0 24 24">
    <path d="M4 4 H20 A2 2 0 0 1 22 6 V18 A2 2 0 0 1 20 20 H4 A2 2 0 0 1 2 18 V6 A2 2 0 0 1 4 4 z M6 8 L6.01 8 M10 8 L10.01 8 M14 8 L14.01 8 M18 8 L18.01 8 M8 12 L8.01 12 M12 12 L12.01 12 M16 12 L16.01 12 M10 16 L14 16 M6 16 L6.01 16 M18 16 L18.01 16"></path>
  </symbol>
  <symbol id="languages" viewBox="0 0 24 24">
    <path d="M5 8l6 6 M4 14l6-6 2-3 M2 5h12 M7 2h1 M22 22l-5-10-5 10 M14 18h6"></path>
  </symbol>
  <symbol id="laptop-2" viewBox="0 0 24 24">
    <path d="M5 4 H19 A2 2 0 0 1 21 6 V14 A2 2 0 0 1 19 16 H5 A2 2 0 0 1 3 14 V6 A2 2 0 0 1 5 4 z M2 20 L22 20"></path>
  </symbol>
  <symbol id="laptop" viewBox="0 0 24 24">
    <path d="M20 16V7a2 2 0 00-2-2H6a2 2 0 00-2 2v9m16 0H4m16 0l1.28 2.55a1 1 0 01-.9 1.45H3.62a1 1 0 01-.9-1.45L4 16"></path>
  </symbol>
  <symbol id="lasso-select" viewBox="0 0 24 24">
    <path d="M7 22a5 5 0 01-2-4 M7 16.93c.96.43 1.96.74 2.99.91 M3.34 14A6.8 6.8 0 012 10c0-4.42 4.48-8 10-8s10 3.58 10 8a7.19 7.19 0 01-.33 2 M5 18a2 2 0 100-4 2 2 0 000 4z M14.33 22h-.09a.35.35 0 01-.24-.32v-10a.34.34 0 01.33-.34c.08 0 .15.03.21.08l7.34 6a.33.33 0 01-.21.59h-4.49l-2.57 3.85a.35.35 0 01-.28.14v0z"></path>
  </symbol>
  <symbol id="lasso" viewBox="0 0 24 24">
    <path d="M7 22a5 5 0 01-2-4 M3.3 14A6.8 6.8 0 012 10c0-4.4 4.5-8 10-8s10 3.6 10 8-4.5 8-10 8a12 12 0 01-5-1 M5 18a2 2 0 100-4 2 2 0 000 4z"></path>
  </symbol>
  <symbol id="layers" viewBox="0 0 24 24">
    <path d="M12 2 L2 7 L12 12 L22 7 L12 2 Z M2 17 L12 22 L22 17 M2 12 L12 17 L22 12"></path>
  </symbol>
  <symbol id="layout-dashboard" viewBox="0 0 24 24">
    <path d="M3 3 H10 V12 H3 V3 z M14 3 H21 V8 H14 V3 z M14 12 H21 V21 H14 V12 z M3 16 H10 V21 H3 V16 z"></path>
  </symbol>
  <symbol id="layout-grid" viewBox="0 0 24 24">
    <path d="M3 3 H10 V10 H3 V3 z M14 3 H21 V10 H14 V3 z M14 14 H21 V21 H14 V14 z M3 14 H10 V21 H3 V14 z"></path>
  </symbol>
  <symbol id="layout-list" viewBox="0 0 24 24">
    <path d="M3 14 H10 V21 H3 V14 z M3 3 H10 V10 H3 V3 z M14 4 L21 4 M14 9 L21 9 M14 15 L21 15 M14 20 L21 20"></path>
  </symbol>
  <symbol id="layout-template" viewBox="0 0 24 24">
    <path d="M21 3H3v7h18V3z M21 14h-5v7h5v-7z M12 14H3v7h9v-7z"></path>
  </symbol>
  <symbol id="layout" viewBox="0 0 24 24">
    <path d="M5 3 H19 A2 2 0 0 1 21 5 V19 A2 2 0 0 1 19 21 H5 A2 2 0 0 1 3 19 V5 A2 2 0 0 1 5 3 z M3 9 L21 9 M9 21 L9 9"></path>
  </symbol>
  <symbol id="less-than-equal" viewBox="0 0 24 24">
    <path d="M 18 4 L 6 10 L 18 16 M6 20 L18 20"></path>
  </symbol>
  <symbol id="less-than" viewBox="0 0 24 24">
    <path d="M 18 6 L 6 12 L 18 18"></path>
  </symbol>
  <symbol id="library" viewBox="0 0 24 24">
    <path d="M16 6l4 14 M12 6v14 M8 8v12 M4 4v16"></path>
  </symbol>
  <symbol id="life-buoy" viewBox="0 0 24 24">
    <path d="M22 12 A10 10 0 0 1 12 22 A10 10 0 0 1 2 12 A10 10 0 0 1 22 12 z M16 12 A4 4 0 0 1 12 16 A4 4 0 0 1 8 12 A4 4 0 0 1 16 12 z M4.93 4.93 L9.17 9.17 M14.83 14.83 L19.07 19.07 M14.83 9.17 L19.07 4.93 M14.83 9.17 L18.36 5.64 M4.93 19.07 L9.17 14.83"></path>
  </symbol>
  <symbol id="lightbulb-off" viewBox="0 0 24 24">
    <path d="M9 18h6 M10 22h4 M2 2l20 20 M8.91 14a4.61 4.61 0 00-1.41-2.5C6.23 10.23 6 9 6 8a6 6 0 01.084-1M9 2.804A6 6 0 0118 8a4.651 4.651 0 01-1.031 3"></path>
  </symbol>
  <symbol id="lightbulb" viewBox="0 0 24 24">
    <path d="M9 18 L15 18 M10 22 L14 22 M15.09 14c.18-.98.65-1.74 1.41-2.5A4.65 4.65 0 0018 8 6 6 0 006 8c0 1 .23 2.23 1.5 3.5A4.61 4.61 0 018.91 14"></path>
  </symbol>
  <symbol id="link-2-off" viewBox="0 0 24 24">
    <path d="M15 7h2a5 5 0 014 8M9 17H7A5 5 0 017 7 M8 12 L12 12 M2 2 L22 22"></path>
  </symbol>
  <symbol id="link-2" viewBox="0 0 24 24">
    <path d="M15 7h2a5 5 0 010 10h-2m-6 0H7A5 5 0 017 7h2 M8 12 L16 12"></path>
  </symbol>
  <symbol id="link" viewBox="0 0 24 24">
    <path d="M10 13a5 5 0 007.54.54l3-3a5 5 0 00-7.07-7.07l-1.72 1.71 M14 11a5 5 0 00-7.54-.54l-3 3a5 5 0 007.07 7.07l1.71-1.71"></path>
  </symbol>
  <symbol id="linkedin" viewBox="0 0 24 24">
    <path d="M16 8a6 6 0 016 6v7h-4v-7a2 2 0 00-2-2 2 2 0 00-2 2v7h-4v-7a6 6 0 016-6z M2 9 H6 V21 H2 V9 z M6 4 A2 2 0 0 1 4 6 A2 2 0 0 1 2 4 A2 2 0 0 1 6 4 z"></path>
  </symbol>
  <symbol id="list-checks" viewBox="0 0 24 24">
    <path d="M10 6 L21 6 M10 12 L21 12 M10 18 L21 18 M3 6 L4 7 L6 5 M3 12 L4 13 L6 11 M3 18 L4 19 L6 17"></path>
  </symbol>
  <symbol id="list-ordered" viewBox="0 0 24 24">
    <path d="M10 6 L21 6 M10 12 L21 12 M10 18 L21 18 M4 6h1v4 M4 10h2 M6 18H4c0-1 2-2 2-3s-1-1.5-2-1"></path>
  </symbol>
  <symbol id="list" viewBox="0 0 24 24">
    <path d="M8 6 L21 6 M8 12 L21 12 M8 18 L21 18 M3 6 L3.01 6 M3 12 L3.01 12 M3 18 L3.01 18"></path>
  </symbol>
  <symbol id="loader-2" viewBox="0 0 24 24">
    <path d="M21 12a9 9 0 11-6.219-8.56"></path>
  </symbol>
  <symbol id="loader" viewBox="0 0 24 24">
    <path d="M12 2 L12 6 M12 18 L12 22 M4.93 4.93 L7.76 7.76 M16.24 16.24 L19.07 19.07 M2 12 L6 12 M18 12 L22 12 M4.93 19.07 L7.76 16.24 M16.24 7.76 L19.07 4.93"></path>
  </symbol>
  <symbol id="locate-fixed" viewBox="0 0 24 24">
    <path d="M2 12 L5 12 M19 12 L22 12 M12 2 L12 5 M12 19 L12 22 M19 12 A7 7 0 0 1 12 19 A7 7 0 0 1 5 12 A7 7 0 0 1 19 12 z M15 12 A3 3 0 0 1 12 15 A3 3 0 0 1 9 12 A3 3 0 0 1 15 12 z"></path>
  </symbol>
  <symbol id="locate" viewBox="0 0 24 24">
    <path d="M2 12 L5 12 M19 12 L22 12 M12 2 L12 5 M12 19 L12 22 M19 12 A7 7 0 0 1 12 19 A7 7 0 0 1 5 12 A7 7 0 0 1 19 12 z"></path>
  </symbol>
  <symbol id="lock" viewBox="0 0 24 24">
    <path d="M5 11 H19 A2 2 0 0 1 21 13 V20 A2 2 0 0 1 19 22 H5 A2 2 0 0 1 3 20 V13 A2 2 0 0 1 5 11 z M7 11V7a5 5 0 0110 0v4"></path>
  </symbol>
  <symbol id="log-in" viewBox="0 0 24 24">
    <path d="M15 3h4a2 2 0 012 2v14a2 2 0 01-2 2h-4 M10 17 L15 12 L10 7 M15 12 L3 12"></path>
  </symbol>
  <symbol id="log-out" viewBox="0 0 24 24">
    <path d="M9 21H5a2 2 0 01-2-2V5a2 2 0 012-2h4 M16 17 L21 12 L16 7 M21 12 L9 12"></path>
  </symbol>
  <symbol id="mail" viewBox="0 0 24 24">
    <path d="M4 4h16c1.1 0 2 .9 2 2v12c0 1.1-.9 2-2 2H4c-1.1 0-2-.9-2-2V6c0-1.1.9-2 2-2z M22 6 L12 13 L2 6"></path>
  </symbol>
  <symbol id="map-pin" viewBox="0 0 24 24">
    <path d="M21 10c0 7-9 13-9 13s-9-6-9-13a9 9 0 0118 0z M15 10 A3 3 0 0 1 12 13 A3 3 0 0 1 9 10 A3 3 0 0 1 15 10 z"></path>
  </symbol>
  <symbol id="map-signs" viewBox="0 0 24 24">
    <path d="M 4.5 6 h 14 l 2 2 l -2 2 h -14 Z M 5.5 13 l -2 2 l 2 2 h 14 v -4 z M12 3 L12 6 M12 11 L12 13 M12 17 L12 21"></path>
  </symbol>
  <symbol id="map" viewBox="0 0 24 24">
    <path d="M1 6 L1 22 L8 18 L16 22 L23 18 L23 2 L16 6 L8 2 L1 6 Z M8 2 L8 18 M16 6 L16 22"></path>
  </symbol>
  <symbol id="maximize-2" viewBox="0 0 24 24">
    <path d="M15 3 L21 3 L21 9 M9 21 L3 21 L3 15 M21 3 L14 10 M3 21 L10 14"></path>
  </symbol>
  <symbol id="maximize" viewBox="0 0 24 24">
    <path d="M8 3H5a2 2 0 00-2 2v3m18 0V5a2 2 0 00-2-2h-3m0 18h3a2 2 0 002-2v-3M3 16v3a2 2 0 002 2h3"></path>
  </symbol>
  <symbol id="meh" viewBox="0 0 24 24">
    <path d="M22 12 A10 10 0 0 1 12 22 A10 10 0 0 1 2 12 A10 10 0 0 1 22 12 z M8 15 L16 15 M9 9 L9.01 9 M15 9 L15.01 9"></path>
  </symbol>
  <symbol id="menu" viewBox="0 0 24 24">
    <path d="M4 12 L20 12 M4 6 L20 6 M4 18 L20 18"></path>
  </symbol>
  <symbol id="message-circle" viewBox="0 0 24 24">
    <path d="M21 11.5a8.38 8.38 0 01-.9 3.8 8.5 8.5 0 01-7.6 4.7 8.38 8.38 0 01-3.8-.9L3 21l1.9-5.7a8.38 8.38 0 01-.9-3.8 8.5 8.5 0 014.7-7.6 8.38 8.38 0 013.8-.9h.5a8.48 8.48 0 018 8v.5z"></path>
  </symbol>
  <symbol id="message-square" viewBox="0 0 24 24">
    <path d="M21 15a2 2 0 01-2 2H7l-4 4V5a2 2 0 012-2h14a2 2 0 012 2z"></path>
  </symbol>
  <symbol id="mic-off" viewBox="0 0 24 24">
    <path d="M1 1 L23 23 M9 9v3a3 3 0 005.12 2.12M15 9.34V4a3 3 0 00-5.94-.6 M17 16.95A7 7 0 015 12v-2m14 0v2a7 7 0 01-.11 1.23 M12 19 L12 23 M8 23 L16 23"></path>
  </symbol>
  <symbol id="mic" viewBox="0 0 24 24">
    <path d="M12 1a3 3 0 00-3 3v8a3 3 0 006 0V4a3 3 0 00-3-3z M19 10v2a7 7 0 01-14 0v-2 M12 19 L12 23 M8 23 L16 23"></path>
  </symbol>
  <symbol id="minimize-2" viewBox="0 0 24 24">
    <path d="M4 14 L10 14 L10 20 M20 10 L14 10 L14 4 M14 10 L21 3 M3 21 L10 14"></path>
  </symbol>
  <symbol id="minimize" viewBox="0 0 24 24">
    <path d="M8 3v3a2 2 0 01-2 2H3m18 0h-3a2 2 0 01-2-2V3m0 18v-3a2 2 0 012-2h3M3 16h3a2 2 0 012 2v3"></path>
  </symbol>
  <symbol id="minus-circle" viewBox="0 0 24 24">
    <path d="M22 12 A10 10 0 0 1 12 22 A10 10 0 0 1 2 12 A10 10 0 0 1 22 12 z M8 12 L16 12"></path>
  </symbol>
  <symbol id="minus-square" viewBox="0 0 24 24">
    <path d="M5 3 H19 A2 2 0 0 1 21 5 V19 A2 2 0 0 1 19 21 H5 A2 2 0 0 1 3 19 V5 A2 2 0 0 1 5 3 z M8 12 L16 12"></path>
  </symbol>
  <symbol id="minus" viewBox="0 0 24 24">
    <path d="M5 12 L19 12"></path>
  </symbol>
  <symbol id="monitor-off" viewBox="0 0 24 24">
    <path d="M17 17H4a2 2 0 01-2-2V5c0-1.5 1-2 1-2 M22 15V5a2 2 0 00-2-2H9 M8 21h8 M12 17v4 M2 2l20 20"></path>
  </symbol>
  <symbol id="monitor-speaker" viewBox="0 0 24 24">
    <path d="M5.5 20H8 M17 9h.01 M14 4 H20 A2 2 0 0 1 22 6 V18 A2 2 0 0 1 20 20 H14 A2 2 0 0 1 12 18 V6 A2 2 0 0 1 14 4 z M8 6H4a2 2 0 00-2 2v6a2 2 0 002 2h4 M18 15 A1 1 0 0 1 17 16 A1 1 0 0 1 16 15 A1 1 0 0 1 18 15 z"></path>
  </symbol>
  <symbol id="monitor" viewBox="0 0 24 24">
    <path d="M4 3 H20 A2 2 0 0 1 22 5 V15 A2 2 0 0 1 20 17 H4 A2 2 0 0 1 2 15 V5 A2 2 0 0 1 4 3 z M8 21 L16 21 M12 17 L12 21"></path>
  </symbol>
  <symbol id="moon" viewBox="0 0 24 24">
    <path d="M21 12.79A9 9 0 1111.21 3 7 7 0 0021 12.79z"></path>
  </symbol>
  <symbol id="more-horizontal" viewBox="0 0 24 24">
    <path d="M13 12 A1 1 0 0 1 12 13 A1 1 0 0 1 11 12 A1 1 0 0 1 13 12 z M20 12 A1 1 0 0 1 19 13 A1 1 0 0 1 18 12 A1 1 0 0 1 20 12 z M6 12 A1 1 0 0 1 5 13 A1 1 0 0 1 4 12 A1 1 0 0 1 6 12 z"></path>
  </symbol>
  <symbol id="more-vertical" viewBox="0 0 24 24">
    <path d="M13 12 A1 1 0 0 1 12 13 A1 1 0 0 1 11 12 A1 1 0 0 1 13 12 z M13 5 A1 1 0 0 1 12 6 A1 1 0 0 1 11 5 A1 1 0 0 1 13 5 z M13 19 A1 1 0 0 1 12 20 A1 1 0 0 1 11 19 A1 1 0 0 1 13 19 z"></path>
  </symbol>
  <symbol id="mountain-snow" viewBox="0 0 24 24">
    <path d="M8 3L12 11L17 6L22 21H2L8 3Z M4.14 15.08c2.62-1.57 5.24-1.43 7.86.42 2.74 1.94 5.49 2 8.23.19"></path>
  </symbol>
  <symbol id="mountain" viewBox="0 0 24 24">
    <path d="M8 3L12 11L17 6L22 21H2L8 3Z"></path>
  </symbol>
  <symbol id="mouse-pointer-2" viewBox="0 0 24 24">
    <path d="M4 4l7.07 17 2.51-7.39L21 11.07z"></path>
  </symbol>
  <symbol id="mouse-pointer-click" viewBox="0 0 24 24">
    <path d="M9 9l5 12 1.774-5.226L21 14 9 9z M16.071 16.071l4.243 4.243 M7.188 2.239l.777 2.897M5.136 7.965l-2.898-.777M13.95 4.05l-2.122 2.122m-5.657 5.656l-2.12 2.122"></path>
  </symbol>
  <symbol id="mouse-pointer" viewBox="0 0 24 24">
    <path d="M3 3l7.07 16.97 2.51-7.39 7.39-2.51L3 3z M13 13l6 6"></path>
  </symbol>
  <symbol id="move-diagonal-2" viewBox="0 0 24 24">
    <path d="M5 11 L5 5 L11 5 M19 13 L19 19 L13 19 M5 5 L19 19"></path>
  </symbol>
  <symbol id="move-diagonal" viewBox="0 0 24 24">
    <path d="M13 5 L19 5 L19 11 M11 19 L5 19 L5 13 M19 5 L5 19"></path>
  </symbol>
  <symbol id="move-horizontal" viewBox="0 0 24 24">
    <path d="M18 8 L22 12 L18 16 M6 8 L2 12 L6 16 M2 12 L22 12"></path>
  </symbol>
  <symbol id="move-vertical" viewBox="0 0 24 24">
    <path d="M8 18 L12 22 L16 18 M8 6 L12 2 L16 6 M12 2 L12 22"></path>
  </symbol>
  <symbol id="move" viewBox="0 0 24 24">
    <path d="M5 9 L2 12 L5 15 M9 5 L12 2 L15 5 M15 19 L12 22 L9 19 M19 9 L22 12 L19 15 M2 12 L22 12 M12 2 L12 22"></path>
  </symbol>
  <symbol id="music" viewBox="0 0 24 24">
    <path d="M9 18V5l12-2v13 M9 18 A3 3 0 0 1 6 21 A3 3 0 0 1 3 18 A3 3 0 0 1 9 18 z M21 16 A3 3 0 0 1 18 19 A3 3 0 0 1 15 16 A3 3 0 0 1 21 16 z"></path>
  </symbol>
  <symbol id="navigation-2" viewBox="0 0 24 24">
    <path d="M12 2 L19 21 L12 17 L5 21 L12 2 Z"></path>
  </symbol>
  <symbol id="navigation" viewBox="0 0 24 24">
    <path d="M3 11 L22 2 L13 21 L11 13 L3 11 Z"></path>
  </symbol>
  <symbol id="network" viewBox="0 0 24 24">
    <path d="M9 2 H15 V8 H9 V2 z M16 16 H22 V22 H16 V16 z M2 16 H8 V22 H2 V16 z M12 8v4m0 0H5v4m7-4h7v4"></path>
  </symbol>
  <symbol id="object-get" viewBox="0 0 24 24">
    <path d="M 10 4 H 6 V 10 L 4 12 L 6 14 V 20 H 10 M 18 12 H 10 M 16 8 L 20 12 L 16 16"></path>
  </symbol>
  <symbol id="object-set" viewBox="0 0 24 24">
    <path d="M 10 4 H 6 V 10 L 4 12 L 6 14 V 20 H 10 M 20 12 H 12 M 14 8 L 10 12 L 14 16"></path>
  </symbol>
  <symbol id="octagon" viewBox="0 0 24 24">
    <path d="M7.86 2 L16.14 2 L22 7.86 L22 16.14 L16.14 22 L7.86 22 L2 16.14 L2 7.86 L7.86 2 Z"></path>
  </symbol>
  <symbol id="omega" viewBox="0 0 24 24">
    <path d="M 3 21 L 9 21 A 9 9 0 1 1 15 21 L 21 21"></path>
  </symbol>
  <symbol id="option" viewBox="0 0 24 24">
    <path d="M3 3h6l6 18h6 M14 3h7"></path>
  </symbol>
  <symbol id="outdent" viewBox="0 0 24 24">
    <path d="M7 8 L3 12 L7 16 M21 12 L11 12 M21 6 L11 6 M21 18 L11 18"></path>
  </symbol>
  <symbol id="package" viewBox="0 0 24 24">
    <path d="M16.5 9.4 L7.5 4.21 M21 16V8a2 2 0 00-1-1.73l-7-4a2 2 0 00-2 0l-7 4A2 2 0 003 8v8a2 2 0 001 1.73l7 4a2 2 0 002 0l7-4A2 2 0 0021 16z M3.27 6.96 L12 12.01 L20.73 6.96 M12 22.08 L12 12"></path>
  </symbol>
  <symbol id="palette" viewBox="0 0 24 24">
    <path d="M14 6.5 A0.5 0.5 0 0 1 13.5 7 A0.5 0.5 0 0 1 13 6.5 A0.5 0.5 0 0 1 14 6.5 z M18 10.5 A0.5 0.5 0 0 1 17.5 11 A0.5 0.5 0 0 1 17 10.5 A0.5 0.5 0 0 1 18 10.5 z M9 7.5 A0.5 0.5 0 0 1 8.5 8 A0.5 0.5 0 0 1 8 7.5 A0.5 0.5 0 0 1 9 7.5 z M7 12.5 A0.5 0.5 0 0 1 6.5 13 A0.5 0.5 0 0 1 6 12.5 A0.5 0.5 0 0 1 7 12.5 z M12 2C6.5 2 2 6.5 2 12s4.5 10 10 10c.926 0 1.648-.746 1.648-1.688 0-.437-.18-.835-.437-1.125-.29-.289-.438-.652-.438-1.125a1.64 1.64 0 011.668-1.668h1.996c3.051 0 5.555-2.503 5.555-5.554C21.965 6.012 17.461 2 12 2z"></path>
  </symbol>
  <symbol id="paperclip" viewBox="0 0 24 24">
    <path d="M21.44 11.05l-9.19 9.19a6 6 0 01-8.49-8.49l9.19-9.19a4 4 0 015.66 5.66l-9.2 9.19a2 2 0 01-2.83-2.83l8.49-8.48"></path>
  </symbol>
  <symbol id="pause-circle" viewBox="0 0 24 24">
    <path d="M22 12 A10 10 0 0 1 12 22 A10 10 0 0 1 2 12 A10 10 0 0 1 22 12 z M10 15 L10 9 M14 15 L14 9"></path>
  </symbol>
  <symbol id="pause-octagon" viewBox="0 0 24 24">
    <path d="M10 15V9 M14 15V9 M7.714 2h8.572L22 7.714v8.572L16.286 22H7.714L2 16.286V7.714L7.714 2z"></path>
  </symbol>
  <symbol id="pause" viewBox="0 0 24 24">
    <path d="M6 4 H10 V20 H6 V4 z M14 4 H18 V20 H14 V4 z"></path>
  </symbol>
  <symbol id="pen-tool" viewBox="0 0 24 24">
    <path d="M12 19l7-7 3 3-7 7-3-3z M18 13l-1.5-7.5L2 2l3.5 14.5L13 18l5-5z M2 2l7.586 7.586 M13 11 A2 2 0 0 1 11 13 A2 2 0 0 1 9 11 A2 2 0 0 1 13 11 z"></path>
  </symbol>
  <symbol id="pencil" viewBox="0 0 24 24">
    <path d="M18 2 L22 6 M7.5 20.5L19 9l-4-4L3.5 16.5 2 22l5.5-1.5z"></path>
  </symbol>
  <symbol id="percent" viewBox="0 0 24 24">
    <path d="M19 5 L5 19 M9 6.5 A2.5 2.5 0 0 1 6.5 9 A2.5 2.5 0 0 1 4 6.5 A2.5 2.5 0 0 1 9 6.5 z M20 17.5 A2.5 2.5 0 0 1 17.5 20 A2.5 2.5 0 0 1 15 17.5 A2.5 2.5 0 0 1 20 17.5 z"></path>
  </symbol>
  <symbol id="person-standing" viewBox="0 0 24 24">
    <path d="M13 5 A1 1 0 0 1 12 6 A1 1 0 0 1 11 5 A1 1 0 0 1 13 5 z M9 20L12 14L15 20 M6 8L12 10L18 8 M12 10V14"></path>
  </symbol>
  <symbol id="phone-call" viewBox="0 0 24 24">
    <path d="M14.05 6A5 5 0 0118 10m-3.95-8a9 9 0 018 7.94m0 7v3a2 2 0 01-2 2h-.19a19.79 19.79 0 01-8.63-3.07 19.52 19.52 0 01-6-6 19.82 19.82 0 01-3.11-8.69A2 2 0 013.93 2h3.18a2 2 0 012 1.72 13 13 0 00.7 2.81 2 2 0 01-.45 2.11L8.09 9.91a16 16 0 006 6l1.27-1.27a2 2 0 012.11-.45 13 13 0 002.81.7A2 2 0 0122 16.92z"></path>
  </symbol>
  <symbol id="phone-forwarded" viewBox="0 0 24 24">
    <path d="M18 2 L22 6 L18 10 M14 6 L22 6 M22 16.92v3a2 2 0 01-2.18 2 19.79 19.79 0 01-8.63-3.07 19.5 19.5 0 01-6-6 19.79 19.79 0 01-3.07-8.67A2 2 0 014.11 2h3a2 2 0 012 1.72 12.84 12.84 0 00.7 2.81 2 2 0 01-.45 2.11L8.09 9.91a16 16 0 006 6l1.27-1.27a2 2 0 012.11-.45 12.84 12.84 0 002.81.7A2 2 0 0122 16.92z"></path>
  </symbol>
  <symbol id="phone-incoming" viewBox="0 0 24 24">
    <path d="M16 2 L16 8 L22 8 M22 2 L16 8 M22 16.92v3a2 2 0 01-2.18 2 19.79 19.79 0 01-8.63-3.07 19.5 19.5 0 01-6-6 19.79 19.79 0 01-3.07-8.67A2 2 0 014.11 2h3a2 2 0 012 1.72 12.84 12.84 0 00.7 2.81 2 2 0 01-.45 2.11L8.09 9.91a16 16 0 006 6l1.27-1.27a2 2 0 012.11-.45 12.84 12.84 0 002.81.7A2 2 0 0122 16.92z"></path>
  </symbol>
  <symbol id="phone-missed" viewBox="0 0 24 24">
    <path d="M22 2 L16 8 M16 2 L22 8 M22 16.92v3a2 2 0 01-2.18 2 19.79 19.79 0 01-8.63-3.07 19.5 19.5 0 01-6-6 19.79 19.79 0 01-3.07-8.67A2 2 0 014.11 2h3a2 2 0 012 1.72 12.84 12.84 0 00.7 2.81 2 2 0 01-.45 2.11L8.09 9.91a16 16 0 006 6l1.27-1.27a2 2 0 012.11-.45 12.84 12.84 0 002.81.7A2 2 0 0122 16.92z"></path>
  </symbol>
  <symbol id="phone-off" viewBox="0 0 24 24">
    <path d="M10.68 13.31a16 16 0 003.41 2.6l1.27-1.27a2 2 0 012.11-.45 12.84 12.84 0 002.81.7 2 2 0 011.72 2v3a2 2 0 01-2.18 2 19.79 19.79 0 01-8.63-3.07 19.42 19.42 0 01-3.33-2.67m-2.67-3.34a19.79 19.79 0 01-3.07-8.63A2 2 0 014.11 2h3a2 2 0 012 1.72 12.84 12.84 0 00.7 2.81 2 2 0 01-.45 2.11L8.09 9.91 M22 2 L2 22"></path>
  </symbol>
  <symbol id="phone-outgoing" viewBox="0 0 24 24">
    <path d="M22 8 L22 2 L16 2 M16 8 L22 2 M22 16.92v3a2 2 0 01-2.18 2 19.79 19.79 0 01-8.63-3.07 19.5 19.5 0 01-6-6 19.79 19.79 0 01-3.07-8.67A2 2 0 014.11 2h3a2 2 0 012 1.72 12.84 12.84 0 00.7 2.81 2 2 0 01-.45 2.11L8.09 9.91a16 16 0 006 6l1.27-1.27a2 2 0 012.11-.45 12.84 12.84 0 002.81.7A2 2 0 0122 16.92z"></path>
  </symbol>
  <symbol id="phone" viewBox="0 0 24 24">
    <path d="M22 16.92v3a2 2 0 01-2.18 2 19.79 19.79 0 01-8.63-3.07 19.5 19.5 0 01-6-6 19.79 19.79 0 01-3.07-8.67A2 2 0 014.11 2h3a2 2 0 012 1.72 12.84 12.84 0 00.7 2.81 2 2 0 01-.45 2.11L8.09 9.91a16 16 0 006 6l1.27-1.27a2 2 0 012.11-.45 12.84 12.84 0 002.81.7A2 2 0 0122 16.92z"></path>
  </symbol>
  <symbol id="pi" viewBox="0 0 24 24">
    <path d="M4 6 L20 6 M8 6 L8 18 M 16 6 V 16 A 1 1 0 0 0 20 16"></path>
  </symbol>
  <symbol id="pie-chart" viewBox="0 0 24 24">
    <path d="M21.21 15.89A10 10 0 118 2.83 M22 12A10 10 0 0012 2v10z"></path>
  </symbol>
  <symbol id="pipette" viewBox="0 0 24 24">
    <path d="M2 22l2-2h3l7-7 M4 20v-3l7-7 M14.29 13.3a1 1 0 001.41 0l.8-.8c.27-.27.27-.72 0-1s-.28-.72 0-1l4.08-4.08a2 2 0 000-2.83l-.17-.17a2 2 0 00-2.83 0L13.5 7.51c-.28.27-.73.27-1 0s-.73-.28-1 0l-.8.79a1 1 0 000 1.41l3.59 3.59z"></path>
  </symbol>
  <symbol id="plane" viewBox="0 0 24 24">
    <path d="M17.8 19.2L16 11l3.5-3.5C21 6 21.5 4 21 3c-1-.5-3 0-4.5 1.5L13 8 4.8 6.2c-.5-.1-.9.1-1.1.5l-.3.5c-.2.5-.1 1 .3 1.3L9 12l-2 3H4l-1 1 3 2 2 3 1-1v-3l3-2 3.5 5.3c.3.4.8.5 1.3.3l.5-.2c.4-.3.6-.7.5-1.2z"></path>
  </symbol>
  <symbol id="play-circle" viewBox="0 0 24 24">
    <path d="M22 12 A10 10 0 0 1 12 22 A10 10 0 0 1 2 12 A10 10 0 0 1 22 12 z M10 8 L16 12 L10 16 L10 8 Z"></path>
  </symbol>
  <symbol id="play" viewBox="0 0 24 24">
    <path d="M5 3 L19 12 L5 21 L5 3 Z"></path>
  </symbol>
  <symbol id="plug-zap" viewBox="0 0 24 24">
    <path d="M13 2l-2 2.5h3L12 7 M12 22v-3 M10 13v-2.5 M10 12.5v-2 M14 12.5v-2 M16 15a2 2 0 00-2-2h-4a2 2 0 00-2 2v2a2 2 0 002 2h4a2 2 0 002-2v-2z"></path>
  </symbol>
  <symbol id="plus-2" viewBox="0 0 24 24">
    <path d="M4 12 L20 12 M12 4 L12 20"></path>
  </symbol>
  <symbol id="plus-circle" viewBox="0 0 24 24">
    <path d="M22 12 A10 10 0 0 1 12 22 A10 10 0 0 1 2 12 A10 10 0 0 1 22 12 z M12 8 L12 16 M8 12 L16 12"></path>
  </symbol>
  <symbol id="plus-minus" viewBox="0 0 24 24">
    <path d="M12 4 L12 16 M6 10 L18 10 M6 20 L18 20"></path>
  </symbol>
  <symbol id="plus-square" viewBox="0 0 24 24">
    <path d="M5 3 H19 A2 2 0 0 1 21 5 V19 A2 2 0 0 1 19 21 H5 A2 2 0 0 1 3 19 V5 A2 2 0 0 1 5 3 z M12 8 L12 16 M8 12 L16 12"></path>
  </symbol>
  <symbol id="plus" viewBox="0 0 24 24">
    <path d="M12 5 L12 19 M5 12 L19 12"></path>
  </symbol>
  <symbol id="pocket" viewBox="0 0 24 24">
    <path d="M4 3h16a2 2 0 012 2v6a10 10 0 01-10 10A10 10 0 012 11V5a2 2 0 012-2z M8 10 L12 14 L16 10"></path>
  </symbol>
  <symbol id="podcast" viewBox="0 0 24 24">
    <path d="M13 11 A1 1 0 0 1 12 12 A1 1 0 0 1 11 11 A1 1 0 0 1 13 11 z M17.03 18.46a9 9 0 10-10.02.03 M16.06 13.91a5 5 0 10-7.97.2 M11.11 17a.9.9 0 111.78 0l-.52 4.67a.37.37 0 01-.74 0l-.52-4.68z"></path>
  </symbol>
  <symbol id="pointer" viewBox="0 0 24 24">
    <path d="M22 14a8 8 0 01-8 8 M18 11v-1a2 2 0 00-2-2v0a2 2 0 00-2 2v0 M14 10V9a2 2 0 00-2-2v0a2 2 0 00-2 2v1 M10 9.5V4a2 2 0 00-2-2v0a2 2 0 00-2 2v10 M18 11a2 2 0 114 0v3a8 8 0 01-8 8h-2c-2.8 0-4.5-.86-5.99-2.34l-3.6-3.6a2 2 0 012.83-2.82L7 15"></path>
  </symbol>
  <symbol id="pound-sterling" viewBox="0 0 24 24">
    <path d="M18 7c0-5.333-8-5.333-8 0 M10 7v14 M6 21h12 M6 13h10"></path>
  </symbol>
  <symbol id="power-off" viewBox="0 0 24 24">
    <path d="M18.36 6.64A9 9 0 0120.77 15M5.63 6.64A9 9 0 1018.706 19 M12 2v4 M2 2l20 20"></path>
  </symbol>
  <symbol id="power" viewBox="0 0 24 24">
    <path d="M18.36 6.64a9 9 0 11-12.73 0 M12 2 L12 12"></path>
  </symbol>
  <symbol id="printer" viewBox="0 0 24 24">
    <path d="M6 9 L6 2 L18 2 L18 9 M6 18H4a2 2 0 01-2-2v-5a2 2 0 012-2h16a2 2 0 012 2v5a2 2 0 01-2 2h-2 M6 14 H18 V22 H6 V14 z"></path>
  </symbol>
  <symbol id="qr-code" viewBox="0 0 24 24">
    <path d="M2 2 H10 V10 H2 V2 z M6 6h.01 M14 2 H22 V10 H14 V2 z M18 6h.01 M2 14 H10 V22 H2 V14 z M6 18h.01 M14 14h.01 M18 18h.01 M18 22h4v-4 M14 18v4 M22 14h-4"></path>
  </symbol>
  <symbol id="question" viewBox="0 0 24 24">
    <path d="M 12 20 V 20 M 12 16 V 13 A 4.5 4.5 1 1 0 8 8"></path>
  </symbol>
  <symbol id="radio-receiver" viewBox="0 0 24 24">
    <path d="M5 16v2 M19 16v2 M4 8 H20 A2 2 0 0 1 22 10 V14 A2 2 0 0 1 20 16 H4 A2 2 0 0 1 2 14 V10 A2 2 0 0 1 4 8 z M18 12h0"></path>
  </symbol>
  <symbol id="radio" viewBox="0 0 24 24">
    <path d="M14 12 A2 2 0 0 1 12 14 A2 2 0 0 1 10 12 A2 2 0 0 1 14 12 z M16.24 7.76a6 6 0 010 8.49m-8.48-.01a6 6 0 010-8.49m11.31-2.82a10 10 0 010 14.14m-14.14 0a10 10 0 010-14.14"></path>
  </symbol>
  <symbol id="random" viewBox="0 0 24 24">
    <path d="M 3 6 H 8 L 16 18 H 20 M 18 15 L 21 18 L 18 21 M 18 3 L 21 6 L 18 9 M 14 9 L 16 6 H 20 M 3 18 H 8 L 10 15"></path>
  </symbol>
  <symbol id="redo" viewBox="0 0 24 24">
    <path d="M21 7v6h-6 M3 17a9 9 0 019-9 9 9 0 016 2.3l3 2.7"></path>
  </symbol>
  <symbol id="refresh-ccw" viewBox="0 0 24 24">
    <path d="M3 2v6h6 M21 12A9 9 0 006 5.3L3 8 M21 22v-6h-6 M3 12a9 9 0 0015 6.7l3-2.7"></path>
  </symbol>
  <symbol id="refresh-cw" viewBox="0 0 24 24">
    <path d="M21 2v6h-6 M3 12a9 9 0 0115-6.7L21 8 M3 22v-6h6 M21 12a9 9 0 01-15 6.7L3 16"></path>
  </symbol>
  <symbol id="regex" viewBox="0 0 24 24">
    <path d="M17 3v10 M12.67 5.5l8.66 5 M12.67 10.5l8.66-5 M9 17a2 2 0 00-2-2H5a2 2 0 00-2 2v2a2 2 0 002 2h2a2 2 0 002-2v-2z"></path>
  </symbol>
  <symbol id="repeat-1" viewBox="0 0 24 24">
    <path d="M17 2l4 4-4 4 M3 11v-1a4 4 0 014-4h14 M7 22l-4-4 4-4 M21 13v1a4 4 0 01-4 4H3 M11 10h1v4"></path>
  </symbol>
  <symbol id="repeat" viewBox="0 0 24 24">
    <path d="M17 2l4 4-4 4 M3 11v-1a4 4 0 014-4h14 M7 22l-4-4 4-4 M21 13v1a4 4 0 01-4 4H3"></path>
  </symbol>
  <symbol id="reply-all" viewBox="0 0 24 24">
    <path d="M7 17 L2 12 L7 7 M12 17 L7 12 L12 7 M22 18v-2a4 4 0 0 0-4-4H7"></path>
  </symbol>
  <symbol id="reply" viewBox="0 0 24 24">
    <path d="M9 17 L4 12 L9 7 M20 18v-2a4 4 0 0 0-4-4H4"></path>
  </symbol>
  <symbol id="rewind" viewBox="0 0 24 24">
    <path d="M11 19 L2 12 L11 5 L11 19 Z M22 19 L13 12 L22 5 L22 19 Z"></path>
  </symbol>
  <symbol id="rotate-ccw" viewBox="0 0 24 24">
    <path d="M3 2v6h6 M3 13a9 9 0 103-7.7L3 8"></path>
  </symbol>
  <symbol id="rotate-cw" viewBox="0 0 24 24">
    <path d="M21 2v6h-6 M21 13a9 9 0 11-3-7.7L21 8"></path>
  </symbol>
  <symbol id="rss" viewBox="0 0 24 24">
    <path d="M4 11a9 9 0 019 9 M4 4a16 16 0 0116 16 M6 19 A1 1 0 0 1 5 20 A1 1 0 0 1 4 19 A1 1 0 0 1 6 19 z"></path>
  </symbol>
  <symbol id="ruler" viewBox="0 0 24 24">
    <path d="M16 2l6 6L8 22l-6-6L16 2 M7.5 10.5l2 2 M10.5 7.5l2 2 M13.5 4.5l2 2 M4.5 13.5l2 2"></path>
  </symbol>
  <symbol id="russian-ruble" viewBox="0 0 24 24">
    <path d="M14 11c5.333 0 5.333-8 0-8 M6 11h8 M6 15h8 M9 21V3 M9 3h5"></path>
  </symbol>
  <symbol id="save" viewBox="0 0 24 24">
    <path d="M19 21H5a2 2 0 01-2-2V5a2 2 0 012-2h11l5 5v11a2 2 0 01-2 2z M17 21 L17 13 L7 13 L7 21 M7 3 L7 8 L15 8"></path>
  </symbol>
  <symbol id="scale" viewBox="0 0 24 24">
    <path d="M16 16l3-8 3.001 8A5.002 5.002 0 0116 16z M2 16l3-8 3.001 8A5.002 5.002 0 012 16z M7 21h10 M12 3v18 M3 7h2c2 0 5-1 7-2 2 1 5 2 7 2h2"></path>
  </symbol>
  <symbol id="scissors" viewBox="0 0 24 24">
    <path d="M9 6 A3 3 0 0 1 6 9 A3 3 0 0 1 3 6 A3 3 0 0 1 9 6 z M9 18 A3 3 0 0 1 6 21 A3 3 0 0 1 3 18 A3 3 0 0 1 9 18 z M20 4 L8.12 15.88 M14.47 14.48 L20 20 M8.12 8.12 L12 12"></path>
  </symbol>
  <symbol id="screen-share-off" viewBox="0 0 24 24">
    <path d="M13 3H4a2 2 0 00-2 2v10a2 2 0 002 2h16a2 2 0 002-2v-3 M8 21h8 M12 17v4 M22 3l-5 5 M17 3l5 5"></path>
  </symbol>
  <symbol id="screen-share" viewBox="0 0 24 24">
    <path d="M13 3H4a2 2 0 00-2 2v10a2 2 0 002 2h16a2 2 0 002-2v-3 M8 21h8 M12 17v4 M17 8l5-5 M17 3h5v5"></path>
  </symbol>
  <symbol id="search" viewBox="0 0 24 24">
    <path d="M19 11 A8 8 0 0 1 11 19 A8 8 0 0 1 3 11 A8 8 0 0 1 19 11 z M21 21 L16.65 16.65"></path>
  </symbol>
  <symbol id="send" viewBox="0 0 24 24">
    <path d="M22 2 L11 13 M22 2 L15 22 L11 13 L2 9 L22 2 Z"></path>
  </symbol>
  <symbol id="separator-horizontal" viewBox="0 0 24 24">
    <path d="M3 12 L21 12 M8 8 L12 4 L16 8 M16 16 L12 20 L8 16"></path>
  </symbol>
  <symbol id="separator-vertical" viewBox="0 0 24 24">
    <path d="M12 3 L12 21 M8 8 L4 12 L8 16 M16 16 L20 12 L16 8"></path>
  </symbol>
  <symbol id="server-crash" viewBox="0 0 24 24">
    <path d="M6 10H4a2 2 0 01-2-2V4a2 2 0 012-2h16a2 2 0 012 2v4a2 2 0 01-2 2h-2 M6 14H4a2 2 0 00-2 2v4a2 2 0 002 2h16a2 2 0 002-2v-4a2 2 0 00-2-2h-2 M6 6h.01 M6 18h.01 M13 6l-4 6h6l-4 6"></path>
  </symbol>
  <symbol id="server-off" viewBox="0 0 24 24">
    <path d="M7 2h13a2 2 0 012 2v4a2 2 0 01-2 2h-5 M10 10L2.5 2.5C2 2 2 2.5 2 5v3a2 2 0 002 2h6z M22 17v-1a2 2 0 00-2-2h-1 M4 14a2 2 0 00-2 2v4a2 2 0 002 2h16.5l1-.5.5.5-8-8H4z M6 18h.01 M2 2l20 20"></path>
  </symbol>
  <symbol id="server" viewBox="0 0 24 24">
    <path d="M4 2 H20 A2 2 0 0 1 22 4 V8 A2 2 0 0 1 20 10 H4 A2 2 0 0 1 2 8 V4 A2 2 0 0 1 4 2 z M4 14 H20 A2 2 0 0 1 22 16 V20 A2 2 0 0 1 20 22 H4 A2 2 0 0 1 2 20 V16 A2 2 0 0 1 4 14 z M6 6 L6.01 6 M6 18 L6.01 18"></path>
  </symbol>
  <symbol id="settings" viewBox="0 0 24 24">
    <path d="M12.22 2h-.44a2 2 0 00-2 2v.18a2 2 0 01-1 1.73l-.43.25a2 2 0 01-2 0l-.15-.08a2 2 0 00-2.73.73l-.22.38a2 2 0 00.73 2.73l.15.1a2 2 0 011 1.72v.51a2 2 0 01-1 1.74l-.15.09a2 2 0 00-.73 2.73l.22.38a2 2 0 002.73.73l.15-.08a2 2 0 012 0l.43.25a2 2 0 011 1.73V20a2 2 0 002 2h.44a2 2 0 002-2v-.18a2 2 0 011-1.73l.43-.25a2 2 0 012 0l.15.08a2 2 0 002.73-.73l.22-.39a2 2 0 00-.73-2.73l-.15-.08a2 2 0 01-1-1.74v-.5a2 2 0 011-1.74l.15-.09a2 2 0 00.73-2.73l-.22-.38a2 2 0 00-2.73-.73l-.15.08a2 2 0 01-2 0l-.43-.25a2 2 0 01-1-1.73V4a2 2 0 00-2-2z M15 12 A3 3 0 0 1 12 15 A3 3 0 0 1 9 12 A3 3 0 0 1 15 12 z"></path>
  </symbol>
  <symbol id="share-2" viewBox="0 0 24 24">
    <path d="M21 5 A3 3 0 0 1 18 8 A3 3 0 0 1 15 5 A3 3 0 0 1 21 5 z M9 12 A3 3 0 0 1 6 15 A3 3 0 0 1 3 12 A3 3 0 0 1 9 12 z M21 19 A3 3 0 0 1 18 22 A3 3 0 0 1 15 19 A3 3 0 0 1 21 19 z M8.59 13.51 L15.42 17.49 M15.41 6.51 L8.59 10.49"></path>
  </symbol>
  <symbol id="share" viewBox="0 0 24 24">
    <path d="M4 12v8a2 2 0 002 2h12a2 2 0 002-2v-8 M16 6 L12 2 L8 6 M12 2 L12 15"></path>
  </symbol>
  <symbol id="sheet" viewBox="0 0 24 24">
    <path d="M5 3 H19 A2 2 0 0 1 21 5 V19 A2 2 0 0 1 19 21 H5 A2 2 0 0 1 3 19 V5 A2 2 0 0 1 5 3 z M3 9 L21 9 M3 15 L21 15 M9 9 L9 21 M15 9 L15 21"></path>
  </symbol>
  <symbol id="shield-alert" viewBox="0 0 24 24">
    <path d="M12 22s8-4 8-10V5l-8-3-8 3v7c0 6 8 10 8 10z M12 8v4 M12 16h.01"></path>
  </symbol>
  <symbol id="shield-check" viewBox="0 0 24 24">
    <path d="M12 22s8-4 8-10V5l-8-3-8 3v7c0 6 8 10 8 10z M9 12l2 2 4-4"></path>
  </symbol>
  <symbol id="shield-close" viewBox="0 0 24 24">
    <path d="M12 22s8-4 8-10V5l-8-3-8 3v7c0 6 8 10 8 10z M9.5 9 L14.5 14 M14.5 9 L9.5 14"></path>
  </symbol>
  <symbol id="shield-off" viewBox="0 0 24 24">
    <path d="M19.69 14a6.9 6.9 0 00.31-2V5l-8-3-3.16 1.18 M4.73 4.73L4 5v7c0 6 8 10 8 10a20.29 20.29 0 005.62-4.38 M1 1 L23 23"></path>
  </symbol>
  <symbol id="shield" viewBox="0 0 24 24">
    <path d="M12 22s8-4 8-10V5l-8-3-8 3v7c0 6 8 10 8 10z"></path>
  </symbol>
  <symbol id="shift" viewBox="0 0 24 24">
    <path d="M 4 12 L 12 4 L 20 12 H 16 V 20 H 8 V 12 Z"></path>
  </symbol>
  <symbol id="shirt" viewBox="0 0 24 24">
    <path d="M20.38 3.46L16 2a4 4 0 01-8 0L3.62 3.46a2 2 0 00-1.34 2.23l.58 3.47a1 1 0 00.99.84H6v10c0 1.1.9 2 2 2h8a2 2 0 002-2V10h2.15a1 1 0 00.99-.84l.58-3.47a2 2 0 00-1.34-2.23z"></path>
  </symbol>
  <symbol id="shopping-bag" viewBox="0 0 24 24">
    <path d="M6 2L3 6v14a2 2 0 002 2h14a2 2 0 002-2V6l-3-4z M3 6 L21 6 M16 10a4 4 0 01-8 0"></path>
  </symbol>
  <symbol id="shopping-cart" viewBox="0 0 24 24">
    <path d="M10 21 A1 1 0 0 1 9 22 A1 1 0 0 1 8 21 A1 1 0 0 1 10 21 z M21 21 A1 1 0 0 1 20 22 A1 1 0 0 1 19 21 A1 1 0 0 1 21 21 z M1 1h4l2.68 13.39a2 2 0 002 1.61h9.72a2 2 0 002-1.61L23 6H6"></path>
  </symbol>
  <symbol id="shovel" viewBox="0 0 24 24">
    <path d="M2 22v-5l5-5 5 5-5 5z M9.5 14.5L16 8 M17 2l5 5-.5.5a3.53 3.53 0 01-5 0s0 0 0 0a3.53 3.53 0 010-5L17 2"></path>
  </symbol>
  <symbol id="shrink" viewBox="0 0 24 24">
    <path d="M15 15l6 6m-6-6v4.8m0-4.8h4.8 M9 19.8V15m0 0H4.2M9 15l-6 6 M15 4.2V9m0 0h4.8M15 9l6-6 M9 4.2V9m0 0H4.2M9 9L3 3"></path>
  </symbol>
  <symbol id="shuffle" viewBox="0 0 24 24">
    <path d="M16 3 L21 3 L21 8 M4 20 L21 3 M21 16 L21 21 L16 21 M15 15 L21 21 M4 4 L9 9"></path>
  </symbol>
  <symbol id="sidebar-close" viewBox="0 0 24 24">
    <path d="M5 3 H19 A2 2 0 0 1 21 5 V19 A2 2 0 0 1 19 21 H5 A2 2 0 0 1 3 19 V5 A2 2 0 0 1 5 3 z M9 3 L9 21 M17 16L13 12L17 8"></path>
  </symbol>
  <symbol id="sidebar-open" viewBox="0 0 24 24">
    <path d="M5 3 H19 A2 2 0 0 1 21 5 V19 A2 2 0 0 1 19 21 H5 A2 2 0 0 1 3 19 V5 A2 2 0 0 1 5 3 z M9 3 L9 21 M13 8L17 12L13 16"></path>
  </symbol>
  <symbol id="sidebar" viewBox="0 0 24 24">
    <path d="M5 3 H19 A2 2 0 0 1 21 5 V19 A2 2 0 0 1 19 21 H5 A2 2 0 0 1 3 19 V5 A2 2 0 0 1 5 3 z M9 3 L9 21"></path>
  </symbol>
  <symbol id="sigma" viewBox="0 0 24 24">
    <path d="M18 7V4H6l6 8-6 8h12v-3"></path>
  </symbol>
  <symbol id="sign" viewBox="0 0 24 24">
    <path d="M3 5 H21 V17 H3 V5 z M6 9 L12 9 M15 9 L18 9 M6 13 L8 13 M11 13 L18 13 M12 3 L12 5 M12 18 L12 21"></path>
  </symbol>
  <symbol id="skip-back" viewBox="0 0 24 24">
    <path d="M19 20 L9 12 L19 4 L19 20 Z M5 19 L5 5"></path>
  </symbol>
  <symbol id="skip-forward" viewBox="0 0 24 24">
    <path d="M5 4 L15 12 L5 20 L5 4 Z M19 5 L19 19"></path>
  </symbol>
  <symbol id="skull" viewBox="0 0 24 24">
    <path d="M10 12 A1 1 0 0 1 9 13 A1 1 0 0 1 8 12 A1 1 0 0 1 10 12 z M16 12 A1 1 0 0 1 15 13 A1 1 0 0 1 14 12 A1 1 0 0 1 16 12 z M8 20v2h8v-2 M12.5 17l-.5-1-.5 1h1z M16 20a2 2 0 001.56-3.25 8 8 0 10-11.12 0A2 2 0 008 20"></path>
  </symbol>
  <symbol id="slack" viewBox="0 0 24 24">
    <path d="M14.5 10c-.83 0-1.5-.67-1.5-1.5v-5c0-.83.67-1.5 1.5-1.5s1.5.67 1.5 1.5v5c0 .83-.67 1.5-1.5 1.5z M20.5 10H19V8.5c0-.83.67-1.5 1.5-1.5s1.5.67 1.5 1.5-.67 1.5-1.5 1.5z M9.5 14c.83 0 1.5.67 1.5 1.5v5c0 .83-.67 1.5-1.5 1.5S8 21.33 8 20.5v-5c0-.83.67-1.5 1.5-1.5z M3.5 14H5v1.5c0 .83-.67 1.5-1.5 1.5S2 16.33 2 15.5 2.67 14 3.5 14z M14 14.5c0-.83.67-1.5 1.5-1.5h5c.83 0 1.5.67 1.5 1.5s-.67 1.5-1.5 1.5h-5c-.83 0-1.5-.67-1.5-1.5z M15.5 19H14v1.5c0 .83.67 1.5 1.5 1.5s1.5-.67 1.5-1.5-.67-1.5-1.5-1.5z M10 9.5C10 8.67 9.33 8 8.5 8h-5C2.67 8 2 8.67 2 9.5S2.67 11 3.5 11h5c.83 0 1.5-.67 1.5-1.5z M8.5 5H10V3.5C10 2.67 9.33 2 8.5 2S7 2.67 7 3.5 7.67 5 8.5 5z"></path>
  </symbol>
  <symbol id="slash" viewBox="0 0 24 24">
    <path d="M22 12 A10 10 0 0 1 12 22 A10 10 0 0 1 2 12 A10 10 0 0 1 22 12 z M4.93 4.93 L19.07 19.07"></path>
  </symbol>
  <symbol id="sliders" viewBox="0 0 24 24">
    <path d="M4 21 L4 14 M4 10 L4 3 M12 21 L12 12 M12 8 L12 3 M20 21 L20 16 M20 12 L20 3 M1 14 L7 14 M9 8 L15 8 M17 16 L23 16"></path>
  </symbol>
  <symbol id="smartphone-charging" viewBox="0 0 24 24">
    <path d="M7 2 H17 A2 2 0 0 1 19 4 V20 A2 2 0 0 1 17 22 H7 A2 2 0 0 1 5 20 V4 A2 2 0 0 1 7 2 z M12.667 8L10 12h4l-2.667 4"></path>
  </symbol>
  <symbol id="smartphone" viewBox="0 0 24 24">
    <path d="M7 2 H17 A2 2 0 0 1 19 4 V20 A2 2 0 0 1 17 22 H7 A2 2 0 0 1 5 20 V4 A2 2 0 0 1 7 2 z M12 18h.01"></path>
  </symbol>
  <symbol id="smile" viewBox="0 0 24 24">
    <path d="M22 12 A10 10 0 0 1 12 22 A10 10 0 0 1 2 12 A10 10 0 0 1 22 12 z M8 14s1.5 2 4 2 4-2 4-2 M9 9 L9.01 9 M15 9 L15.01 9"></path>
  </symbol>
  <symbol id="snowflake" viewBox="0 0 24 24">
    <path d="M2 12 L22 12 M12 2 L12 22 M20 16l-4-4 4-4 M4 8l4 4-4 4 M16 4l-4 4-4-4 M8 20l4-4 4 4"></path>
  </symbol>
  <symbol id="sort-asc" viewBox="0 0 24 24">
    <path d="M11 5h10 M11 9h7 M11 13h4 M3 17l3 3 3-3 M6 18V4"></path>
  </symbol>
  <symbol id="sort-desc" viewBox="0 0 24 24">
    <path d="M11 5h4 M11 9h7 M11 13h10 M3 17l3 3 3-3 M6 18V4"></path>
  </symbol>
  <symbol id="speaker" viewBox="0 0 24 24">
    <path d="M6 2 H18 A2 2 0 0 1 20 4 V20 A2 2 0 0 1 18 22 H6 A2 2 0 0 1 4 20 V4 A2 2 0 0 1 6 2 z M16 14 A4 4 0 0 1 12 18 A4 4 0 0 1 8 14 A4 4 0 0 1 16 14 z M12 6 L12.01 6"></path>
  </symbol>
  <symbol id="split-half" viewBox="0 0 24 24">
    <path d="M 9 17 H 2 V 7 H 9 M 15 7 H 22 V 17 H 15 M12 5 L12 7 M12 11 L12 13 M12 17 L12 19"></path>
  </symbol>
  <symbol id="split-text" viewBox="0 0 24 24">
    <path d="M3 6 L16 6 M20 6 L21 6 M3 12 L6 12 M10 12 L21 12 M3 18 L10 18 M14 18 L21 18"></path>
  </symbol>
  <symbol id="split-three" viewBox="0 0 24 24">
    <path d="M 5 17 H 2 V 7 H 5 M 19 7 H 22 V 17 H 19 M8 5 L8 7 M8 11 L8 13 M8 17 L8 19 M11 7 L13 7 M11 17 L13 17 M16 5 L16 7 M16 11 L16 13 M16 17 L16 19"></path>
  </symbol>
  <symbol id="split" viewBox="0 0 24 24">
    <path d="M 12 17 H 2 V 7 H 12 M 18 7 H 22 V 17 H 18 M15 5 L15 7 M15 11 L15 13 M15 17 L15 19"></path>
  </symbol>
  <symbol id="sprout" viewBox="0 0 24 24">
    <path d="M7 20h10 M10 20c5.5-2.5.8-6.4 3-10 M9.5 9.4c1.1.8 1.8 2.2 2.3 3.7-2 .4-3.5.4-4.8-.3-1.2-.6-2.3-1.9-3-4.2 2.8-.5 4.4 0 5.5.8z M14.1 6a7 7 0 00-1.1 4c1.9-.1 3.3-.6 4.3-1.4 1-1 1.6-2.3 1.7-4.6-2.7.1-4 1-4.9 2z"></path>
  </symbol>
  <symbol id="square" viewBox="0 0 24 24">
    <path d="M5 3 H19 A2 2 0 0 1 21 5 V19 A2 2 0 0 1 19 21 H5 A2 2 0 0 1 3 19 V5 A2 2 0 0 1 5 3 z"></path>
  </symbol>
  <symbol id="star-half" viewBox="0 0 24 24">
    <path d="M12 17.8L5.8 21 7 14.1 2 9.3l7-1L12 2"></path>
  </symbol>
  <symbol id="star" viewBox="0 0 24 24">
    <path d="M12 2 L15.09 8.26 L22 9.27 L17 14.14 L18.18 21.02 L12 17.77 L5.82 21.02 L7 14.14 L2 9.27 L8.91 8.26 L12 2 Z"></path>
  </symbol>
  <symbol id="stop-circle" viewBox="0 0 24 24">
    <path d="M22 12 A10 10 0 0 1 12 22 A10 10 0 0 1 2 12 A10 10 0 0 1 22 12 z M9 9 H15 V15 H9 V9 z"></path>
  </symbol>
  <symbol id="strikethrough" viewBox="0 0 24 24">
    <path d="M16 4H9a3 3 0 00-2.83 4 M14 12a4 4 0 010 8H6 M4 12 L20 12"></path>
  </symbol>
  <symbol id="string" viewBox="0 0 24 24">
    <path d="M4 4 L4 7 M7 4 L7 7 M17 4 L17 7 M20 4 L20 7"></path>
  </symbol>
  <symbol id="sun" viewBox="0 0 24 24">
    <path d="M16 12 A4 4 0 0 1 12 16 A4 4 0 0 1 8 12 A4 4 0 0 1 16 12 z M12 2v2 M12 20v2 M5 5l1.5 1.5 M17.5 17.5L19 19 M2 12h2 M20 12h2 M5 19l1.5-1.5 M17.5 6.5L19 5"></path>
  </symbol>
  <symbol id="sunrise" viewBox="0 0 24 24">
    <path d="M12 2v8 M5.2 11.2l1.4 1.4 M2 18h2 M20 18h2 M17.4 12.6l1.4-1.4 M22 22H2 M8 6l4-4 4 4 M16 18a4 4 0 00-8 0"></path>
  </symbol>
  <symbol id="sunset" viewBox="0 0 24 24">
    <path d="M12 10V2 M5.2 11.2l1.4 1.4 M2 18h2 M20 18h2 M17.4 12.6l1.4-1.4 M22 22H2 M16 6l-4 4-4-4 M16 18a4 4 0 00-8 0"></path>
  </symbol>
  <symbol id="swiss-franc" viewBox="0 0 24 24">
    <path d="M10 21V3h8 M6 16h9 M10 9.5h7"></path>
  </symbol>
  <symbol id="switch-camera" viewBox="0 0 24 24">
    <path d="M11 19H4a2 2 0 01-2-2V7a2 2 0 012-2h5 M13 5h7a2 2 0 012 2v10a2 2 0 01-2 2h-5 M15 12 A3 3 0 0 1 12 15 A3 3 0 0 1 9 12 A3 3 0 0 1 15 12 z M18 22l-3-3 3-3 M6 2l3 3-3 3"></path>
  </symbol>
  <symbol id="table" viewBox="0 0 24 24">
    <path d="M5 3 H19 A2 2 0 0 1 21 5 V19 A2 2 0 0 1 19 21 H5 A2 2 0 0 1 3 19 V5 A2 2 0 0 1 5 3 z M3 9 L21 9 M3 15 L21 15 M12 3 L12 21"></path>
  </symbol>
  <symbol id="tablet" viewBox="0 0 24 24">
    <path d="M6 2 H18 A2 2 0 0 1 20 4 V20 A2 2 0 0 1 18 22 H6 A2 2 0 0 1 4 20 V4 A2 2 0 0 1 6 2 z M12 18 L12.01 18"></path>
  </symbol>
  <symbol id="tag" viewBox="0 0 24 24">
    <path d="M20.59 13.41l-7.17 7.17a2 2 0 01-2.83 0L2 12V2h10l8.59 8.59a2 2 0 010 2.82z M7 7 L7.01 7"></path>
  </symbol>
  <symbol id="target" viewBox="0 0 24 24">
    <path d="M22 12 A10 10 0 0 1 12 22 A10 10 0 0 1 2 12 A10 10 0 0 1 22 12 z M18 12 A6 6 0 0 1 12 18 A6 6 0 0 1 6 12 A6 6 0 0 1 18 12 z M14 12 A2 2 0 0 1 12 14 A2 2 0 0 1 10 12 A2 2 0 0 1 14 12 z"></path>
  </symbol>
  <symbol id="tent" viewBox="0 0 24 24">
    <path d="M19 20L10 4 M5 20l9-16 M3 20h18 M12 15l-3 5 M12 15l3 5"></path>
  </symbol>
  <symbol id="terminal-square" viewBox="0 0 24 24">
    <path d="M7 11l2-2-2-2 M11 13h4 M5 3 H19 A2 2 0 0 1 21 5 V19 A2 2 0 0 1 19 21 H5 A2 2 0 0 1 3 19 V5 A2 2 0 0 1 5 3 z"></path>
  </symbol>
  <symbol id="terminal" viewBox="0 0 24 24">
    <path d="M4 17 L10 11 L4 5 M12 19 L20 19"></path>
  </symbol>
  <symbol id="thermometer-snowflake" viewBox="0 0 24 24">
    <path d="M2 12h10 M9 4v16 M3 9l3 3-3 3 M12 6L9 9 6 6 M6 18l3-3 1.5 1.5 M18 2a2 2 0 00-2 2v10.5a4 4 0 104 0V4a2 2 0 00-2-2z"></path>
  </symbol>
  <symbol id="thermometer-sun" viewBox="0 0 24 24">
    <path d="M12 9a4 4 0 00-2 7.5 M12 3v2 M6.6 18.4l-1.4 1.4 M18 2a2 2 0 012 2v10.5a4 4 0 11-4 0V4c0-1.1.9-2 2-2z M4 13H2 M6.6 7.6L5.2 6.2"></path>
  </symbol>
  <symbol id="thermometer" viewBox="0 0 24 24">
    <path d="M12 2a2 2 0 00-2 2v10.5a4 4 0 104 0V4a2 2 0 00-2-2z"></path>
  </symbol>
  <symbol id="thumbs-down" viewBox="0 0 24 24">
    <path d="M10 15v4a3 3 0 003 3l4-9V2H5.72a2 2 0 00-2 1.7l-1.38 9a2 2 0 002 2.3zm7-13h2.67A2.31 2.31 0 0122 4v7a2.31 2.31 0 01-2.33 2H17"></path>
  </symbol>
  <symbol id="thumbs-up" viewBox="0 0 24 24">
    <path d="M14 9V5a3 3 0 00-3-3l-4 9v11h11.28a2 2 0 002-1.7l1.38-9a2 2 0 00-2-2.3zM7 22H4a2 2 0 01-2-2v-7a2 2 0 012-2h3"></path>
  </symbol>
  <symbol id="ticket" viewBox="0 0 24 24">
    <path d="M3 9V7a2 2 0 012-2h14a2 2 0 012 2v2M3 15v2a2 2 0 002 2h14a2 2 0 002-2v-2 M21 15a3 3 0 110-6 M3 15a3 3 0 100-6 M13 5v2 M13 17v2 M13 11v2"></path>
  </symbol>
  <symbol id="tilde" viewBox="0 0 24 24">
    <path d="M 3 14 Q 6 7 12 12 T 21 10"></path>
  </symbol>
  <symbol id="timer" viewBox="0 0 24 24">
    <path d="M10 2 L14 2 M12 14 L15 11 M20 14 A8 8 0 0 1 12 22 A8 8 0 0 1 4 14 A8 8 0 0 1 20 14 z"></path>
  </symbol>
  <symbol id="toggle-left" viewBox="0 0 24 24">
    <path d="M8 5 H16 A7 7 0 0 1 23 12 V12 A7 7 0 0 1 16 19 H8 A7 7 0 0 1 1 12 V12 A7 7 0 0 1 8 5 z M11 12 A3 3 0 0 1 8 15 A3 3 0 0 1 5 12 A3 3 0 0 1 11 12 z"></path>
  </symbol>
  <symbol id="toggle-right" viewBox="0 0 24 24">
    <path d="M8 5 H16 A7 7 0 0 1 23 12 V12 A7 7 0 0 1 16 19 H8 A7 7 0 0 1 1 12 V12 A7 7 0 0 1 8 5 z M19 12 A3 3 0 0 1 16 15 A3 3 0 0 1 13 12 A3 3 0 0 1 19 12 z"></path>
  </symbol>
  <symbol id="tornado" viewBox="0 0 24 24">
    <path d="M21 4H3 M18 8H6 M19 12H9 M16 16h-6 M11 20H9"></path>
  </symbol>
  <symbol id="trash-2" viewBox="0 0 24 24">
    <path d="M3 6 L5 6 L21 6 M19 6v14a2 2 0 01-2 2H7a2 2 0 01-2-2V6m3 0V4a2 2 0 012-2h4a2 2 0 012 2v2 M10 11 L10 17 M14 11 L14 17"></path>
  </symbol>
  <symbol id="trash" viewBox="0 0 24 24">
    <path d="M3 6 L5 6 L21 6 M19 6v14a2 2 0 01-2 2H7a2 2 0 01-2-2V6m3 0V4a2 2 0 012-2h4a2 2 0 012 2v2"></path>
  </symbol>
  <symbol id="trello" viewBox="0 0 24 24">
    <path d="M5 3 H19 A2 2 0 0 1 21 5 V19 A2 2 0 0 1 19 21 H5 A2 2 0 0 1 3 19 V5 A2 2 0 0 1 5 3 z M7 7 H10 V16 H7 V7 z M14 7 H17 V12 H14 V7 z"></path>
  </symbol>
  <symbol id="trending-down" viewBox="0 0 24 24">
    <path d="M23 18 L13.5 8.5 L8.5 13.5 L1 6 M17 18 L23 18 L23 12"></path>
  </symbol>
  <symbol id="trending-up" viewBox="0 0 24 24">
    <path d="M23 6 L13.5 15.5 L8.5 10.5 L1 18 M17 6 L23 6 L23 12"></path>
  </symbol>
  <symbol id="triangle" viewBox="0 0 24 24">
    <path d="M10.29 3.86L1.82 18a2 2 0 001.71 3h16.94a2 2 0 001.71-3L13.71 3.86a2 2 0 00-3.42 0z"></path>
  </symbol>
  <symbol id="truck" viewBox="0 0 24 24">
    <path d="M10 17h4V5H2v12h3m15 0h2v-3.34a4 4 0 00-1.17-2.83L19 9h-5v8h1 M10 17.5 A2.5 2.5 0 0 1 7.5 20 A2.5 2.5 0 0 1 5 17.5 A2.5 2.5 0 0 1 10 17.5 z M20 17.5 A2.5 2.5 0 0 1 17.5 20 A2.5 2.5 0 0 1 15 17.5 A2.5 2.5 0 0 1 20 17.5 z"></path>
  </symbol>
  <symbol id="tv-2" viewBox="0 0 24 24">
    <path d="M7 21h10 M4 3 H20 A2 2 0 0 1 22 5 V15 A2 2 0 0 1 20 17 H4 A2 2 0 0 1 2 15 V5 A2 2 0 0 1 4 3 z"></path>
  </symbol>
  <symbol id="tv" viewBox="0 0 24 24">
    <path d="M4 7 H20 A2 2 0 0 1 22 9 V20 A2 2 0 0 1 20 22 H4 A2 2 0 0 1 2 20 V9 A2 2 0 0 1 4 7 z M17 2 L12 7 L7 2"></path>
  </symbol>
  <symbol id="twitch" viewBox="0 0 24 24">
    <path d="M21 2H3v16h5v4l4-4h5l4-4V2zm-10 9V7m5 4V7"></path>
  </symbol>
  <symbol id="twitter" viewBox="0 0 24 24">
    <path d="M23 3a10.9 10.9 0 01-3.14 1.53 4.48 4.48 0 00-7.86 3v1A10.66 10.66 0 013 4s-4 9 5 13a11.64 11.64 0 01-7 2c9 5 20 0 20-11.5a4.5 4.5 0 00-.08-.83A7.72 7.72 0 0023 3z"></path>
  </symbol>
  <symbol id="type" viewBox="0 0 24 24">
    <path d="M4 7 L4 4 L20 4 L20 7 M9 20 L15 20 M12 4 L12 20"></path>
  </symbol>
  <symbol id="umbrella" viewBox="0 0 24 24">
    <path d="M23 12a11.05 11.05 0 00-22 0zm-5 7a3 3 0 01-6 0v-7"></path>
  </symbol>
  <symbol id="underline" viewBox="0 0 24 24">
    <path d="M6 4v6a6 6 0 0012 0V4 M4 20 L20 20"></path>
  </symbol>
  <symbol id="undo" viewBox="0 0 24 24">
    <path d="M3 7v6h6 M21 17a9 9 0 00-9-9 9 9 0 00-6 2.3L3 13"></path>
  </symbol>
  <symbol id="unlink-2" viewBox="0 0 24 24">
    <path d="M15 7h2a5 5 0 010 10h-2m-6 0H7A5 5 0 017 7h2"></path>
  </symbol>
  <symbol id="unlink" viewBox="0 0 24 24">
    <path d="M18.84 12.25l1.72-1.71h-.02a5.004 5.004 0 00-.12-7.07 5.006 5.006 0 00-6.95 0l-1.72 1.71 M5.17 11.75l-1.71 1.71a5.004 5.004 0 00.12 7.07 5.006 5.006 0 006.95 0l1.71-1.71 M8 2 L8 5 M2 8 L5 8 M16 19 L16 22 M19 16 L22 16"></path>
  </symbol>
  <symbol id="unlock" viewBox="0 0 24 24">
    <path d="M5 11 H19 A2 2 0 0 1 21 13 V20 A2 2 0 0 1 19 22 H5 A2 2 0 0 1 3 20 V13 A2 2 0 0 1 5 11 z M7 11V7a5 5 0 019.9-1"></path>
  </symbol>
  <symbol id="up-down" viewBox="0 0 24 24">
    <path d="M 4 6 L 12 4 L 20 6 M 4 18 L 12 20 L 20 18"></path>
  </symbol>
  <symbol id="upload-cloud" viewBox="0 0 24 24">
    <path d="M20 16.2A4.5 4.5 0 0017.5 8h-1.8A7 7 0 104 14.9 M12 12v9 M16 16l-4-4-4 4"></path>
  </symbol>
  <symbol id="upload" viewBox="0 0 24 24">
    <path d="M21 15v4a2 2 0 01-2 2H5a2 2 0 01-2-2v-4 M17 8 L12 3 L7 8 M12 3 L12 15"></path>
  </symbol>
  <symbol id="user-check" viewBox="0 0 24 24">
    <path d="M16 21v-2a4 4 0 00-4-4H5a4 4 0 00-4 4v2 M12.5 7 A4 4 0 0 1 8.5 11 A4 4 0 0 1 4.5 7 A4 4 0 0 1 12.5 7 z M17 11 L19 13 L23 9"></path>
  </symbol>
  <symbol id="user-minus" viewBox="0 0 24 24">
    <path d="M16 21v-2a4 4 0 00-4-4H5a4 4 0 00-4 4v2 M12.5 7 A4 4 0 0 1 8.5 11 A4 4 0 0 1 4.5 7 A4 4 0 0 1 12.5 7 z M23 11 L17 11"></path>
  </symbol>
  <symbol id="user-plus" viewBox="0 0 24 24">
    <path d="M16 21v-2a4 4 0 00-4-4H5a4 4 0 00-4 4v2 M12.5 7 A4 4 0 0 1 8.5 11 A4 4 0 0 1 4.5 7 A4 4 0 0 1 12.5 7 z M20 8 L20 14 M23 11 L17 11"></path>
  </symbol>
  <symbol id="user-x" viewBox="0 0 24 24">
    <path d="M16 21v-2a4 4 0 00-4-4H5a4 4 0 00-4 4v2 M12.5 7 A4 4 0 0 1 8.5 11 A4 4 0 0 1 4.5 7 A4 4 0 0 1 12.5 7 z M18 8 L23 13 M23 8 L18 13"></path>
  </symbol>
  <symbol id="user" viewBox="0 0 24 24">
    <path d="M20 21v-2a4 4 0 00-4-4H8a4 4 0 00-4 4v2 M16 7 A4 4 0 0 1 12 11 A4 4 0 0 1 8 7 A4 4 0 0 1 16 7 z"></path>
  </symbol>
  <symbol id="users" viewBox="0 0 24 24">
    <path d="M17 21v-2a4 4 0 00-4-4H5a4 4 0 00-4 4v2 M13 7 A4 4 0 0 1 9 11 A4 4 0 0 1 5 7 A4 4 0 0 1 13 7 z M23 21v-2a4 4 0 00-3-3.87 M16 3.13a4 4 0 010 7.75"></path>
  </symbol>
  <symbol id="value-absolute" viewBox="0 0 24 24">
    <path d="M2 2 L2 22 M22 2 L22 22 M8 8 L16 16 M16 8 L8 16"></path>
  </symbol>
  <symbol id="vibrate" viewBox="0 0 24 24">
    <path d="M2 8l2 2-2 2 2 2-2 2 M22 8l-2 2 2 2-2 2 2 2 M9 5 H15 A1 1 0 0 1 16 6 V18 A1 1 0 0 1 15 19 H9 A1 1 0 0 1 8 18 V6 A1 1 0 0 1 9 5 z"></path>
  </symbol>
  <symbol id="video-off" viewBox="0 0 24 24">
    <path d="M16 16v1a2 2 0 01-2 2H3a2 2 0 01-2-2V7a2 2 0 012-2h2m5.66 0H14a2 2 0 012 2v3.34l1 1L23 7v10 M1 1 L23 23"></path>
  </symbol>
  <symbol id="video" viewBox="0 0 24 24">
    <path d="M23 7 L16 12 L23 17 L23 7 Z M3 5 H14 A2 2 0 0 1 16 7 V17 A2 2 0 0 1 14 19 H3 A2 2 0 0 1 1 17 V7 A2 2 0 0 1 3 5 z"></path>
  </symbol>
  <symbol id="view" viewBox="0 0 24 24">
    <path d="M5 12s2.545-5 7-5c4.454 0 7 5 7 5s-2.546 5-7 5c-4.455 0-7-5-7-5z M12 13a1 1 0 100-2 1 1 0 000 2z M21 8V5a2 2 0 00-2-2H5a2 2 0 00-2 2v3m18 8v3a2 2 0 01-2 2H5a2 2 0 01-2-2v-3"></path>
  </symbol>
  <symbol id="voicemail" viewBox="0 0 24 24">
    <path d="M10 11.5 A4.5 4.5 0 0 1 5.5 16 A4.5 4.5 0 0 1 1 11.5 A4.5 4.5 0 0 1 10 11.5 z M23 11.5 A4.5 4.5 0 0 1 18.5 16 A4.5 4.5 0 0 1 14 11.5 A4.5 4.5 0 0 1 23 11.5 z M5.5 16 L18.5 16"></path>
  </symbol>
  <symbol id="volume-1" viewBox="0 0 24 24">
    <path d="M11 5 L6 9 L2 9 L2 15 L6 15 L11 19 L11 5 Z M15.54 8.46a5 5 0 010 7.07"></path>
  </symbol>
  <symbol id="volume-2" viewBox="0 0 24 24">
    <path d="M11 5 L6 9 L2 9 L2 15 L6 15 L11 19 L11 5 Z M19.07 4.93a10 10 0 010 14.14M15.54 8.46a5 5 0 010 7.07"></path>
  </symbol>
  <symbol id="volume-x" viewBox="0 0 24 24">
    <path d="M11 5 L6 9 L2 9 L2 15 L6 15 L11 19 L11 5 Z M23 9 L17 15 M17 9 L23 15"></path>
  </symbol>
  <symbol id="volume" viewBox="0 0 24 24">
    <path d="M11 5 L6 9 L2 9 L2 15 L6 15 L11 19 L11 5 Z"></path>
  </symbol>
  <symbol id="wallet" viewBox="0 0 24 24">
    <path d="M20 12V8H6a2 2 0 01-2-2c0-1.1.9-2 2-2h12v4 M4 6v12c0 1.1.9 2 2 2h14v-4 M18 12a2 2 0 00-2 2c0 1.1.9 2 2 2h4v-4h-4z"></path>
  </symbol>
  <symbol id="watch" viewBox="0 0 24 24">
    <path d="M19 12 A7 7 0 0 1 12 19 A7 7 0 0 1 5 12 A7 7 0 0 1 19 12 z M12 9 L12 12 L13.5 13.5 M16.51 17.35l-.35 3.83a2 2 0 01-2 1.82H9.83a2 2 0 01-2-1.82l-.35-3.83m.01-10.7l.35-3.83A2 2 0 019.83 1h4.35a2 2 0 012 1.82l.35 3.83"></path>
  </symbol>
  <symbol id="wave-sine" viewBox="0 0 24 24">
    <path d="M 3 12 Q 7.5 -3 12 12 T 21 12"></path>
  </symbol>
  <symbol id="wave-square" viewBox="0 0 24 24">
    <path d="M 3 12 H 6 V 4 H 12 V 20 H 18 V 12 H 21"></path>
  </symbol>
  <symbol id="wave-triangle" viewBox="0 0 24 24">
    <path d="M 3 12 L 7.5 4 L 16.5 20 L 21 12"></path>
  </symbol>
  <symbol id="webcam" viewBox="0 0 24 24">
    <path d="M20 10 A8 8 0 0 1 12 18 A8 8 0 0 1 4 10 A8 8 0 0 1 20 10 z M15 10 A3 3 0 0 1 12 13 A3 3 0 0 1 9 10 A3 3 0 0 1 15 10 z M12 22v-4m-5 4h5-5zm10 0h-5 5z"></path>
  </symbol>
  <symbol id="wifi-off" viewBox="0 0 24 24">
    <path d="M2 2 L22 22 M8.5 16.5a5 5 0 017 0 M2 8.82a15 15 0 014.17-2.65 M10.66 5c4.01-.36 8.14.9 11.34 3.76 M16.85 11.25a10 10 0 012.22 1.68 M5 13a10 10 0 015.24-2.76 M12 20 L12.01 20"></path>
  </symbol>
  <symbol id="wifi" viewBox="0 0 24 24">
    <path d="M5 13a10 10 0 0114 0 M8.5 16.5a5 5 0 017 0 M2 8.82a15 15 0 0120 0 M12 20 L12.01 20"></path>
  </symbol>
  <symbol id="wind" viewBox="0 0 24 24">
    <path d="M17.7 7.7a2.5 2.5 0 111.8 4.3H2 M9.6 4.6A2 2 0 1111 8H2 M12.6 19.4A2 2 0 1014 16H2"></path>
  </symbol>
  <symbol id="wrench" viewBox="0 0 24 24">
    <path d="M14.7 6.3a1 1 0 000 1.4l1.6 1.6a1 1 0 001.4 0l3.77-3.77a6 6 0 01-7.94 7.94l-6.91 6.91a2.12 2.12 0 01-3-3l6.91-6.91a6 6 0 017.94-7.94l-3.76 3.76z"></path>
  </symbol>
  <symbol id="x-circle" viewBox="0 0 24 24">
    <path d="M22 12 A10 10 0 0 1 12 22 A10 10 0 0 1 2 12 A10 10 0 0 1 22 12 z M15 9 L9 15 M9 9 L15 15"></path>
  </symbol>
  <symbol id="x-octagon" viewBox="0 0 24 24">
    <path d="M7.86 2 L16.14 2 L22 7.86 L22 16.14 L16.14 22 L7.86 22 L2 16.14 L2 7.86 L7.86 2 Z M15 9 L9 15 M9 9 L15 15"></path>
  </symbol>
  <symbol id="x-square" viewBox="0 0 24 24">
    <path d="M5 3 H19 A2 2 0 0 1 21 5 V19 A2 2 0 0 1 19 21 H5 A2 2 0 0 1 3 19 V5 A2 2 0 0 1 5 3 z M9 9 L15 15 M15 9 L9 15"></path>
  </symbol>
  <symbol id="x" viewBox="0 0 24 24">
    <path d="M18 6 L6 18 M6 6 L18 18"></path>
  </symbol>
  <symbol id="youtube" viewBox="0 0 24 24">
    <path d="M22.54 6.42a2.78 2.78 0 00-1.94-2C18.88 4 12 4 12 4s-6.88 0-8.6.46a2.78 2.78 0 00-1.94 2A29 29 0 001 11.75a29 29 0 00.46 5.33A2.78 2.78 0 003.4 19c1.72.46 8.6.46 8.6.46s6.88 0 8.6-.46a2.78 2.78 0 001.94-2 29 29 0 00.46-5.25 29 29 0 00-.46-5.33z M9.75 15.02 L15.5 11.75 L9.75 8.48 L9.75 15.02 Z"></path>
  </symbol>
  <symbol id="zap-off" viewBox="0 0 24 24">
    <path d="M12.41 6.75 L13 2 L10.57 4.92 M18.57 12.91 L21 10 L15.66 10 M8 8 L3 14 L12 14 L11 22 L16 16 M1 1 L23 23"></path>
  </symbol>
  <symbol id="zap" viewBox="0 0 24 24">
    <path d="M13 2 L3 14 L12 14 L11 22 L21 10 L12 10 L13 2 Z"></path>
  </symbol>
  <symbol id="zoom-in" viewBox="0 0 24 24">
    <path d="M19 11 A8 8 0 0 1 11 19 A8 8 0 0 1 3 11 A8 8 0 0 1 19 11 z M21 21 L16.65 16.65 M11 8 L11 14 M8 11 L14 11"></path>
  </symbol>
  <symbol id="zoom-out" viewBox="0 0 24 24">
    <path d="M19 11 A8 8 0 0 1 11 19 A8 8 0 0 1 3 11 A8 8 0 0 1 19 11 z M21 21 L16.65 16.65 M8 11 L14 11"></path>
  </symbol>
</svg>
