<svg version="1.1" xmlns="http://www.w3.org/2000/svg" viewBox="0 0 690.7122395833333 642.1666666666666" width="1381.4244791666665" height="1284.3333333333333">
  <!-- svg-source:excalidraw -->
  
  <defs>
    <style>
      @font-face {
        font-family: "Virgil";
        src: url("https://excalidraw.com/Virgil.woff2");
      }
      @font-face {
        font-family: "Cascadia";
        src: url("https://excalidraw.com/Cascadia.woff2");
      }
    </style>
  </defs>
  <rect x="0" y="0" width="690.7122395833333" height="642.1666666666666" fill="#ffffff"></rect><g stroke-opacity="0.4" fill-opacity="0.4" stroke-linecap="round" transform="translate(130.51692708333343 408.30729166666663) rotate(0 111.9296875 111.9296875)"><path d="M185.06 26.9 C195.33 33.67, 203.48 47.33, 210 59.81 C216.51 72.29, 222.34 88.19, 224.15 101.79 C225.95 115.4, 224.39 128.86, 220.84 141.42 C217.28 153.99, 211.09 166.54, 202.82 177.18 C194.56 187.83, 182.67 197.59, 171.25 205.29 C159.82 212.98, 147.56 220.57, 134.27 223.35 C120.98 226.12, 104.84 224.51, 91.52 221.92 C78.19 219.33, 65.91 214.95, 54.33 207.78 C42.75 200.62, 30.73 189.68, 22.03 178.93 C13.33 168.18, 6.01 156.25, 2.15 143.3 C-1.71 130.35, -3.05 115.15, -1.11 101.24 C0.82 87.32, 7.15 72.18, 13.75 59.8 C20.36 47.43, 28.74 35.96, 38.52 26.99 C48.31 18.02, 59.58 10.23, 72.44 5.99 C85.3 1.75, 101.92 1.45, 115.7 1.56 C129.49 1.68, 140.45 -1.33, 155.14 6.67 C169.84 14.67, 194.08 38.96, 203.89 49.57 C213.69 60.19, 215.64 69.54, 213.97 70.35 M37.74 30 C46.94 19.67, 62.05 10.02, 75.02 5.27 C88 0.51, 102.13 1.21, 115.57 1.46 C129.01 1.7, 143.69 1.45, 155.68 6.73 C167.66 12.01, 177.39 23.55, 187.46 33.15 C197.52 42.76, 210.17 52.31, 216.08 64.38 C221.98 76.46, 222.51 91.39, 222.91 105.59 C223.3 119.79, 222.43 136.34, 218.47 149.6 C214.5 162.86, 208.29 174.88, 199.12 185.14 C189.95 195.4, 175.23 205.18, 163.44 211.13 C151.65 217.09, 141.43 219.06, 128.37 220.86 C115.31 222.66, 99.01 225.06, 85.08 221.93 C71.14 218.81, 55.88 210.32, 44.76 202.1 C33.64 193.88, 25.43 184.06, 18.35 172.64 C11.27 161.22, 5.27 146.91, 2.3 133.57 C-0.67 120.23, -1.87 105.87, 0.53 92.59 C2.93 79.3, 10.67 64.63, 16.67 53.86 C22.67 43.09, 33.07 32.2, 36.54 27.99 C40.01 23.78, 36.01 26.82, 37.49 28.6" stroke="#495057" stroke-width="1" fill="none"></path></g><g stroke-opacity="0.4" fill-opacity="0.4" stroke-linecap="round" transform="translate(456.8528645833333 200.16145833333331) rotate(0 111.9296875 111.9296875)"><path d="M203.6 48.96 C212.49 59.13, 218.82 76, 222.13 89.36 C225.44 102.71, 225.54 116.22, 223.48 129.1 C221.42 141.99, 216.76 155.18, 209.77 166.67 C202.78 178.16, 192.08 189.08, 181.54 198.02 C171 206.96, 159.42 216.07, 146.5 220.32 C133.58 224.58, 117.53 224.63, 104.01 223.55 C90.49 222.47, 77.69 219.67, 65.38 213.85 C53.06 208.02, 39.98 198.36, 30.11 188.6 C20.24 178.83, 11.47 167.71, 6.16 155.24 C0.86 142.78, -2.13 127.81, -1.72 113.82 C-1.31 99.83, 3.4 84.3, 8.61 71.3 C13.82 58.31, 20.84 45.89, 29.55 35.83 C38.26 25.77, 48.6 16.6, 60.86 10.96 C73.12 5.32, 89.38 3.4, 103.11 1.99 C116.85 0.57, 130.37 -1.37, 143.26 2.48 C156.15 6.33, 167.07 5.46, 180.43 25.08 C193.78 44.69, 221.68 93, 223.38 120.17 C225.08 147.34, 192.7 188.35, 190.61 188.1 M190.33 30.36 C200.98 37.86, 208.32 54.62, 213.85 66.78 C219.37 78.94, 223.19 89.82, 223.46 103.32 C223.73 116.83, 219.3 134.78, 215.46 147.79 C211.63 160.79, 208.74 171.17, 200.47 181.35 C192.19 191.53, 177.94 201.59, 165.82 208.87 C153.69 216.15, 140.83 222.78, 127.72 225.03 C114.61 227.29, 100.84 225.72, 87.15 222.4 C73.46 219.08, 56.65 213.45, 45.59 205.11 C34.53 196.77, 27.96 183.62, 20.78 172.37 C13.6 161.13, 6.21 150.78, 2.49 137.64 C-1.22 124.5, -3.54 107.36, -1.5 93.54 C0.54 79.71, 7.52 66.54, 14.75 54.69 C21.97 42.83, 31.33 30.93, 41.85 22.39 C52.36 13.84, 64.6 7.33, 77.81 3.41 C91.02 -0.5, 107.78 -2.45, 121.1 -1.1 C134.42 0.25, 146.76 6.14, 157.76 11.51 C168.77 16.89, 182.16 27.07, 187.13 31.16 C192.11 35.25, 188.57 34.3, 187.61 36.06" stroke="#495057" stroke-width="1" fill="none"></path></g><g stroke-opacity="0.4" fill-opacity="0.4" stroke-linecap="round" transform="translate(10 219.06380208333337) rotate(0 111.9296875 111.9296875)"><path d="M59.44 15.1 C70.33 7.53, 85.44 2.97, 98.94 0.76 C112.44 -1.46, 127.45 -1.27, 140.45 1.82 C153.45 4.9, 165.81 10.86, 176.94 19.24 C188.07 27.63, 199.77 40.5, 207.25 52.12 C214.72 63.74, 218.98 75.77, 221.78 88.97 C224.57 102.17, 226.34 117.91, 224.03 131.32 C221.72 144.73, 215.46 157.64, 207.92 169.44 C200.37 181.23, 189.74 193.61, 178.76 202.07 C167.77 210.54, 154.51 216.79, 142.02 220.23 C129.52 223.66, 116.94 224.16, 103.8 222.7 C90.65 221.25, 75.73 217.47, 63.14 211.48 C50.55 205.5, 37.32 196.39, 28.26 186.8 C19.2 177.2, 13.47 166.77, 8.78 153.92 C4.09 141.07, 0.24 123.2, 0.12 109.69 C0.01 96.18, 3.16 85.43, 8.1 72.88 C13.04 60.33, 17.18 45.9, 29.75 34.4 C42.32 22.89, 70.15 9.55, 83.51 3.86 C96.87 -1.83, 109.08 -1.39, 109.9 0.26 M200.04 44.14 C209.25 53.01, 215.4 64.27, 218.83 77.21 C222.27 90.15, 221.33 108.15, 220.65 121.78 C219.97 135.41, 220.32 147.1, 214.76 159.01 C209.19 170.92, 197.49 183.38, 187.26 193.26 C177.03 203.14, 165.67 212.92, 153.37 218.29 C141.08 223.66, 127.55 225.57, 113.5 225.45 C99.44 225.32, 81.59 223.03, 69.02 217.53 C56.45 212.04, 47.7 201.62, 38.09 192.47 C28.47 183.32, 18.05 174.72, 11.31 162.65 C4.56 150.58, -1.22 133.98, -2.39 120.05 C-3.56 106.11, 0.01 92.18, 4.28 79.05 C8.55 65.92, 15.01 52.08, 23.23 41.27 C31.45 30.47, 41.7 21.08, 53.6 14.23 C65.5 7.38, 81.44 2.04, 94.61 0.17 C107.78 -1.69, 119.99 0.12, 132.62 3.06 C145.25 6, 159.29 10.7, 170.4 17.8 C181.5 24.9, 194.75 40.91, 199.27 45.65 C203.79 50.39, 199.04 45.85, 197.5 46.24" stroke="#495057" stroke-width="1" fill="none"></path></g><g stroke-opacity="0.4" fill-opacity="0.4" stroke-linecap="round" transform="translate(349.82031249999983 401.0703125) rotate(0 111.9296875 111.9296875)"><path d="M72.14 7.57 C83.55 0.73, 99.59 -1.34, 113 -1.59 C126.42 -1.84, 139.88 0.65, 152.61 6.09 C165.34 11.52, 179.34 21.56, 189.37 31.01 C199.4 40.47, 206.83 50.69, 212.8 62.81 C218.77 74.92, 224.15 90.14, 225.19 103.69 C226.23 117.24, 223.52 130.98, 219.05 144.12 C214.57 157.26, 206.95 171.7, 198.33 182.54 C189.72 193.38, 178.51 202.64, 167.36 209.15 C156.21 215.66, 144.44 219.71, 131.43 221.6 C118.42 223.5, 102.97 223.33, 89.28 220.51 C75.6 217.7, 60.56 211.76, 49.33 204.72 C38.09 197.68, 29.53 189.53, 21.88 178.27 C14.24 167.01, 6.91 150.24, 3.47 137.14 C0.03 124.04, -0.46 113.05, 1.23 99.67 C2.92 86.29, 7.26 69.03, 13.61 56.85 C19.96 44.68, 28.27 35.69, 39.32 26.6 C50.37 17.5, 70.84 6.15, 79.9 2.28 C88.97 -1.59, 92.66 1.22, 93.71 3.4 M68.91 6.24 C79.66 -0.34, 92.87 1.31, 106.82 1.14 C120.76 0.97, 139.52 0.85, 152.61 5.23 C165.69 9.6, 175.42 17.76, 185.3 27.4 C195.18 37.04, 205.36 50.62, 211.88 63.08 C218.41 75.54, 223.56 88.83, 224.46 102.16 C225.35 115.49, 220.76 130.58, 217.23 143.05 C213.69 155.53, 210.98 166.13, 203.23 177 C195.49 187.88, 183.05 201.05, 170.76 208.32 C158.48 215.58, 142.9 218.52, 129.53 220.59 C116.17 222.65, 103.5 223.36, 90.59 220.69 C77.69 218.03, 63.69 211.91, 52.11 204.61 C40.52 197.31, 28.91 187.68, 21.09 176.88 C13.26 166.09, 8.92 152.56, 5.16 139.86 C1.39 127.15, -2.31 113.96, -1.51 100.64 C-0.71 87.31, 3.44 71.57, 9.96 59.9 C16.48 48.23, 27.83 38.82, 37.59 30.61 C47.34 22.4, 63.26 14.25, 68.48 10.63 C73.7 7, 68.35 7.92, 68.92 8.88" stroke="#495057" stroke-width="1" fill="none"></path></g><g stroke-opacity="0.4" fill-opacity="0.4" stroke-linecap="round" transform="translate(109.76302083333348 17.927083333333258) rotate(0 111.92968750000003 111.9296875)"><path d="M191.32 30.33 C201.59 37.86, 208.28 51.44, 213.95 64.31 C219.62 77.18, 224.58 93.75, 225.33 107.56 C226.08 121.37, 222.72 134.39, 218.46 147.19 C214.19 159.99, 208.5 173.88, 199.76 184.35 C191.02 194.81, 178.49 203.29, 166.02 210 C153.56 216.71, 138.69 222.67, 124.97 224.62 C111.26 226.56, 96.38 225.29, 83.72 221.66 C71.05 218.03, 59.71 210.94, 48.97 202.83 C38.23 194.73, 27.22 184.33, 19.3 173.03 C11.37 161.73, 4.19 147.88, 1.41 135.03 C-1.38 122.18, 0.25 109.53, 2.6 95.93 C4.94 82.33, 8.75 65.07, 15.46 53.42 C22.17 41.78, 32.23 34.38, 42.85 26.05 C53.46 17.71, 66.33 7.64, 79.16 3.41 C91.99 -0.82, 106.51 -0.28, 119.82 0.66 C133.12 1.6, 143.4 -0.95, 158.99 9.06 C174.57 19.08, 202.78 46.11, 213.34 60.75 C223.9 75.39, 224.4 95.93, 222.35 96.9 M159.54 13.14 C172.21 17.51, 187.95 25.79, 197.35 35.59 C206.75 45.39, 211.46 58.6, 215.94 71.96 C220.41 85.31, 224.07 101.78, 224.21 115.73 C224.35 129.69, 222.39 143.29, 216.79 155.68 C211.19 168.08, 199.86 180.88, 190.61 190.12 C181.37 199.37, 173.21 205.37, 161.32 211.17 C149.43 216.96, 133.59 223.87, 119.3 224.9 C105 225.92, 88.52 221.79, 75.56 217.31 C62.6 212.83, 51.66 206.62, 41.51 198.01 C31.35 189.39, 21.49 177.47, 14.64 165.62 C7.78 153.78, 2.13 140.24, 0.37 126.94 C-1.4 113.63, 1.24 98.64, 4.03 85.79 C6.81 72.95, 10.14 60.94, 17.1 49.87 C24.06 38.8, 34.33 26.71, 45.76 19.38 C57.19 12.05, 72.13 8.58, 85.68 5.89 C99.23 3.2, 114.45 2.5, 127.06 3.24 C139.67 3.98, 155.87 8.94, 161.34 10.33 C166.8 11.72, 160.26 9.55, 159.86 11.56" stroke="#495057" stroke-width="1" fill="none"></path></g><g stroke-opacity="0.4" fill-opacity="0.4" stroke-linecap="round" transform="translate(231.3984375000001 207.953125) rotate(0 111.92968749999997 111.9296875)"><path d="M105.41 -1.38 C118.26 -3.36, 135.16 2.44, 148.12 6.89 C161.07 11.34, 172.63 16.81, 183.15 25.33 C193.66 33.85, 204.62 46.14, 211.2 57.99 C217.78 69.85, 221.34 82.88, 222.64 96.46 C223.94 110.04, 222.4 126.11, 219.01 139.45 C215.62 152.8, 209.49 165.79, 202.29 176.54 C195.1 187.29, 186.7 196.66, 175.83 203.93 C164.96 211.21, 150.72 217.23, 137.07 220.21 C123.42 223.19, 107.26 223.44, 93.95 221.81 C80.65 220.19, 68.78 217.41, 57.24 210.43 C45.69 203.46, 33.34 190.48, 24.7 179.96 C16.07 169.43, 9.51 160.15, 5.43 147.27 C1.35 134.4, -0.58 116.53, 0.21 102.73 C0.99 88.92, 4.58 76.81, 10.15 64.45 C15.72 52.1, 23.41 38.08, 33.63 28.59 C43.85 19.11, 49.73 10.27, 71.45 7.55 C93.18 4.83, 142.09 4.89, 163.98 12.26 C185.87 19.63, 203.79 50.18, 202.81 51.77 M37.31 28.75 C45.85 18.35, 57.04 11.79, 69.35 7.37 C81.65 2.95, 97.25 2, 111.16 2.25 C125.06 2.49, 140.55 4.21, 152.76 8.85 C164.96 13.48, 174.22 21.56, 184.38 30.06 C194.55 38.55, 207.27 47.65, 213.74 59.8 C220.21 71.95, 222.7 89.35, 223.19 102.97 C223.68 116.59, 220.46 128.89, 216.69 141.52 C212.91 154.15, 208.35 168.08, 200.54 178.75 C192.72 189.42, 181.47 198.56, 169.78 205.53 C158.08 212.5, 143.48 218.09, 130.36 220.54 C117.24 223, 104.58 222.57, 91.06 220.27 C77.55 217.98, 61.33 213.97, 49.26 206.8 C37.19 199.62, 26.35 187.87, 18.63 177.25 C10.92 166.63, 6.07 155.79, 2.98 143.08 C-0.1 130.36, -1.4 115.2, 0.12 100.95 C1.64 86.7, 6.48 69.76, 12.08 57.59 C17.68 45.42, 29.33 32.12, 33.71 27.93 C38.08 23.74, 36.54 31.09, 38.33 32.45" stroke="#495057" stroke-width="1" fill="none"></path></g><g stroke-opacity="0.4" fill-opacity="0.4" stroke-linecap="round" transform="translate(335.30078125000006 10) rotate(0 111.9296875 111.9296875)"><path d="M33.62 35 C41.45 24.84, 53.88 15.52, 66.27 9.86 C78.66 4.21, 94.47 1.73, 107.95 1.07 C121.44 0.41, 134.89 1.46, 147.17 5.88 C159.46 10.31, 171.5 18.81, 181.67 27.63 C191.83 36.45, 201.1 47.33, 208.18 58.79 C215.26 70.25, 221.98 83.26, 224.15 96.39 C226.32 109.53, 224.83 124.43, 221.2 137.61 C217.57 150.79, 210.05 163.96, 202.36 175.48 C194.67 186.99, 186.16 199.39, 175.07 206.7 C163.98 214.01, 149.23 216.4, 135.82 219.35 C122.41 222.29, 108.05 226.44, 94.61 224.39 C81.18 222.33, 67.09 214.13, 55.23 207 C43.37 199.87, 32.11 192.33, 23.47 181.59 C14.84 170.85, 7.03 155.7, 3.43 142.55 C-0.17 129.41, 0.29 115.86, 1.87 102.72 C3.45 89.58, 1.8 79.39, 12.9 63.69 C24 48, 51.56 18.81, 68.46 8.55 C85.35 -1.72, 113.68 0.71, 114.27 2.1 M151.79 6.94 C164.15 10.65, 177.8 22.26, 188.11 31.83 C198.43 41.41, 208.21 52.38, 213.68 64.4 C219.15 76.42, 219.72 91.04, 220.92 103.96 C222.13 116.89, 224.39 128.92, 220.9 141.94 C217.4 154.96, 209.08 171.27, 199.97 182.08 C190.87 192.89, 177.97 200.25, 166.29 206.77 C154.6 213.29, 142.82 219.1, 129.85 221.19 C116.89 223.29, 101.87 222.25, 88.49 219.36 C75.12 216.47, 60.71 211.19, 49.62 203.86 C38.52 196.52, 29.99 186.03, 21.92 175.36 C13.85 164.68, 5.14 152.81, 1.19 139.81 C-2.76 126.81, -3.75 110.46, -1.77 97.37 C0.2 84.27, 6.19 72.74, 13.03 61.24 C19.87 49.74, 28.93 37.88, 39.25 28.38 C49.57 18.87, 62.22 9.35, 74.93 4.23 C87.63 -0.89, 102.28 -2.99, 115.48 -2.35 C128.69 -1.71, 147.85 6.47, 154.16 8.07 C160.46 9.68, 154.6 5.45, 153.32 7.3" stroke="#495057" stroke-width="1" fill="none"></path></g><g stroke-opacity="0.4" fill-opacity="0.4" stroke-linecap="round" transform="translate(342.2291666666667 204.984375) rotate(0 111.9296875 111.9296875)"><path d="M33.28 32.57 C41.21 22.16, 56.59 15.62, 68.97 10.22 C81.34 4.83, 94.56 0.61, 107.53 0.23 C120.5 -0.15, 134.24 3.35, 146.79 7.94 C159.35 12.53, 172.01 19.37, 182.86 27.76 C193.7 36.16, 205.06 46.64, 211.85 58.28 C218.64 69.93, 222.38 84.16, 223.6 97.63 C224.82 111.1, 222.42 125.56, 219.14 139.11 C215.86 152.66, 211.65 168.12, 203.93 178.93 C196.21 189.74, 184.35 196.55, 172.8 203.98 C161.26 211.41, 147.98 220.73, 134.65 223.52 C121.32 226.32, 106.36 223.33, 92.84 220.76 C79.31 218.18, 65.35 215.19, 53.5 208.09 C41.66 200.99, 29.68 189.08, 21.76 178.16 C13.84 167.24, 9.24 155.2, 5.99 142.55 C2.74 129.91, 1.43 115.7, 2.25 102.3 C3.08 88.9, 2.9 76.07, 10.93 62.17 C18.95 48.27, 40.96 27.76, 50.41 18.9 C59.85 10.05, 66.58 7.23, 67.59 9.04 M53.97 18.64 C64.4 10.82, 80.65 5.86, 93.53 3.31 C106.4 0.77, 117.82 1.31, 131.22 3.35 C144.62 5.4, 162.11 8.26, 173.93 15.59 C185.76 22.91, 194.95 36.23, 202.19 47.31 C209.43 58.38, 213.94 69.32, 217.37 82.03 C220.81 94.75, 223.94 110.22, 222.81 123.59 C221.68 136.96, 217.04 150.34, 210.59 162.25 C204.14 174.17, 194.15 186.1, 184.12 195.08 C174.09 204.05, 163.42 211.21, 150.41 216.11 C137.4 221.01, 120.27 224.79, 106.05 224.5 C91.83 224.22, 77.31 219.39, 65.1 214.41 C52.88 209.42, 42.08 203.69, 32.74 194.59 C23.41 185.48, 14.72 172.91, 9.11 159.76 C3.5 146.6, -0.14 129.96, -0.94 115.64 C-1.74 101.32, -0.47 86.35, 4.28 73.84 C9.04 61.33, 19.13 50.55, 27.6 40.57 C36.08 30.59, 50.95 17.49, 55.14 13.96 C59.33 10.43, 51.84 17.71, 52.75 19.39" stroke="#495057" stroke-width="1" fill="none"></path></g><g stroke-opacity="0.4" fill-opacity="0.4" stroke-linecap="round" transform="translate(178.4153645833331 298.74479166666663) rotate(0 111.9296875 111.9296875)"><path d="M186.7 28.06 C197.54 35.19, 204.95 47.54, 210.71 59.68 C216.47 71.81, 219.99 87.23, 221.28 100.85 C222.57 114.47, 221.38 128.7, 218.45 141.4 C215.51 154.11, 211.28 166.43, 203.67 177.08 C196.05 187.73, 184.6 198.01, 172.76 205.32 C160.92 212.62, 145.81 217.87, 132.62 220.93 C119.42 223.99, 106.72 226.24, 93.57 223.67 C80.42 221.1, 65.46 212.51, 53.73 205.51 C42 198.5, 31.43 192.35, 23.18 181.63 C14.93 170.91, 8.12 154.5, 4.24 141.19 C0.37 127.87, -1.13 115.34, -0.08 101.75 C0.97 88.15, 4.08 71.89, 10.53 59.61 C16.99 47.33, 28.02 36.72, 38.66 28.04 C49.29 19.36, 62.02 12.17, 74.34 7.51 C86.65 2.86, 99.12 0.01, 112.55 0.09 C125.97 0.18, 139.26 -0.65, 154.89 8.04 C170.51 16.73, 195.5 38.78, 206.28 52.24 C217.07 65.7, 221.12 87.61, 219.59 88.8 M86.61 4.77 C98.24 -0.14, 110.71 0.99, 124.25 2.19 C137.79 3.39, 155.6 5.38, 167.86 11.97 C180.13 18.56, 189.93 31.18, 197.85 41.73 C205.76 52.28, 211.1 62.79, 215.36 75.26 C219.62 87.73, 223.68 103.1, 223.4 116.54 C223.13 129.98, 219.38 143.61, 213.7 155.9 C208.02 168.2, 198.78 180.69, 189.33 190.3 C179.88 199.9, 169.7 207.85, 157 213.55 C144.29 219.25, 127.34 223.94, 113.12 224.51 C98.9 225.09, 84.21 221.18, 71.68 216.99 C59.14 212.8, 47.85 207.86, 37.93 199.38 C28.02 190.91, 18.58 178.9, 12.2 166.11 C5.81 153.33, 1.28 136.94, -0.38 122.69 C-2.03 108.44, -1.69 93.37, 2.25 80.61 C6.18 67.85, 14.7 57.07, 23.24 46.13 C31.78 35.19, 43.47 21.96, 53.5 14.98 C63.52 8.01, 77.8 6.18, 83.41 4.27 C89.03 2.35, 86.26 1.8, 87.16 3.49" stroke="#495057" stroke-width="1" fill="none"></path></g><g stroke-opacity="0.4" fill-opacity="0.4" stroke-linecap="round" transform="translate(118.29296874999989 218.26692708333337) rotate(0 111.92968749999997 111.9296875)"><path d="M111.46 0.15 C123.76 -1.49, 138.1 4.26, 150.49 9.3 C162.88 14.33, 175.28 21.62, 185.81 30.37 C196.33 39.12, 207.28 49.92, 213.65 61.78 C220.01 73.65, 223.26 88.03, 224 101.55 C224.74 115.07, 221.83 129.48, 218.09 142.91 C214.35 156.33, 209.68 171.56, 201.57 182.09 C193.47 192.61, 181.26 199.03, 169.46 206.06 C157.66 213.08, 144.2 221.91, 130.78 224.24 C117.37 226.57, 102.41 223.06, 88.97 220.02 C75.54 216.98, 61.76 213.5, 50.17 206 C38.58 198.49, 26.95 186.2, 19.42 175 C11.88 163.79, 7.75 151.52, 4.96 138.76 C2.17 125.99, 1.38 111.73, 2.67 98.39 C3.97 85.04, 6.42 70.69, 12.74 58.68 C19.06 46.66, 30.36 35.4, 40.61 26.3 C50.85 17.21, 54.87 6.77, 74.21 4.11 C93.54 1.45, 137.25 5.08, 156.59 10.35 C175.93 15.62, 191.18 34.19, 190.24 35.72 M185.43 31.01 C196.16 37.89, 208.05 48.84, 214.37 61.07 C220.68 73.3, 222.99 90.74, 223.31 104.38 C223.63 118.01, 220.23 130.3, 216.29 142.88 C212.35 155.46, 207.62 169.3, 199.67 179.87 C191.71 190.43, 180.34 199.44, 168.56 206.26 C156.78 213.08, 142.11 218.49, 128.96 220.78 C115.82 223.07, 103.16 222.45, 89.68 219.99 C76.2 217.53, 60.05 213.34, 48.07 206.02 C36.09 198.71, 25.38 186.82, 17.81 176.1 C10.24 165.38, 5.55 154.46, 2.63 141.7 C-0.29 128.95, -1.39 113.77, 0.3 99.54 C1.98 85.32, 6.37 69.01, 12.75 56.35 C19.14 43.69, 27.76 31.94, 38.61 23.59 C49.46 15.24, 64.47 10.56, 77.85 6.24 C91.23 1.93, 105.91 -3.07, 118.87 -2.31 C131.83 -1.54, 143.9 5.8, 155.62 10.84 C167.33 15.88, 183.92 24.45, 189.18 27.94 C194.44 31.43, 188.68 30.55, 187.19 31.8" stroke="#495057" stroke-width="1" fill="none"></path></g><g stroke-opacity="0.4" fill-opacity="0.4" stroke-linecap="round" transform="translate(281.7200520833333 100.30208333333337) rotate(0 111.9296875 111.9296875)"><path d="M160.02 13.51 C172.07 17.84, 183.52 28.12, 193.15 37.76 C202.79 47.4, 212.6 58.97, 217.8 71.34 C223.01 83.71, 224.92 98.39, 224.4 111.96 C223.88 125.53, 219.6 139.74, 214.67 152.75 C209.74 165.76, 203.87 180.31, 194.81 190.01 C185.74 199.72, 172.67 205.07, 160.28 210.98 C147.88 216.89, 134 224.41, 120.43 225.49 C106.87 226.56, 92 221.68, 78.88 217.41 C65.76 213.15, 52.57 208.43, 41.72 199.9 C30.86 191.37, 20.24 178.14, 13.76 166.24 C7.29 154.35, 4.43 141.57, 2.88 128.54 C1.32 115.52, 1.91 101.25, 4.45 88.12 C6.99 74.99, 10.73 61.12, 18.13 49.76 C25.53 38.39, 37.86 28.05, 48.87 19.95 C59.88 11.86, 71.05 4.12, 84.21 1.2 C97.37 -1.72, 108.26 -5.07, 127.84 2.41 C147.43 9.88, 186.34 30.28, 201.71 46.05 C217.09 61.83, 221.18 95.75, 220.1 97.06 M170.2 13.31 C182.6 18.34, 191.88 33.07, 199.55 43.82 C207.21 54.58, 212.23 65.26, 216.18 77.83 C220.13 90.4, 223.83 105.81, 223.23 119.23 C222.63 132.65, 218.54 146.19, 212.56 158.35 C206.59 170.5, 197.06 182.79, 187.38 192.16 C177.7 201.53, 167.33 209.17, 154.5 214.58 C141.68 219.98, 124.65 224.32, 110.42 224.56 C96.2 224.81, 81.56 220.55, 69.15 216.05 C56.73 211.56, 45.61 206.32, 35.92 197.59 C26.22 188.87, 17.07 176.64, 10.97 163.71 C4.88 150.78, 0.69 134.29, -0.64 120 C-1.98 105.72, -1.28 90.68, 2.97 78.01 C7.22 65.34, 16.06 54.72, 24.86 43.98 C33.67 33.24, 44.75 20.45, 55.79 13.57 C66.82 6.68, 77.76 4.87, 91.08 2.68 C104.4 0.49, 122.7 -1.73, 135.72 0.43 C148.74 2.6, 163.96 13.31, 169.21 15.69 C174.45 18.07, 167.91 13.05, 167.18 14.69" stroke="#495057" stroke-width="1" fill="none"></path></g><g stroke-opacity="0.4" fill-opacity="0.4" stroke-linecap="round" transform="translate(291.42057291666646 291.7213541666667) rotate(0 111.9296875 111.9296875)"><path d="M118.47 1.29 C131.97 0.09, 148.88 4.66, 161.5 10.2 C174.12 15.74, 185.33 24.62, 194.19 34.53 C203.06 44.43, 209.56 56.62, 214.7 69.64 C219.85 82.65, 224.75 99.23, 225.07 112.6 C225.39 125.98, 221.61 137.14, 216.63 149.88 C211.64 162.63, 204.3 178.94, 195.15 189.07 C186 199.2, 174.03 204.89, 161.72 210.67 C149.42 216.45, 135.08 222.63, 121.34 223.75 C107.59 224.88, 91.93 221.38, 79.25 217.43 C66.57 213.47, 55.48 207.92, 45.26 200.04 C35.04 192.16, 25.32 181.63, 17.92 170.13 C10.52 158.64, 3.3 144.51, 0.85 131.05 C-1.61 117.6, 0.6 103.03, 3.2 89.4 C5.79 75.77, 9.08 60.42, 16.41 49.27 C23.74 38.13, 36.12 30.23, 47.2 22.52 C58.28 14.81, 65.13 5.35, 82.87 3.01 C100.6 0.67, 136.76 4.2, 153.61 8.48 C170.46 12.77, 184.4 27.3, 183.95 28.7 M155.36 10.15 C167.15 13.68, 177.57 21.32, 187.27 30.38 C196.97 39.45, 207.52 52.28, 213.56 64.52 C219.59 76.77, 222.82 90.39, 223.45 103.87 C224.09 117.34, 221.35 132.37, 217.34 145.37 C213.34 158.37, 208.29 171.04, 199.43 181.89 C190.57 192.74, 176.68 203.7, 164.16 210.46 C151.65 217.22, 137.53 220.27, 124.33 222.47 C111.14 224.66, 97.85 226.41, 84.99 223.64 C72.14 220.87, 58.41 214.37, 47.21 205.83 C36.01 197.29, 25.48 184.46, 17.79 172.42 C10.1 160.37, 3.56 146.44, 1.08 133.54 C-1.4 120.64, 0.29 108.41, 2.9 95.01 C5.52 81.61, 10.53 64.73, 16.77 53.12 C23.01 41.5, 29.77 33.67, 40.35 25.33 C50.92 16.99, 66.8 7.19, 80.22 3.07 C93.65 -1.04, 108.39 0.12, 120.92 0.66 C133.45 1.19, 149.42 4.48, 155.38 6.27 C161.35 8.07, 157.81 8.98, 156.71 11.44" stroke="#495057" stroke-width="1" fill="none"></path></g><g stroke-opacity="0.4" fill-opacity="0.4" stroke-linecap="round" transform="translate(171.20703124999983 104.44401041666669) rotate(0 111.9296875 111.9296875)"><path d="M199.18 39.5 C209.15 47.98, 214.73 62.66, 218.63 75.53 C222.52 88.4, 223.11 102.75, 222.55 116.72 C221.99 130.68, 220.6 147.13, 215.25 159.31 C209.91 171.49, 200.32 180.24, 190.49 189.82 C180.66 199.39, 168.78 211.35, 156.28 216.77 C143.77 222.18, 129.16 222.16, 115.44 222.33 C101.73 222.5, 87 222.39, 73.98 217.78 C60.96 213.16, 47.23 203.67, 37.32 194.63 C27.4 185.6, 20.29 175.17, 14.49 163.56 C8.69 151.94, 4.45 138.32, 2.53 124.96 C0.6 111.59, -0.39 96.57, 2.94 83.37 C6.27 70.17, 14.61 57.03, 22.5 45.74 C30.38 34.45, 38.85 22.67, 50.26 15.63 C61.68 8.59, 77.59 5.9, 90.97 3.5 C104.36 1.1, 117.41 -0.99, 130.56 1.21 C143.72 3.41, 157.77 9.24, 169.91 16.72 C182.04 24.2, 197.56 40.52, 203.36 46.08 C209.16 51.64, 206.34 48.91, 204.72 50.08 M38.97 23.32 C47.91 13.48, 64.62 8.19, 77.99 4 C91.36 -0.19, 105.74 -2.65, 119.19 -1.82 C132.63 -0.99, 146.13 3.1, 158.66 8.99 C171.2 14.88, 185.25 23.28, 194.38 33.51 C203.51 43.75, 208.97 57.67, 213.43 70.41 C217.9 83.15, 220.72 95.99, 221.17 109.93 C221.62 123.87, 220.55 140.91, 216.13 154.04 C211.72 167.17, 203.81 179.35, 194.68 188.7 C185.56 198.04, 173.65 204.74, 161.39 210.1 C149.14 215.47, 134.21 219.22, 121.13 220.88 C108.06 222.54, 95.51 223.74, 82.96 220.04 C70.42 216.34, 57.27 206.79, 45.86 198.7 C34.45 190.62, 21.64 183, 14.49 171.52 C7.34 160.05, 4.9 143.33, 2.96 129.85 C1.02 116.37, 0.44 104.07, 2.83 90.64 C5.23 77.21, 10.51 60.14, 17.33 49.25 C24.16 38.35, 39.89 28.73, 43.79 25.25 C47.69 21.76, 40.25 26.94, 40.73 28.34" stroke="#495057" stroke-width="1" fill="none"></path></g><g transform="translate(258.81640625000006 288.54296875) rotate(0 87 22.5)"><text x="0" y="32" font-family="Virgil, Segoe UI Emoji" font-size="36px" fill="#000000" text-anchor="start" style="white-space: pre;" direction="ltr">arithmetic</text></g><g transform="translate(312.09765625000006 107.06640625) rotate(0 18 12.5)"><text x="0" y="18" font-family="Virgil, Segoe UI Emoji" font-size="20px" fill="#000000" text-anchor="start" style="white-space: pre;" direction="ltr">Add</text></g><g transform="translate(471.10807291666646 204.69010416666663) rotate(0 28.5 25)"><text x="0" y="18" font-family="Virgil, Segoe UI Emoji" font-size="20px" fill="#000000" text-anchor="start" style="white-space: pre;" direction="ltr">Divide</text><text x="0" y="43" font-family="Virgil, Segoe UI Emoji" font-size="20px" fill="#000000" text-anchor="start" style="white-space: pre;" direction="ltr"></text></g><g transform="translate(486.27734374999994 391.55208333333326) rotate(0 27 12.5)"><text x="0" y="18" font-family="Virgil, Segoe UI Emoji" font-size="20px" fill="#000000" text-anchor="start" style="white-space: pre;" direction="ltr">Index</text></g><g transform="translate(137.22786458333326 403.3880208333333) rotate(0 44 12.5)"><text x="0" y="18" font-family="Virgil, Segoe UI Emoji" font-size="20px" fill="#000000" text-anchor="start" style="white-space: pre;" direction="ltr">Subtract</text></g></svg>