<svg version="1.1" xmlns="http://www.w3.org/2000/svg" viewBox="0 0 1887.2591145833335 1953.2845052083333" width="3774.518229166667" height="3906.5690104166665">
  <!-- svg-source:excalidraw -->
  
  <defs>
    <style>
      @font-face {
        font-family: "Virgil";
        src: url("https://excalidraw.com/Virgil.woff2");
      }
      @font-face {
        font-family: "Cascadia";
        src: url("https://excalidraw.com/Cascadia.woff2");
      }
    </style>
  </defs>
  <rect x="0" y="0" width="1887.2591145833335" height="1953.2845052083333" fill="#ffffff"></rect><g stroke-opacity="0.5" fill-opacity="0.5" stroke-linecap="round" transform="translate(671.5671288347071 712.7725527510686) rotate(0 264.3033854166667 264.3033854166667)"><path d="M301.05 3.22 C321.46 1.84, 342.58 11.91, 362.11 19.66 C381.64 27.41, 401.1 37.69, 418.24 49.74 C435.39 61.78, 451.19 75.99, 464.97 91.95 C478.76 107.91, 491.32 126.45, 500.97 145.51 C510.61 164.57, 518.17 185.57, 522.83 206.31 C527.48 227.06, 529.37 249.06, 528.88 270 C528.4 290.95, 525.59 311.57, 519.91 331.98 C514.24 352.4, 504.94 374.04, 494.84 392.49 C484.74 410.93, 473.57 427.14, 459.32 442.65 C445.07 458.16, 427.28 473.62, 409.36 485.55 C391.45 497.48, 371.74 507.37, 351.83 514.22 C331.93 521.06, 310.96 524.72, 289.94 526.63 C268.92 528.54, 246.46 528.44, 225.7 525.66 C204.95 522.88, 185.03 517.93, 165.41 509.94 C145.8 501.95, 125.16 490.44, 108.04 477.73 C90.92 465.03, 76.19 449.88, 62.7 433.7 C49.21 417.52, 36.38 399.57, 27.11 380.65 C17.84 361.74, 11.76 340.9, 7.1 320.21 C2.43 299.53, -1.34 277.42, -0.88 256.52 C-0.42 235.63, 4.23 215.07, 9.86 194.86 C15.48 174.64, 22.47 153.87, 32.86 135.24 C43.25 116.61, 57.48 98.49, 72.22 83.1 C86.96 67.7, 103.59 54.27, 121.32 42.88 C139.05 31.49, 158.75 21.85, 178.6 14.75 C198.45 7.65, 218.73 2.1, 240.42 0.26 C262.11 -1.57, 296.16 1.96, 308.77 3.76 C321.37 5.56, 316.94 6.65, 316.05 11.08 M339.62 11.7 C359.76 13.24, 378.49 26.03, 396.7 36.43 C414.91 46.83, 433.39 59.33, 448.86 74.08 C464.32 88.84, 478.42 106.87, 489.49 124.96 C500.56 143.05, 508.69 162.52, 515.28 182.63 C521.87 202.73, 527.24 224.45, 529.05 245.59 C530.87 266.73, 529.96 288.79, 526.17 309.47 C522.37 330.15, 514.88 350.31, 506.3 369.67 C497.73 389.04, 487.45 408.67, 474.73 425.64 C462.01 442.62, 446.77 458.58, 430 471.52 C413.24 484.47, 393.26 494.48, 374.12 503.32 C354.97 512.17, 335.78 520.23, 315.13 524.58 C294.47 528.93, 271.69 530.67, 250.21 529.44 C228.73 528.22, 206.48 523.73, 186.26 517.23 C166.04 510.72, 146.76 501.43, 128.88 490.41 C111.01 479.39, 93.84 465.86, 79.01 451.11 C64.18 436.35, 50.77 419.54, 39.9 401.9 C29.03 384.27, 20.44 365.37, 13.79 345.28 C7.13 325.19, 1.69 302.87, -0.02 281.38 C-1.73 259.88, -0.05 237.05, 3.54 216.29 C7.13 195.54, 12.98 176.1, 21.51 156.87 C30.04 137.64, 41.63 117.73, 54.71 100.94 C67.8 84.14, 83.1 68.92, 100.03 56.1 C116.97 43.28, 136.87 32.67, 156.34 24.04 C175.82 15.41, 196.07 8.36, 216.89 4.33 C237.71 0.29, 261.11 -1.18, 281.27 -0.17 C301.42 0.83, 328.35 7.67, 337.83 10.35 C347.31 13.03, 338.97 11.65, 338.15 15.88" stroke="#000000" stroke-width="4" fill="none"></path></g><g stroke-opacity="0.5" fill-opacity="0.5" stroke-linecap="round" transform="translate(1205.567128834707 721.7725527510686) rotate(0 264.30338541666674 264.3033854166667)"><path d="M388.43 30.55 C408.21 36.12, 425.51 53.24, 441.39 67.54 C457.27 81.83, 471.85 98.71, 483.69 116.33 C495.54 133.95, 505.23 153.62, 512.48 173.26 C519.73 192.89, 525.05 213.13, 527.2 234.13 C529.36 255.12, 528.03 278.35, 525.39 299.24 C522.75 320.13, 518.95 339.78, 511.35 359.46 C503.76 379.13, 492.29 399.7, 479.84 417.27 C467.38 434.83, 452.58 451.21, 436.63 464.84 C420.67 478.47, 402.92 489.6, 384.1 499.04 C365.29 508.47, 344.16 516.4, 323.74 521.46 C303.32 526.52, 282.76 529.68, 261.6 529.39 C240.43 529.09, 217.22 525.3, 196.75 519.69 C176.27 514.08, 157.2 505.81, 138.75 495.71 C120.3 485.62, 101.6 473.3, 86.06 459.1 C70.52 444.9, 57.39 428.13, 45.51 410.51 C33.62 392.89, 22.03 373.04, 14.74 353.4 C7.45 333.76, 3.98 313.51, 1.78 292.65 C-0.41 271.79, -1.4 249.37, 1.56 228.24 C4.52 207.11, 11.4 185.48, 19.52 165.87 C27.65 146.26, 37.99 127.67, 50.3 110.6 C62.62 93.53, 77.46 77.37, 93.41 63.45 C109.37 49.54, 127.14 36.59, 146.03 27.1 C164.93 17.62, 186.03 10.93, 206.8 6.54 C227.56 2.16, 249.65 0.27, 270.62 0.8 C291.59 1.33, 310.06 2.94, 332.59 9.71 C355.13 16.49, 391.53 33.69, 405.83 41.46 C420.13 49.23, 420.76 52.84, 418.42 56.34 M297.76 2.56 C318.1 0.94, 338.74 10.23, 358.52 17.8 C378.29 25.37, 398.79 35.84, 416.41 47.97 C434.03 60.1, 450.52 74.87, 464.23 90.59 C477.94 106.32, 489.08 123.58, 498.68 142.33 C508.29 161.09, 516.8 182.37, 521.88 203.12 C526.96 223.86, 529.56 245.93, 529.16 266.8 C528.76 287.68, 524.65 307.9, 519.49 328.37 C514.34 348.84, 508.09 370.62, 498.23 389.62 C488.37 408.61, 474.86 426.77, 460.35 442.35 C445.83 457.93, 428.64 471.61, 411.15 483.09 C393.66 494.57, 374.94 504.14, 355.4 511.23 C335.86 518.32, 314.7 523.22, 293.91 525.66 C273.12 528.09, 251.42 528.22, 230.64 525.84 C209.86 523.45, 189.16 519.01, 169.23 511.35 C149.29 503.7, 128.62 492.51, 111.03 479.89 C93.45 467.28, 77.68 451.59, 63.72 435.66 C49.77 419.72, 36.97 403.03, 27.31 384.26 C17.66 365.5, 10.47 343.79, 5.79 323.08 C1.11 302.37, -1.39 280.9, -0.76 260.02 C-0.13 239.14, 3.99 218.19, 9.57 197.82 C15.15 177.45, 22.57 156.59, 32.71 137.82 C42.86 119.06, 56.44 100.89, 70.44 85.24 C84.44 69.59, 99.2 55.51, 116.72 43.91 C134.25 32.31, 155.28 22.79, 175.59 15.65 C195.9 8.51, 218.59 3.44, 238.58 1.06 C258.57 -1.31, 285.89 0.32, 295.53 1.38 C305.17 2.44, 296.81 3.02, 296.4 7.41" stroke="#000000" stroke-width="2" fill="none"></path></g><g stroke-opacity="0.5" fill-opacity="0.5" stroke-linecap="round" transform="translate(945.3830700549456 258.0681256677351) rotate(0 264.3033854166667 264.3033854166667)"><path d="M326.81 6.68 C347.51 7.4, 368.19 19.96, 387 30.04 C405.81 40.12, 423.75 53.04, 439.68 67.16 C455.61 81.28, 470.72 97.57, 482.58 114.77 C494.43 131.96, 503.6 150.65, 510.81 170.34 C518.03 190.03, 523.08 211.81, 525.86 232.9 C528.65 253.99, 530.04 275.87, 527.54 296.9 C525.04 317.92, 518.47 339.49, 510.86 359.04 C503.25 378.6, 493.94 397.01, 481.88 414.22 C469.83 431.42, 454.47 448.33, 438.54 462.3 C422.62 476.27, 404.92 488.12, 386.34 498.05 C367.76 507.99, 347.71 516.96, 327.07 521.93 C306.43 526.89, 283.85 528.17, 262.49 527.83 C241.14 527.49, 219.2 524.83, 198.94 519.87 C178.69 514.91, 159.47 507.89, 140.98 498.05 C122.49 488.22, 103.86 475.06, 88.02 460.87 C72.18 446.69, 57.98 430.5, 45.94 412.93 C33.91 395.35, 23.21 375.3, 15.81 355.43 C8.4 335.55, 3.72 314.66, 1.51 293.69 C-0.7 272.72, -0.17 250.38, 2.55 229.62 C5.27 208.86, 10.17 188.63, 17.81 169.12 C25.46 149.62, 36.12 130.05, 48.42 112.58 C60.72 95.1, 75.73 78.21, 91.62 64.25 C107.51 50.28, 124.99 38.37, 143.77 28.78 C162.54 19.18, 183.45 11.32, 204.25 6.66 C225.06 2, 245.07 -0.16, 268.59 0.8 C292.1 1.76, 329.68 8.47, 345.36 12.42 C361.05 16.38, 363.85 20.4, 362.71 24.51 M343.05 11.69 C363.27 13.57, 382.81 28.71, 401.11 39.69 C419.41 50.67, 437.94 62.55, 452.86 77.57 C467.78 92.59, 480.01 111.37, 490.62 129.8 C501.23 148.22, 510.18 168.17, 516.5 188.11 C522.82 208.06, 527.41 228.41, 528.53 249.47 C529.64 270.54, 527.04 293.5, 523.21 314.52 C519.39 335.53, 514.34 356.3, 505.58 375.55 C496.82 394.8, 484.03 413.53, 470.65 430.02 C457.27 446.52, 442.12 461.82, 425.3 474.51 C408.48 487.2, 388.91 497.64, 369.72 506.15 C350.53 514.67, 330.74 521.73, 310.17 525.58 C289.6 529.44, 267.84 530.98, 246.31 529.29 C224.77 527.61, 201.11 522.31, 180.95 515.47 C160.8 508.63, 142.86 499.43, 125.37 488.28 C107.88 477.13, 91.11 463.6, 76.02 448.56 C60.94 433.53, 45.85 416.32, 34.87 398.05 C23.9 379.78, 15.85 359.44, 10.18 338.94 C4.51 318.44, 1.49 296.31, 0.87 275.04 C0.24 253.77, 2.17 231.83, 6.42 211.3 C10.66 190.77, 17.71 170.98, 26.31 151.88 C34.92 132.77, 44.82 112.92, 58.05 96.67 C71.28 80.43, 88.7 66.99, 105.68 54.41 C122.66 41.82, 140.57 29.81, 159.92 21.18 C179.27 12.55, 200.81 5.9, 221.78 2.62 C242.76 -0.66, 265.31 0, 285.76 1.5 C306.21 3, 334.81 8.81, 344.48 11.64 C354.15 14.48, 345.1 14.11, 343.76 18.51" stroke="#000000" stroke-width="2" fill="none"></path></g><g stroke-opacity="0.5" fill-opacity="0.5" stroke-linecap="round" transform="translate(414.47988925137406 249.4795840010687) rotate(0 264.30338541666674 264.3033854166667)"><path d="M230.74 2.05 C250.12 -4.85, 275.2 -1.27, 296.29 1.28 C317.38 3.83, 337.48 9.67, 357.26 17.35 C377.05 25.02, 397.55 35.45, 415.02 47.34 C432.49 59.23, 448.09 73.06, 462.09 88.7 C476.09 104.34, 489.34 122.33, 499.04 141.17 C508.74 160.01, 515.31 181.16, 520.26 201.76 C525.22 222.37, 528.83 243.6, 528.79 264.8 C528.74 286.01, 525.07 308.55, 519.98 328.97 C514.89 349.39, 508.14 368.76, 498.26 387.34 C488.39 405.93, 474.82 424.63, 460.72 440.49 C446.62 456.34, 431.08 470.57, 413.67 482.48 C396.25 494.39, 376.04 504.69, 356.22 511.95 C336.4 519.21, 315.72 523.47, 294.75 526.05 C273.77 528.62, 251.26 530.07, 230.35 527.4 C209.45 524.73, 188.96 517.89, 169.33 510 C149.7 502.11, 129.79 492.1, 112.57 480.07 C95.36 468.03, 79.77 453.45, 66.05 437.8 C52.32 422.15, 40.13 405.04, 30.23 386.17 C20.33 367.29, 11.78 345.34, 6.63 324.55 C1.48 303.77, -0.83 282.53, -0.7 261.46 C-0.56 240.39, 2.16 218.52, 7.44 198.14 C12.72 177.76, 20.67 157.85, 30.99 139.2 C41.32 120.56, 55.01 102.04, 69.37 86.27 C83.73 70.5, 99.9 56.18, 117.16 44.58 C134.41 32.99, 150.2 24.17, 172.91 16.72 C195.63 9.27, 236.04 1.74, 253.46 -0.11 C270.88 -1.95, 276.97 1.08, 277.45 5.65 M351.31 13.99 C371.89 16.69, 392.34 30.84, 410.07 42.5 C427.8 54.17, 443.7 68.48, 457.7 83.97 C471.69 99.46, 483.85 116.66, 494.03 135.44 C504.22 154.21, 513.05 176.27, 518.81 196.63 C524.56 216.99, 528.2 236.88, 528.58 257.61 C528.95 278.34, 525.67 299.99, 521.06 320.98 C516.45 341.98, 510.09 364.64, 500.91 383.58 C491.74 402.53, 479.64 418.66, 466.01 434.67 C452.38 450.68, 436.28 467.39, 419.11 479.63 C401.94 491.88, 382.84 500.28, 363.01 508.14 C343.18 516, 321.2 523.62, 300.15 526.79 C279.1 529.97, 257.37 529.57, 236.69 527.19 C216.01 524.8, 196.01 519.78, 176.06 512.48 C156.12 505.17, 135 494.86, 117.02 483.36 C99.04 471.86, 82.5 458.82, 68.18 443.49 C53.87 428.16, 41 410.01, 31.13 391.4 C21.26 372.79, 13.9 352.47, 8.96 331.81 C4.03 311.16, 1.68 288.7, 1.5 267.47 C1.32 246.23, 3.49 225.03, 7.89 204.4 C12.3 183.77, 18.45 162.29, 27.93 143.69 C37.41 125.08, 50.87 108.68, 64.77 92.75 C78.67 76.82, 94.1 60.45, 111.32 48.11 C128.54 35.78, 148.38 26.28, 168.11 18.71 C187.84 11.15, 208.78 5.52, 229.71 2.73 C250.64 -0.07, 273.29 -0.14, 293.7 1.97 C314.11 4.07, 342.95 12.37, 352.17 15.37 C361.4 18.38, 350.61 15.69, 349.05 20.01" stroke="#000000" stroke-width="2" fill="none"></path></g><g stroke-opacity="0.5" fill-opacity="0.5" stroke-linecap="round" transform="translate(140.73509758470726 698.5056256677353) rotate(0 264.3033854166667 264.3033854166667)"><path d="M269.9 -0.63 C289.99 -4.47, 313.01 2.8, 333.23 8.41 C353.45 14.03, 372.86 22.74, 391.21 33.07 C409.56 43.39, 427.52 56.04, 443.32 70.38 C459.13 84.72, 474.31 101.55, 486.02 119.11 C497.73 136.66, 506.59 155.66, 513.56 175.7 C520.52 195.73, 525.9 218.28, 527.81 239.29 C529.72 260.3, 528.08 280.85, 525.02 301.77 C521.96 322.69, 517.27 345.11, 509.46 364.8 C501.66 384.49, 490.67 402.79, 478.17 419.91 C465.67 437.03, 450.73 454.01, 434.46 467.53 C418.18 481.06, 399.44 492.01, 380.52 501.04 C361.59 510.08, 341.49 517.12, 320.91 521.77 C300.34 526.41, 278.1 529.46, 257.06 528.93 C236.02 528.39, 215.14 524.16, 194.65 518.58 C174.17 513, 152.56 505.92, 134.14 495.46 C115.72 485, 99.51 470.53, 84.13 455.81 C68.76 441.09, 53.45 424.62, 41.88 407.13 C30.32 389.65, 21.61 370.72, 14.75 350.9 C7.89 331.08, 2.51 309.29, 0.71 288.23 C-1.09 267.17, 0.83 245.38, 3.96 224.54 C7.08 203.7, 11.34 182.93, 19.45 163.19 C27.57 143.45, 39.86 123.06, 52.65 106.08 C65.43 89.1, 80 74.69, 96.15 61.31 C112.3 47.93, 130.54 35.19, 149.53 25.81 C168.52 16.43, 187.72 9.31, 210.09 5.05 C232.46 0.78, 269.56 -0.04, 283.76 0.22 C297.96 0.48, 295.74 2.27, 295.31 6.62 M289.69 1.36 C310 -1.31, 332.14 6.73, 352.13 13.99 C372.11 21.25, 391.92 32.86, 409.6 44.91 C427.28 56.96, 443.84 70.71, 458.19 86.28 C472.55 101.86, 485.64 119.89, 495.71 138.37 C505.78 156.84, 513 177.11, 518.62 197.11 C524.24 217.1, 528.95 237.28, 529.43 258.33 C529.92 279.37, 526.2 302.7, 521.55 323.38 C516.91 344.06, 511 363.8, 501.58 382.39 C492.16 400.98, 478.87 418.79, 465.03 434.91 C451.2 451.04, 435.81 466.87, 418.58 479.16 C401.34 491.45, 381.48 500.95, 361.63 508.64 C341.79 516.33, 320.28 522.22, 299.5 525.3 C278.71 528.38, 257.98 529.32, 236.92 527.12 C215.87 524.93, 193.23 519.34, 173.16 512.14 C153.1 504.95, 134.15 495.87, 116.52 483.95 C98.89 472.03, 81.34 456.44, 67.4 440.64 C53.46 424.84, 42.49 407.4, 32.9 389.15 C23.31 370.91, 15.42 351.3, 9.86 331.18 C4.31 311.05, 0.24 289.71, -0.42 268.4 C-1.07 247.09, 1.01 223.97, 5.94 203.32 C10.87 182.67, 19.46 163.5, 29.15 144.51 C38.84 125.52, 50.27 105.56, 64.08 89.38 C77.89 73.21, 94.35 59.49, 112.03 47.46 C129.72 35.44, 150.28 24.57, 170.2 17.21 C190.13 9.86, 211.41 5.84, 231.56 3.34 C251.7 0.85, 281.18 1.89, 291.1 2.27 C301.01 2.65, 291.43 1.18, 291.04 5.64" stroke="#000000" stroke-width="2" fill="none"></path></g><g stroke-opacity="0.5" fill-opacity="0.5" stroke-linecap="round" transform="translate(394.3535871680406 1166.9457298344018) rotate(0 264.30338541666674 264.3033854166667)"><path d="M140.34 29.82 C156.15 16.62, 179.42 13.19, 199.93 8.12 C220.44 3.06, 242.26 -0.53, 263.41 -0.57 C284.56 -0.6, 306.38 2.89, 326.85 7.9 C347.33 12.91, 367.46 19.86, 386.26 29.52 C405.06 39.17, 423.68 51.63, 439.64 65.82 C455.61 80, 470.06 97.29, 482.06 114.62 C494.05 131.95, 504.21 150.21, 511.63 169.79 C519.04 189.36, 523.98 210.87, 526.53 232.06 C529.09 253.24, 529.39 275.68, 526.97 296.9 C524.56 318.12, 519.6 339.52, 512.03 359.36 C504.46 379.2, 493.74 398.59, 481.55 415.96 C469.35 433.32, 454.69 449.68, 438.88 463.54 C423.07 477.4, 405.57 489.6, 386.69 499.14 C367.8 508.69, 346.06 515.77, 325.58 520.8 C305.1 525.82, 284.76 529.27, 263.82 529.31 C242.88 529.35, 220.52 526.33, 199.95 521.01 C179.38 515.69, 159.04 507.27, 140.41 497.41 C121.78 487.55, 103.85 475.91, 88.18 461.85 C72.52 447.8, 58.27 430.76, 46.42 413.08 C34.58 395.4, 24.72 375.61, 17.12 355.76 C9.52 335.91, 3.45 314.99, 0.81 293.99 C-1.82 272.99, -1.47 250.69, 1.31 229.75 C4.09 208.81, 9.69 188.16, 17.51 168.35 C25.33 148.53, 35.8 128.32, 48.23 110.87 C60.67 93.41, 73.9 78.35, 92.11 63.6 C110.32 48.84, 143.57 29.53, 157.49 22.36 C171.42 15.18, 173.97 16.63, 175.68 20.56 M367.39 18.94 C387.99 22.52, 406.38 39.17, 423.07 51.96 C439.76 64.75, 454.29 79.18, 467.54 95.69 C480.79 112.2, 493.2 132.07, 502.56 151.05 C511.93 170.02, 519.3 189.26, 523.73 209.53 C528.16 229.8, 530.2 251.43, 529.14 272.66 C528.08 293.9, 523.39 316.5, 517.39 336.95 C511.38 357.41, 503.35 377.15, 493.1 395.4 C482.85 413.65, 470.45 431.27, 455.89 446.44 C441.34 461.62, 423.92 474.92, 405.75 486.46 C387.58 498, 366.67 508.82, 346.89 515.68 C327.1 522.55, 307.65 526.25, 287.06 527.63 C266.47 529, 244.63 527.42, 223.37 523.92 C202.12 520.42, 178.99 514.78, 159.52 506.63 C140.06 498.48, 123.46 487.84, 106.58 475.03 C89.71 462.22, 71.91 446.35, 58.27 429.78 C44.64 413.21, 33.64 394.5, 24.76 375.61 C15.87 356.71, 9.18 337.03, 4.97 316.39 C0.75 295.75, -1.35 272.81, -0.53 251.78 C0.3 230.75, 3.66 210.44, 9.9 190.23 C16.14 170.02, 26.27 148.76, 36.89 130.55 C47.51 112.33, 58.96 95.94, 73.63 80.95 C88.31 65.97, 106.73 51.99, 124.93 40.65 C143.12 29.3, 162.68 19.39, 182.8 12.89 C202.93 6.38, 224.64 3.16, 245.67 1.63 C266.7 0.1, 289.01 0.83, 309 3.7 C329 6.57, 356.48 15.45, 365.64 18.86 C374.81 22.28, 365.87 19.68, 364 24.19" stroke="#000000" stroke-width="2" fill="none"></path></g><g stroke-opacity="0.5" fill-opacity="0.5" stroke-linecap="round" transform="translate(928.4645647321433 1177.1063058035716) rotate(0 264.3033854166667 264.3033854166667)"><path d="M259.38 -0.66 C279.26 -5.01, 301.39 2.46, 321.95 7.35 C342.51 12.24, 363.63 19.21, 382.76 28.69 C401.89 38.18, 420.47 50.71, 436.72 64.26 C452.98 77.81, 468.03 92.89, 480.31 110.01 C492.58 127.12, 502.76 147.26, 510.4 166.94 C518.03 186.62, 523.25 207.15, 526.09 228.09 C528.94 249.03, 529.6 271.48, 527.46 292.58 C525.33 313.68, 520.58 334.8, 513.27 354.67 C505.97 374.53, 495.57 394.29, 483.62 411.79 C471.67 429.29, 457.22 445.58, 441.56 459.66 C425.9 473.73, 408.33 486.05, 389.66 496.25 C370.98 506.45, 350.08 515.55, 329.5 520.85 C308.92 526.14, 287.13 527.74, 266.17 528 C245.21 528.27, 224.15 527.29, 203.72 522.46 C183.29 517.63, 162.53 508.87, 143.59 499.02 C124.64 489.17, 105.87 477.23, 90.05 463.37 C74.22 449.51, 60.71 433.05, 48.66 415.85 C36.61 398.65, 25.37 379.96, 17.74 360.17 C10.12 340.37, 5.43 317.93, 2.9 297.08 C0.37 276.24, 0.28 255.93, 2.56 235.08 C4.83 214.22, 9.34 191.88, 16.56 171.95 C23.77 152.02, 33.74 132.96, 45.84 115.48 C57.93 97.99, 73.32 81.24, 89.13 67.03 C104.94 52.82, 122.03 39.96, 140.7 30.23 C159.38 20.49, 178.41 13.53, 201.17 8.6 C223.94 3.68, 261.63 0.85, 277.27 0.68 C292.91 0.52, 295.15 3.37, 295.03 7.63 M340.21 11.51 C360.68 13.01, 380.17 25.07, 398.57 35.92 C416.97 46.78, 435.67 61.54, 450.62 76.64 C465.57 91.74, 477.32 108.53, 488.27 126.5 C499.23 144.47, 509.64 164.51, 516.34 184.47 C523.05 204.44, 527.29 225.1, 528.49 246.3 C529.69 267.51, 527.41 290.75, 523.55 311.7 C519.68 332.65, 513.93 352.89, 505.32 372.03 C496.71 391.16, 484.89 409.69, 471.87 426.51 C458.85 443.33, 443.6 459.72, 427.19 472.94 C410.77 486.16, 392.36 497.14, 373.37 505.82 C354.37 514.5, 334.05 521.35, 313.2 525.03 C292.35 528.71, 269.72 529.11, 248.27 527.91 C226.81 526.7, 204.67 524.1, 184.49 517.79 C164.31 511.48, 145 500.93, 127.19 490.05 C109.38 479.17, 92.65 467.62, 77.63 452.49 C62.61 437.37, 47.94 417.49, 37.06 399.29 C26.18 381.09, 18.68 363.03, 12.37 343.3 C6.05 323.57, 0.3 302.24, -0.85 280.91 C-2.01 259.57, 1.47 236.41, 5.42 215.28 C9.37 194.16, 14.33 173.36, 22.85 154.17 C31.36 134.99, 43.27 116.78, 56.5 100.16 C69.72 83.53, 85.21 67.44, 102.19 54.42 C119.17 41.41, 138.98 30.49, 158.38 22.08 C177.78 13.67, 197.75 7.3, 218.57 3.96 C239.38 0.61, 263.11 1.01, 283.25 2.02 C303.38 3.02, 330.26 7.45, 339.36 10 C348.46 12.54, 339.05 12.9, 337.84 17.29" stroke="#000000" stroke-width="2" fill="none"></path></g><g stroke-opacity="0.5" fill-opacity="0.5" stroke-linecap="round" transform="translate(818.5878906250005 490.47460937500034) rotate(0 264.30338541666674 264.3033854166667)"><path d="M201.57 8.26 C220 -0.87, 242.56 0, 263.69 -0.21 C284.82 -0.42, 307.62 1.81, 328.36 7 C349.11 12.2, 369.57 21.07, 388.16 30.96 C406.74 40.86, 424.16 52.44, 439.86 66.37 C455.55 80.3, 470.41 97.04, 482.34 114.52 C494.26 132.01, 503.86 151.35, 511.4 171.26 C518.93 191.17, 524.98 212.91, 527.55 233.98 C530.12 255.05, 529.68 276.67, 526.81 297.68 C523.94 318.68, 517.95 340.39, 510.35 359.99 C502.75 379.59, 493.29 398, 481.21 415.27 C469.13 432.55, 453.94 449.69, 437.86 463.65 C421.79 477.62, 403.44 489.29, 384.79 499.05 C366.14 508.81, 346.54 517.27, 325.97 522.19 C305.4 527.12, 282.64 529.05, 261.38 528.6 C240.13 528.14, 218.93 524.63, 198.44 519.46 C177.95 514.28, 156.85 507.45, 138.43 497.54 C120.02 487.63, 103.47 474.24, 87.97 460 C72.47 445.76, 57.35 429.44, 45.43 412.11 C33.5 394.77, 23.61 375.96, 16.44 356.01 C9.26 336.07, 4.8 313.55, 2.39 292.41 C-0.01 271.27, -0.58 250.08, 2.01 229.18 C4.6 208.28, 10.2 186.53, 17.92 167.01 C25.65 147.49, 36.04 129.31, 48.36 112.06 C60.69 94.82, 75.75 77.49, 91.85 63.55 C107.95 49.61, 123.57 38.35, 144.97 28.44 C166.36 18.53, 204.38 7.77, 220.22 4.1 C236.05 0.43, 239.11 2.01, 239.99 6.44 M252.24 -0.98 C271.91 -6.43, 294.33 -0.97, 315.06 3.42 C335.78 7.8, 357.23 16.36, 376.6 25.33 C395.96 34.29, 414.84 44.22, 431.24 57.21 C447.64 70.2, 462.37 86.22, 475 103.27 C487.63 120.31, 498.95 140.15, 507.03 159.5 C515.11 178.84, 519.99 198.62, 523.47 219.35 C526.94 240.09, 529.12 262.72, 527.87 283.93 C526.63 305.14, 522.47 326.72, 516.02 346.62 C509.57 366.53, 500.54 385.25, 489.19 403.36 C477.83 421.47, 463.41 440.52, 447.87 455.29 C432.33 470.06, 414.38 481.51, 395.96 491.96 C377.55 502.4, 357.69 512.11, 337.39 517.97 C317.1 523.82, 295.08 526.28, 274.19 527.09 C253.31 527.9, 232.86 526.61, 212.08 522.85 C191.3 519.08, 168.49 513.39, 149.51 504.51 C130.52 495.63, 114.08 483.05, 98.2 469.58 C82.32 456.11, 67 440.63, 54.23 423.71 C41.46 406.79, 29.91 387.65, 21.59 368.06 C13.27 348.46, 7.89 326.95, 4.31 306.11 C0.73 285.27, -1.45 263.98, 0.1 243.01 C1.64 222.04, 6.76 200.6, 13.58 180.29 C20.4 159.99, 29.34 139.33, 41.02 121.17 C52.7 103, 68.41 85.64, 83.67 71.29 C98.93 56.94, 114.68 45.21, 132.58 35.06 C150.48 24.92, 171.09 16.2, 191.05 10.42 C211 4.65, 242.23 0.97, 252.31 0.39 C262.4 -0.18, 251.5 2.48, 251.56 6.95" stroke="#000000" stroke-width="1" fill="none"></path></g><g stroke-opacity="0.5" fill-opacity="0.5" stroke-linecap="round" transform="translate(945.3830700549456 709.7636718750002) rotate(0 264.30338541666674 264.3033854166667)"><path d="M149.03 26.4 C165.46 13.69, 190.08 9.61, 211.04 5.08 C231.99 0.55, 253.87 -1.62, 274.75 -0.78 C295.64 0.06, 316.13 4.19, 336.35 10.13 C356.58 16.07, 377.76 24.23, 396.11 34.85 C414.46 45.47, 431.3 59.37, 446.45 73.86 C461.6 88.35, 475.65 103.89, 487.01 121.79 C498.38 139.69, 507.75 160.94, 514.65 181.23 C521.55 201.53, 526.61 222.64, 528.43 243.56 C530.24 264.48, 528.91 285.96, 525.54 306.76 C522.17 327.55, 516.55 348.93, 508.22 368.33 C499.89 387.73, 488.55 406.15, 475.57 423.14 C462.58 440.14, 446.81 457, 430.31 470.31 C413.81 483.63, 395.54 494.19, 376.58 503.04 C357.62 511.88, 337.3 519.21, 316.57 523.4 C295.84 527.59, 273.33 529.15, 252.2 528.17 C231.07 527.19, 209.88 523.43, 189.78 517.51 C169.68 511.59, 149.81 503.14, 131.61 492.64 C113.41 482.13, 95.87 469.04, 80.6 454.47 C65.32 439.89, 51.08 423.14, 39.94 405.18 C28.8 387.22, 20.28 366.86, 13.76 346.72 C7.25 326.58, 2.58 305.62, 0.84 284.32 C-0.89 263.02, -0.28 239.87, 3.35 218.93 C6.99 197.99, 14.19 177.95, 22.67 158.68 C31.14 139.4, 41.43 120.14, 54.21 103.28 C66.99 86.43, 81.03 71.51, 99.36 57.55 C117.69 43.58, 150.88 25.71, 164.19 19.5 C177.5 13.3, 177.85 16.02, 179.22 20.31 M261.69 1.2 C281.97 -3.59, 305.69 2.11, 326.08 6.75 C346.47 11.39, 365.24 19.45, 384.05 29.03 C402.85 38.62, 422.68 50.57, 438.89 64.25 C455.11 77.93, 469.46 93.61, 481.32 111.12 C493.19 128.63, 502.45 149.44, 510.09 169.3 C517.72 189.16, 524.12 209.52, 527.14 230.28 C530.16 251.04, 530.59 272.89, 528.21 293.87 C525.83 314.85, 520.23 336.14, 512.84 356.16 C505.46 376.18, 496.13 396.36, 483.89 414 C471.66 431.64, 455.55 448.17, 439.43 461.99 C423.32 475.81, 405.87 487.13, 387.18 496.92 C368.49 506.71, 347.87 515.24, 327.29 520.74 C306.71 526.24, 284.6 529.82, 263.7 529.9 C242.8 529.98, 222.15 526.34, 201.89 521.22 C181.63 516.1, 160.91 508.78, 142.15 499.19 C123.4 489.6, 105.35 477.86, 89.36 463.69 C73.38 449.52, 58.28 431.74, 46.27 414.18 C34.25 396.63, 24.68 378.19, 17.27 358.38 C9.86 338.56, 4.48 316.22, 1.79 295.3 C-0.89 274.38, -1.55 253.6, 1.15 232.89 C3.84 212.17, 10.12 190.99, 17.96 171.03 C25.8 151.07, 36.24 130.45, 48.18 113.13 C60.12 95.82, 73.8 80.98, 89.59 67.16 C105.38 53.34, 124.11 40.13, 142.91 30.2 C161.72 20.27, 182.6 12.53, 202.43 7.59 C222.26 2.65, 252 1.05, 261.92 0.54 C271.83 0.04, 261.83 0.07, 261.94 4.54" stroke="#000000" stroke-width="1" fill="none"></path></g><g stroke-opacity="0.5" fill-opacity="0.5" stroke-linecap="round" transform="translate(414.4798892513742 714.5175781250005) rotate(0 264.30338541666663 264.3033854166667)"><path d="M293.32 1.29 C313.89 -0.91, 336.39 8.09, 356.14 15.53 C375.9 22.96, 394.4 34.01, 411.85 45.9 C429.3 57.8, 446.55 71.25, 460.83 86.88 C475.11 102.51, 487.45 121.12, 497.52 139.68 C507.59 158.25, 516.17 177.82, 521.23 198.26 C526.3 218.71, 527.98 241.15, 527.93 262.35 C527.88 283.56, 525.81 304.86, 520.94 325.49 C516.07 346.11, 508.3 367.41, 498.68 386.08 C489.07 404.75, 477.03 421.66, 463.27 437.48 C449.5 453.3, 433.57 468.92, 416.08 481.01 C398.59 493.1, 378.26 502.38, 358.33 510.01 C338.41 517.64, 317.43 524.02, 296.54 526.8 C275.64 529.57, 253.87 529, 232.98 526.64 C212.08 524.29, 190.95 520.16, 171.16 512.65 C151.36 505.15, 131.68 493.59, 114.23 481.61 C96.78 469.63, 80.55 456.44, 66.46 440.78 C52.36 425.11, 39.61 406.33, 29.66 387.63 C19.7 368.92, 11.64 349.07, 6.7 328.55 C1.77 308.04, -0.05 285.67, 0.06 264.54 C0.17 243.4, 2.37 222.3, 7.36 201.76 C12.35 181.22, 20.09 159.97, 30.02 141.28 C39.95 122.59, 52.75 105.42, 66.95 89.61 C81.16 73.79, 97.75 58.48, 115.28 46.38 C132.8 34.28, 152.42 24.34, 172.1 17.01 C191.77 9.68, 211.69 4.86, 233.34 2.4 C254.99 -0.06, 289.38 1.07, 302.01 2.25 C314.64 3.44, 309.88 5.16, 309.1 9.51 M293.24 2.95 C313.69 1.22, 335.39 10.01, 355.01 16.89 C374.62 23.77, 393.49 32.74, 410.94 44.21 C428.4 55.68, 445.34 69.78, 459.73 85.72 C474.12 101.65, 487.29 120.92, 497.27 139.81 C507.26 158.71, 514.61 178.98, 519.64 199.1 C524.67 219.23, 526.94 239.54, 527.45 260.56 C527.96 281.58, 527.6 304.58, 522.72 325.22 C517.84 345.85, 507.96 365.69, 498.15 384.36 C488.35 403.03, 477.64 421.26, 463.89 437.24 C450.15 453.22, 433.25 468.19, 415.7 480.25 C398.15 492.31, 378.04 502.07, 358.59 509.6 C339.13 517.13, 319.53 522.79, 298.96 525.43 C278.39 528.07, 256.56 527.7, 235.15 525.43 C213.73 523.17, 190.37 519.09, 170.48 511.85 C150.6 504.6, 133.14 493.76, 115.84 481.97 C98.54 470.17, 81.05 456.93, 66.69 441.08 C52.33 425.22, 39.34 405.67, 29.67 386.84 C20.01 368.01, 13.88 348.7, 8.71 328.1 C3.53 307.51, -1.15 284.28, -1.38 263.26 C-1.6 242.23, 1.84 222.43, 7.34 201.97 C12.85 181.51, 21.63 159.25, 31.64 140.49 C41.65 121.72, 53.42 105.16, 67.41 89.38 C81.39 73.6, 98.22 57.65, 115.52 45.82 C132.82 34, 151.63 25.64, 171.22 18.43 C190.81 11.22, 212.57 5.34, 233.04 2.55 C253.51 -0.23, 284.03 1.02, 294.05 1.71 C304.07 2.4, 294.03 2.2, 293.13 6.72" stroke="#000000" stroke-width="1" fill="none"></path></g><g stroke-opacity="0.5" fill-opacity="0.5" stroke-linecap="round" transform="translate(550.76171875 949.541015625) rotate(0 264.3033854166667 264.3033854166667)"><path d="M152.62 24.17 C168.86 11.89, 192.23 8.82, 213.08 5.02 C233.93 1.21, 256.61 0.26, 277.73 1.32 C298.84 2.39, 319.65 5.49, 339.79 11.43 C359.93 17.36, 380.12 26.26, 398.58 36.92 C417.04 47.58, 435.43 60.52, 450.56 75.37 C465.69 90.23, 478.32 107.82, 489.36 126.05 C500.41 144.27, 510.22 164.47, 516.82 184.69 C523.42 204.92, 527.61 226.28, 528.96 247.4 C530.3 268.52, 528.59 290.81, 524.89 311.41 C521.2 332.01, 515.49 351.85, 506.77 371.02 C498.04 390.2, 485.7 409.67, 472.53 426.45 C459.36 443.23, 444.12 458.54, 427.76 471.69 C411.39 484.84, 393.6 496.56, 374.35 505.36 C355.11 514.17, 333.31 520.85, 312.27 524.53 C291.23 528.22, 269.03 528.66, 248.13 527.46 C227.24 526.27, 206.85 523.43, 186.91 517.35 C166.97 511.27, 146.75 502.15, 128.5 490.99 C110.26 479.82, 92.61 465.33, 77.42 450.38 C62.23 435.44, 48.44 419.24, 37.37 401.33 C26.3 383.42, 17.13 363.14, 10.98 342.93 C4.83 322.72, 1.39 301.08, 0.47 280.07 C-0.46 259.06, 1.57 237.69, 5.43 216.87 C9.28 196.06, 15.05 174.67, 23.62 155.17 C32.18 135.68, 43.79 116.5, 56.81 99.91 C69.84 83.32, 83.73 69.25, 101.74 55.62 C119.75 41.99, 151.9 24.23, 164.88 18.11 C177.86 11.98, 177.7 14.48, 179.6 18.88 M229.4 1.22 C248.45 -5.4, 271.16 0.49, 291.8 2.94 C312.44 5.39, 333.39 9.01, 353.24 15.92 C373.09 22.84, 393.01 32.47, 410.89 44.44 C428.77 56.41, 446.07 71.83, 460.54 87.73 C475.01 103.62, 487.75 121.61, 497.74 139.81 C507.72 158.01, 515.54 176.81, 520.45 196.93 C525.35 217.04, 526.82 238.89, 527.16 260.49 C527.5 282.09, 526.99 305.66, 522.47 326.52 C517.96 347.38, 509.95 367.31, 500.07 385.66 C490.2 404.01, 477.12 420.86, 463.22 436.62 C449.31 452.37, 433.86 467.68, 416.64 480.19 C399.43 492.7, 379.81 503.9, 359.92 511.66 C340.02 519.42, 318.28 524.36, 297.27 526.74 C276.26 529.11, 254.98 528.49, 233.88 525.91 C212.78 523.34, 190.39 518.63, 170.66 511.28 C150.93 503.93, 132.93 493.85, 115.49 481.82 C98.06 469.78, 80.29 454.65, 66.04 439.07 C51.8 423.5, 39.7 406.64, 30.03 388.36 C20.36 370.07, 13.23 349.71, 8.04 329.35 C2.85 308.99, -0.86 287.58, -1.11 266.2 C-1.36 244.81, 1.27 221.89, 6.55 201.06 C11.83 180.22, 20.48 159.78, 30.58 141.17 C40.68 122.56, 53.15 104.87, 67.15 89.39 C81.16 73.91, 97.21 60.39, 114.62 48.26 C132.02 36.13, 152.45 24.12, 171.58 16.59 C190.72 9.07, 219.68 4.53, 229.41 3.12 C239.14 1.72, 229.75 4.01, 229.97 8.16" stroke="#000000" stroke-width="1" fill="none"></path></g><g stroke-opacity="0.5" fill-opacity="0.5" stroke-linecap="round" transform="translate(794.3750000000002 958.095703125) rotate(0 264.30338541666663 264.3033854166667)"><path d="M233.26 1.06 C252.47 -5.78, 275.7 -1.44, 296.87 1.38 C318.03 4.2, 340.54 10.16, 360.26 17.99 C379.99 25.83, 397.92 36.22, 415.21 48.39 C432.51 60.56, 450.16 75.21, 464.04 91.03 C477.91 106.84, 488.9 124.71, 498.46 143.28 C508.03 161.85, 516.52 181.7, 521.43 202.45 C526.33 223.2, 528.03 246.6, 527.87 267.77 C527.72 288.93, 525.74 309.28, 520.49 329.44 C515.23 349.6, 506.33 370.14, 496.35 388.73 C486.37 407.33, 474.83 425.17, 460.59 441.01 C446.36 456.85, 428.5 471.99, 410.96 483.78 C393.43 495.57, 375.13 504.58, 355.36 511.74 C335.58 518.9, 313.45 524.24, 292.3 526.74 C271.15 529.23, 249.33 529.57, 228.43 526.72 C207.54 523.87, 186.51 517.38, 166.93 509.63 C147.35 501.89, 128.09 492.53, 110.95 480.26 C93.82 467.99, 77.95 452.11, 64.1 436 C50.25 419.9, 37.52 402.47, 27.84 383.63 C18.17 364.8, 10.61 343.66, 6.07 322.98 C1.52 302.31, -0.03 280.7, 0.56 259.61 C1.16 238.52, 4.44 216.97, 9.64 196.42 C14.83 175.88, 21.65 154.76, 31.73 136.33 C41.81 117.9, 55.63 101.28, 70.12 85.86 C84.6 70.43, 100.91 55.62, 118.63 43.78 C136.36 31.94, 155.43 21.82, 176.46 14.8 C197.49 7.78, 231.59 3.37, 244.8 1.67 C258.01 -0.03, 255.42 0.5, 255.72 4.59 M138.79 31.49 C154.4 17.86, 176.96 12.94, 197.06 7.45 C217.16 1.96, 238.32 -1.25, 259.41 -1.45 C280.49 -1.65, 302.73 1.43, 323.57 6.25 C344.4 11.08, 365.52 18.01, 384.44 27.5 C403.37 36.99, 420.98 48.9, 437.12 63.19 C453.27 77.48, 469.28 95.91, 481.31 113.25 C493.34 130.6, 501.96 147.87, 509.31 167.25 C516.65 186.63, 522.32 208.25, 525.39 229.51 C528.46 250.78, 529.85 273.81, 527.73 294.83 C525.6 315.86, 520.02 335.83, 512.64 355.65 C505.25 375.47, 495.1 396.28, 483.41 413.75 C471.72 431.22, 458.36 446.53, 442.49 460.47 C426.62 474.4, 407.3 487.55, 388.16 497.37 C369.03 507.19, 348.23 514.04, 327.66 519.39 C307.1 524.74, 285.9 529.09, 264.77 529.45 C243.63 529.8, 221.07 526.74, 200.85 521.51 C180.64 516.29, 162.05 507.98, 143.45 498.11 C124.86 488.24, 105.23 476.3, 89.3 462.28 C73.38 448.26, 59.69 431.04, 47.9 413.99 C36.11 396.94, 26.21 379.8, 18.59 360 C10.97 340.2, 4.93 316.29, 2.18 295.17 C-0.56 274.05, -0.54 254.09, 2.14 233.27 C4.82 212.45, 10.62 189.96, 18.25 170.23 C25.89 150.51, 36.14 132.07, 47.93 114.94 C59.73 97.81, 74.1 81.48, 89.01 67.47 C103.93 53.47, 128.63 36.18, 137.4 30.93 C146.18 25.67, 139.28 31.78, 141.67 35.92" stroke="#000000" stroke-width="1" fill="none"></path></g><g stroke-opacity="0.5" fill-opacity="0.5" stroke-linecap="round" transform="translate(557.4316406250003 488.408203125) rotate(0 264.30338541666663 264.3033854166667)"><path d="M225.72 3.02 C244.88 -4.14, 268.46 -1.34, 289.7 0.82 C310.95 2.99, 333.21 8.93, 353.18 16.01 C373.15 23.09, 392.04 31.72, 409.54 43.32 C427.03 54.93, 443.67 70.24, 458.15 85.66 C472.64 101.07, 486.32 117.54, 496.44 135.81 C506.55 154.09, 513.44 174.92, 518.84 195.32 C524.24 215.72, 528.34 237.12, 528.83 258.24 C529.33 279.36, 526.45 301.16, 521.82 322.03 C517.18 342.9, 510.6 364.56, 501.01 383.44 C491.41 402.33, 478.12 419.49, 464.26 435.36 C450.39 451.24, 435.02 466.39, 417.82 478.69 C400.63 490.99, 380.68 501.41, 361.08 509.16 C341.49 516.91, 320.93 522.28, 300.24 525.18 C279.55 528.07, 258 528.71, 236.95 526.54 C215.9 524.38, 193.83 519.14, 173.96 512.19 C154.1 505.23, 135.39 496.43, 117.76 484.82 C100.12 473.22, 82.62 458.45, 68.16 442.55 C53.7 426.65, 41.07 408.02, 31.01 389.41 C20.95 370.81, 12.9 351.41, 7.82 330.93 C2.73 310.45, 0.61 287.85, 0.49 266.54 C0.38 245.23, 2.41 223.64, 7.12 203.09 C11.83 182.55, 19.05 161.95, 28.75 143.26 C38.44 124.58, 51.34 106.88, 65.28 91 C79.22 75.12, 95.02 60.3, 112.38 47.98 C129.74 35.66, 148.1 24.77, 169.44 17.07 C190.78 9.37, 226.16 3.8, 240.41 1.78 C254.67 -0.23, 254.56 0.82, 254.97 4.97 M226.12 2.8 C245.35 -4.25, 267.66 0.07, 288.61 1.97 C309.55 3.87, 331.64 7.62, 351.8 14.2 C371.96 20.78, 391.76 29.72, 409.55 41.46 C427.34 53.2, 444.31 68.89, 458.56 84.63 C472.81 100.37, 484.99 117.72, 495.05 135.88 C505.11 154.03, 513.53 173.27, 518.92 193.56 C524.3 213.86, 526.85 236.47, 527.35 257.67 C527.84 278.87, 526.12 300.13, 521.88 320.77 C517.64 341.42, 511.28 362.39, 501.92 381.54 C492.56 400.7, 479.58 419.7, 465.72 435.69 C451.86 451.68, 435.94 465.33, 418.77 477.48 C401.59 489.64, 382.38 500.75, 362.66 508.64 C342.94 516.52, 321.32 521.68, 300.44 524.79 C279.55 527.91, 258.4 529.34, 237.36 527.33 C216.33 525.32, 194.27 519.9, 174.22 512.73 C154.16 505.57, 134.34 495.7, 117.03 484.34 C99.73 472.98, 84.53 460.02, 70.4 444.56 C56.26 429.09, 42.61 410.25, 32.22 391.55 C21.83 372.84, 13.44 352.53, 8.07 332.33 C2.7 312.14, 0.35 291.33, 0.01 270.4 C-0.33 249.46, 1.54 227.56, 6.03 206.74 C10.52 185.91, 17.46 164.6, 26.97 145.42 C36.47 126.24, 48.89 107.84, 63.04 91.65 C77.2 75.46, 94.37 60.23, 111.9 48.28 C129.43 36.34, 149.6 27.29, 168.23 19.96 C186.86 12.63, 214.01 6.17, 223.69 4.29 C233.37 2.42, 225.46 4.46, 226.31 8.73" stroke="#000000" stroke-width="1" fill="none"></path></g><g stroke-opacity="0.5" fill-opacity="0.5" stroke-linecap="round" transform="translate(1325.1171875 971.884765625) rotate(0 264.30338541666674 264.3033854166667)"><path d="M263.03 0.23 C283.19 -4.02, 306.82 3.4, 327.54 8.5 C348.25 13.6, 368.7 21.07, 387.3 30.84 C405.89 40.62, 423.35 53.05, 439.1 67.12 C454.84 81.2, 469.61 98.09, 481.77 115.3 C493.93 132.52, 504.45 150.88, 512.05 170.43 C519.65 189.99, 524.77 211.69, 527.36 232.65 C529.95 253.61, 530.18 275.06, 527.57 296.21 C524.96 317.36, 519.36 339.86, 511.7 359.55 C504.03 379.25, 493.79 397.02, 481.59 414.36 C469.39 431.7, 454.32 449.57, 438.49 463.61 C422.67 477.65, 405.43 489.04, 386.63 498.6 C367.84 508.16, 346.42 516.13, 325.72 520.99 C305.01 525.84, 283.56 527.72, 262.4 527.72 C241.23 527.72, 219.2 526.1, 198.74 520.98 C178.29 515.87, 158.23 507.19, 139.68 497.05 C121.12 486.9, 103.2 474.1, 87.4 460.09 C71.6 446.08, 56.72 430.5, 44.86 412.98 C33 395.45, 23.31 374.72, 16.23 354.95 C9.15 335.18, 4.85 315.14, 2.41 294.35 C-0.04 273.55, -1.16 251.44, 1.58 230.2 C4.31 208.97, 10.96 186.64, 18.83 166.92 C26.7 147.21, 36.71 129.03, 48.8 111.89 C60.9 94.76, 75.44 78.12, 91.4 64.11 C107.36 50.09, 125.78 37.3, 144.55 27.82 C163.32 18.34, 182.88 11.83, 204.02 7.25 C225.16 2.66, 258.9 0.5, 271.41 0.32 C283.93 0.14, 279.4 1.76, 279.13 6.18 M366.95 19.56 C386.94 23.03, 404.4 37.46, 421.34 50.23 C438.28 63, 455.1 79.71, 468.59 96.19 C482.08 112.67, 493.46 130.3, 502.29 149.1 C511.12 167.9, 517.04 188.27, 521.58 209 C526.11 229.73, 530.12 252.08, 529.5 273.48 C528.87 294.89, 524.02 317.31, 517.84 337.41 C511.66 357.51, 502.93 375.82, 492.44 394.08 C481.94 412.33, 469.17 431.49, 454.88 446.95 C440.59 462.41, 424.34 475.4, 406.7 486.82 C389.06 498.25, 369.03 508.49, 349.03 515.5 C329.02 522.5, 307.89 527.2, 286.66 528.88 C265.43 530.57, 242.7 529.08, 221.64 525.6 C200.59 522.11, 179.45 516.32, 160.33 507.98 C141.21 499.65, 123.88 488.24, 106.91 475.59 C89.94 462.94, 72.04 448.24, 58.5 432.08 C44.96 415.92, 34.32 397.69, 25.66 378.64 C17.01 359.59, 10.59 338.78, 6.59 317.78 C2.59 296.78, 0.81 273.8, 1.68 252.64 C2.54 231.47, 6.24 210.98, 11.78 190.78 C17.33 170.59, 24.62 149.7, 34.94 131.46 C45.25 113.22, 59.01 96.78, 73.65 81.36 C88.29 65.93, 104.57 50.28, 122.79 38.9 C141 27.52, 162.51 19.26, 182.93 13.06 C203.36 6.86, 224.43 3.14, 245.35 1.71 C266.26 0.28, 288.52 1.33, 308.42 4.49 C328.33 7.64, 355.48 17.03, 364.77 20.61 C374.06 24.2, 365.67 22, 364.17 26.02" stroke="#000000" stroke-width="1" fill="none"></path></g><g stroke-opacity="0.5" fill-opacity="0.5" stroke-linecap="round" transform="translate(1348.65234375 514.833984375) rotate(0 264.30338541666674 264.3033854166667)"><path d="M148.63 27.37 C164.89 14.83, 188.46 10.38, 209.26 5.93 C230.05 1.47, 252.46 -0.03, 273.4 0.65 C294.34 1.34, 314.71 4.51, 334.89 10.03 C355.08 15.55, 375.85 23.32, 394.51 33.76 C413.16 44.2, 431.56 58.02, 446.83 72.66 C462.11 87.29, 474.75 103.78, 486.14 121.56 C497.54 139.33, 508.38 159.27, 515.2 179.31 C522.03 199.34, 525.3 220.68, 527.09 241.78 C528.88 262.87, 529.01 285.07, 525.93 305.89 C522.84 326.7, 517.02 347.43, 508.59 366.67 C500.17 385.92, 488.21 404.4, 475.37 421.35 C462.52 438.3, 447.77 454.69, 431.53 468.37 C415.28 482.04, 396.76 494.4, 377.89 503.42 C359.03 512.44, 338.95 518.43, 318.35 522.49 C297.74 526.54, 275.66 528.41, 254.28 527.76 C232.91 527.1, 210.54 524.32, 190.08 518.57 C169.62 512.81, 149.66 504.02, 131.52 493.24 C113.38 482.47, 96.3 468.75, 81.25 453.94 C66.2 439.12, 52.4 421.92, 41.23 404.35 C30.05 386.77, 21.03 368.48, 14.18 348.47 C7.34 328.45, 1.86 305.61, 0.18 284.24 C-1.49 262.86, 0.43 241.05, 4.15 220.2 C7.87 199.35, 14.39 178.39, 22.5 159.14 C30.61 139.89, 40.13 121.39, 52.8 104.69 C65.46 87.99, 80.12 72.97, 98.49 58.97 C116.86 44.97, 149.65 27.1, 163.03 20.66 C176.41 14.23, 177.12 16.44, 178.76 20.38 M218.34 3.21 C237.62 -4.61, 262.85 -1.25, 284.22 0.19 C305.59 1.62, 326.46 5.07, 346.55 11.8 C366.63 18.52, 386.97 29.26, 404.75 40.53 C422.53 51.79, 438.47 64.56, 453.22 79.39 C467.96 94.23, 482.69 111.21, 493.22 129.52 C503.76 147.84, 510.5 169.04, 516.4 189.27 C522.3 209.49, 527.29 229.64, 528.6 250.87 C529.92 272.11, 528.34 295.52, 524.29 316.66 C520.24 337.8, 513.16 358.8, 504.3 377.71 C495.44 396.61, 484.74 413.95, 471.13 430.08 C457.51 446.21, 439.78 461.42, 422.59 474.5 C405.41 487.58, 387.31 499.91, 368.01 508.53 C348.71 517.15, 327.38 522.94, 306.8 526.2 C286.23 529.46, 265.59 529.98, 244.55 528.1 C223.51 526.22, 200.67 521.53, 180.58 514.93 C160.49 508.33, 142.05 499.62, 123.99 488.49 C105.93 477.36, 86.87 463.28, 72.22 448.14 C57.57 433, 46.55 415.9, 36.09 397.64 C25.63 379.39, 15.42 359.17, 9.44 338.58 C3.47 317.99, 0.77 295.32, 0.24 274.09 C-0.29 252.87, 2.08 231.96, 6.25 211.22 C10.43 190.48, 16.17 168.85, 25.3 149.63 C34.44 130.41, 47.55 112.12, 61.04 95.91 C74.53 79.69, 89.64 65.12, 106.27 52.32 C122.91 39.53, 141.91 27.01, 160.85 19.15 C179.79 11.29, 209.79 7.07, 219.93 5.15 C230.07 3.23, 221.23 3.73, 221.66 7.63" stroke="#000000" stroke-width="1" fill="none"></path></g><g stroke-opacity="0.5" fill-opacity="0.5" stroke-linecap="round" transform="translate(1190.224609375 1173.53515625) rotate(0 264.30338541666674 264.30338541666663)"><path d="M365.27 20.06 C385.54 23.78, 405.02 39.55, 422.19 52.25 C439.37 64.95, 454.9 80.25, 468.32 96.25 C481.74 112.25, 493.73 129.34, 502.73 148.27 C511.74 167.2, 518.02 188.91, 522.37 209.82 C526.71 230.73, 529.53 252.5, 528.8 273.74 C528.07 294.98, 523.96 316.88, 517.96 337.27 C511.97 357.65, 503.32 377.72, 492.83 396.06 C482.34 414.4, 469.6 432.02, 455.04 447.29 C440.47 462.56, 423 476.47, 405.44 487.67 C387.88 498.87, 369.47 507.83, 349.66 514.47 C329.85 521.12, 307.9 525.59, 286.58 527.53 C265.26 529.48, 242.53 529.57, 221.75 526.16 C200.97 522.74, 181.13 515.54, 161.9 507.02 C142.66 498.5, 123.41 487.68, 106.33 475.02 C89.24 462.35, 72.79 447.42, 59.38 431.03 C45.98 414.64, 34.84 395.84, 25.9 376.66 C16.96 357.48, 9.83 336.39, 5.72 315.94 C1.61 295.49, 0.52 274.86, 1.22 253.97 C1.92 233.07, 4.1 211.07, 9.9 190.56 C15.71 170.05, 25.13 149.13, 36.04 130.88 C46.96 112.63, 60.58 96.07, 75.37 81.07 C90.17 66.06, 107.16 52.15, 124.82 40.86 C142.47 29.56, 161.51 19.86, 181.3 13.28 C201.08 6.7, 222.26 2.93, 243.54 1.36 C264.81 -0.21, 287.1 0.02, 308.94 3.85 C330.79 7.69, 362.6 19.57, 374.6 24.38 C386.61 29.18, 382.78 28.57, 380.97 32.69 M281.95 1.07 C302.62 -2.35, 325.11 4.79, 345.11 10.83 C365.12 16.88, 384.34 25.95, 401.99 37.35 C419.63 48.75, 436.1 63.95, 450.97 79.26 C465.85 94.56, 480.29 111, 491.23 129.19 C502.18 147.38, 510.32 168.28, 516.63 188.41 C522.94 208.53, 527.94 229.12, 529.09 249.92 C530.25 270.73, 527.7 292.64, 523.54 313.23 C519.37 333.81, 512.7 353.97, 504.1 373.45 C495.5 392.93, 484.89 413.46, 471.94 430.09 C458.99 446.71, 443.28 460.36, 426.4 473.18 C409.53 485.99, 390.1 498.49, 370.7 506.98 C351.3 515.47, 330.94 520.42, 309.99 524.11 C289.04 527.81, 266.33 530.55, 245 529.14 C223.67 527.73, 202.27 522.22, 182.03 515.63 C161.78 509.05, 141.34 500.64, 123.53 489.65 C105.71 478.65, 89.69 464.94, 75.16 449.68 C60.62 434.41, 47.13 416.54, 36.33 398.05 C25.53 379.57, 16.23 358.98, 10.33 338.77 C4.44 318.56, 1.9 297.79, 0.94 276.82 C-0.01 255.85, 0.56 233.77, 4.6 212.97 C8.64 192.17, 15.91 171.25, 25.17 152.02 C34.43 132.79, 47.1 113.86, 60.18 97.58 C73.27 81.3, 87.12 67.29, 103.7 54.35 C120.28 41.41, 140.15 28.63, 159.68 19.92 C179.21 11.22, 200.65 5.17, 220.9 2.1 C241.15 -0.98, 271.29 1.05, 281.2 1.47 C291.12 1.89, 280.75 0.24, 280.4 4.63" stroke="#000000" stroke-width="1" fill="none"></path></g><g stroke-opacity="0.5" fill-opacity="0.5" stroke-linecap="round" transform="translate(804.74609375 1414.091796875) rotate(0 264.30338541666674 264.30338541666663)"><path d="M343.04 12.85 C363.42 14.76, 382.73 27.91, 400.89 38.7 C419.04 49.49, 437.11 62.87, 451.99 77.58 C466.86 92.29, 479.23 108.79, 490.12 126.94 C501.01 145.09, 511.06 166.1, 517.32 186.48 C523.59 206.86, 526.57 228.05, 527.72 249.22 C528.87 270.38, 528.13 292.68, 524.22 313.48 C520.31 334.27, 512.9 354.91, 504.26 373.98 C495.62 393.05, 485.45 411.24, 472.41 427.9 C459.36 444.55, 442.78 460.85, 425.97 473.91 C409.16 486.96, 390.79 497.94, 371.55 506.22 C352.31 514.5, 331.19 520.08, 310.52 523.57 C289.84 527.06, 268.61 528.5, 247.5 527.18 C226.38 525.86, 204.08 522.05, 183.82 515.66 C163.56 509.28, 143.76 500.04, 125.94 488.89 C108.13 477.74, 91.78 463.74, 76.92 448.76 C62.07 433.79, 47.94 417.16, 36.84 399.02 C25.74 380.87, 16.28 360.08, 10.3 339.87 C4.32 319.66, 1.83 298.75, 0.96 277.75 C0.1 256.75, 1.23 234.51, 5.1 213.89 C8.98 193.26, 15.28 173.17, 24.22 154 C33.16 134.82, 45.32 115.52, 58.73 98.85 C72.15 82.18, 87.89 66.73, 104.69 53.95 C121.49 41.18, 140.16 30.6, 159.53 22.19 C178.9 13.79, 200.08 6.93, 220.91 3.51 C241.75 0.09, 263.27 -0.16, 284.56 1.67 C305.85 3.51, 337.5 11.36, 348.65 14.51 C359.79 17.67, 352.86 16.53, 351.41 20.59 M258.91 -1.1 C278.81 -5.78, 303.01 1.51, 323.81 6.49 C344.61 11.47, 365.14 19.48, 383.71 28.8 C402.29 38.13, 419.15 48.55, 435.25 62.44 C451.35 76.34, 467.95 94.57, 480.32 112.17 C492.69 129.76, 501.89 148.55, 509.49 168.01 C517.1 187.48, 523.23 208.27, 525.95 228.93 C528.68 249.59, 527.98 270.96, 525.84 291.95 C523.7 312.95, 520.29 334.96, 513.11 354.9 C505.92 374.85, 494.67 394, 482.74 411.6 C470.81 429.21, 457.29 446.29, 441.53 460.54 C425.77 474.78, 406.61 487.32, 388.19 497.08 C369.77 506.84, 351.05 513.93, 331.01 519.09 C310.96 524.26, 289.08 527.47, 267.92 528.08 C246.77 528.68, 224.75 527.42, 204.09 522.72 C183.42 518.02, 162.83 509.82, 143.92 499.89 C125.02 489.96, 106.75 477.36, 90.67 463.14 C74.58 448.92, 59.74 431.73, 47.43 414.58 C35.12 397.43, 24.38 379.51, 16.79 360.23 C9.2 340.96, 4.17 320.04, 1.89 298.91 C-0.38 277.77, 0.72 254.67, 3.14 233.42 C5.56 212.18, 8.96 191.06, 16.39 171.44 C23.82 151.82, 35.82 132.98, 47.71 115.7 C59.6 98.42, 72.1 81.99, 87.72 67.78 C103.34 53.57, 122.78 40.34, 141.44 30.43 C160.1 20.53, 180.13 13.66, 199.69 8.36 C219.26 3.05, 248.65 -0.66, 258.85 -1.37 C269.04 -2.08, 260.85 -0.47, 260.84 4.08" stroke="#000000" stroke-width="1" fill="none"></path></g><g stroke-opacity="0.5" fill-opacity="0.5" stroke-linecap="round" transform="translate(533.0761718749999 1414.677734375) rotate(0 264.30338541666663 264.30338541666663)"><path d="M318.64 6.66 C339.16 6.91, 361.36 18.11, 380.52 27.17 C399.69 36.23, 417.55 47.55, 433.62 61.01 C449.7 74.48, 464.41 90.75, 476.98 107.96 C489.56 125.18, 500.8 144.82, 509.07 164.29 C517.34 183.75, 523.39 203.86, 526.59 224.76 C529.79 245.65, 530.45 268.64, 528.26 289.67 C526.08 310.71, 520.53 331.04, 513.5 350.94 C506.48 370.84, 497.55 391.35, 486.11 409.1 C474.67 426.84, 460.37 443.11, 444.87 457.4 C429.38 471.69, 411.73 484.38, 393.13 494.84 C374.53 505.31, 353.76 514.51, 333.28 520.19 C312.8 525.88, 291.14 528.43, 270.27 528.94 C249.39 529.44, 228.59 527.92, 208.03 523.21 C187.48 518.5, 165.92 510.16, 146.96 500.7 C128.01 491.23, 110.52 479.95, 94.31 466.42 C78.09 452.89, 62.15 436.76, 49.66 419.54 C37.18 402.31, 27.32 382.56, 19.42 363.05 C11.53 343.54, 5.22 323.41, 2.29 302.5 C-0.65 281.59, -0.47 258.87, 1.82 237.61 C4.12 216.34, 9.01 194.95, 16.06 174.92 C23.11 154.88, 32.47 135.04, 44.13 117.42 C55.79 99.79, 70.49 83.25, 86 69.18 C101.52 55.11, 118.77 43.01, 137.21 32.99 C155.65 22.96, 176.27 14.43, 196.64 9.04 C217 3.65, 236.33 0.46, 259.4 0.65 C282.47 0.85, 319.72 6.86, 335.03 10.19 C350.34 13.51, 352.45 16.37, 351.26 20.61 M206.9 7.14 C225.73 -1.33, 249.31 0.81, 270.63 1.33 C291.94 1.86, 314.54 4.73, 334.79 10.29 C355.03 15.86, 373.93 24.47, 392.08 34.7 C410.24 44.93, 428.34 57.41, 443.72 71.68 C459.09 85.95, 472.87 102.79, 484.34 120.33 C495.81 137.86, 505.3 156.88, 512.52 176.87 C519.73 196.86, 525.51 219.01, 527.63 240.27 C529.74 261.54, 528.35 283.85, 525.21 304.46 C522.07 325.08, 516.97 344.53, 508.8 363.99 C500.62 383.45, 488.62 403.87, 476.16 421.23 C463.7 438.58, 449.84 454.6, 434.02 468.11 C418.19 481.61, 400.16 493, 381.2 502.26 C362.25 511.52, 341.21 519.08, 320.27 523.65 C299.33 528.23, 276.81 530.68, 255.58 529.73 C234.34 528.77, 213.08 524.09, 192.86 517.91 C172.64 511.73, 152.92 503, 134.26 492.66 C115.6 482.32, 96.12 470.01, 80.89 455.88 C65.66 441.74, 53.86 425.56, 42.88 407.84 C31.9 390.12, 21.85 369.76, 15 349.54 C8.15 329.32, 3.91 307.75, 1.76 286.5 C-0.39 265.25, -0.88 242.95, 2.08 222.06 C5.04 201.17, 11.03 180.41, 19.54 161.16 C28.04 141.92, 40.44 123.5, 53.1 106.6 C65.77 89.71, 79.18 73.22, 95.51 59.8 C111.84 46.39, 132.65 34.84, 151.08 26.13 C169.5 17.42, 196.31 9.94, 206.04 7.57 C215.78 5.2, 208.55 7.99, 209.49 11.9" stroke="#000000" stroke-width="1" fill="none"></path></g><g stroke-opacity="0.5" fill-opacity="0.5" stroke-linecap="round" transform="translate(144.88281249999994 1169.7265625) rotate(0 264.3033854166667 264.30338541666674)"><path d="M378.72 25.69 C398.52 30.33, 416.18 46.66, 432.47 60.21 C448.76 73.76, 463.82 89.85, 476.45 106.99 C489.08 124.13, 500.18 143.65, 508.26 163.05 C516.35 182.45, 521.68 202.6, 524.98 223.39 C528.27 244.18, 529.67 266.58, 528.04 287.79 C526.42 309, 522.33 330.63, 515.23 350.66 C508.13 370.68, 497.23 390.23, 485.45 407.96 C473.68 425.69, 459.79 442.45, 444.57 457.04 C429.36 471.63, 412.39 485.18, 394.16 495.51 C375.93 505.84, 355.43 513.6, 335.19 519.04 C314.95 524.48, 293.99 527.66, 272.7 528.16 C251.41 528.65, 228.15 526.53, 207.46 522 C186.77 517.47, 167.29 510.24, 148.56 500.99 C129.83 491.73, 111.39 480.08, 95.08 466.46 C78.77 452.83, 63.32 436.12, 50.7 419.26 C38.08 402.4, 27.48 384.84, 19.37 365.29 C11.25 345.75, 4.86 322.91, 2 301.99 C-0.86 281.08, 0.03 260.7, 2.22 239.81 C4.4 218.92, 8.29 196.73, 15.11 176.64 C21.93 156.55, 31.49 137.07, 43.12 119.27 C54.75 101.47, 69.21 84.18, 84.89 69.85 C100.57 55.51, 118.69 43.29, 137.22 33.28 C155.75 23.27, 175.84 15.27, 196.06 9.8 C216.27 4.32, 237.54 1.12, 258.51 0.42 C279.48 -0.29, 301.4 0.88, 321.89 5.57 C342.38 10.25, 371.36 23.79, 381.47 28.52 C391.57 33.24, 384.54 30, 382.54 33.9 M241.44 1.19 C261.04 -4.75, 285.01 1.22, 305.74 4.25 C326.47 7.27, 346.7 11.48, 365.82 19.34 C384.95 27.2, 403.52 38.74, 420.49 51.4 C437.46 64.07, 453.99 78.75, 467.66 95.34 C481.33 111.92, 493.26 131.94, 502.5 150.92 C511.74 169.9, 518.77 188.79, 523.12 209.21 C527.47 229.64, 529.36 252.24, 528.63 273.49 C527.89 294.74, 524.37 316.2, 518.7 336.72 C513.03 357.23, 505.12 378.04, 494.61 396.56 C484.09 415.08, 470.4 432.52, 455.62 447.84 C440.84 463.16, 423.87 477.29, 405.94 488.49 C388.02 499.69, 367.96 508.38, 348.06 515.04 C328.16 521.7, 307.66 526.54, 286.54 528.46 C265.43 530.39, 242.34 530.18, 221.35 526.58 C200.36 522.98, 180.02 515.18, 160.59 506.86 C141.16 498.53, 121.6 489.13, 104.77 476.64 C87.95 464.14, 72.7 448.61, 59.63 431.89 C46.56 415.17, 35.38 395.79, 26.36 376.31 C17.34 356.84, 10.01 335.65, 5.49 315.01 C0.97 294.38, -1.42 273.46, -0.78 252.53 C-0.13 231.59, 3.11 209.45, 9.37 189.41 C15.64 169.37, 26.12 150.28, 36.81 132.28 C47.5 114.27, 59.12 96.64, 73.5 81.36 C87.88 66.07, 105.17 51.78, 123.07 40.56 C140.97 29.35, 161.15 20.53, 180.92 14.07 C200.68 7.6, 231.51 3.15, 241.66 1.78 C251.81 0.41, 241.55 1.49, 241.83 5.85" stroke="#000000" stroke-width="1" fill="none"></path></g><g stroke-opacity="0.5" fill-opacity="0.5" stroke-linecap="round" transform="translate(10 932.529296875) rotate(0 264.3033854166667 264.3033854166667)"><path d="M297.65 2.26 C317.87 0.45, 339.82 10.14, 359.46 17.71 C379.1 25.27, 398.14 35.45, 415.51 47.64 C432.88 59.83, 449.62 74.69, 463.67 90.85 C477.71 107.02, 490.11 125.67, 499.76 144.63 C509.42 163.59, 516.91 184.12, 521.6 204.6 C526.29 225.09, 528.13 246.44, 527.91 267.56 C527.68 288.67, 525.59 310.97, 520.26 331.3 C514.94 351.63, 506.04 371.13, 495.97 389.53 C485.9 407.94, 474.01 425.99, 459.86 441.73 C445.71 457.47, 428.59 472.13, 411.08 483.99 C393.56 495.85, 374.48 505.84, 354.76 512.88 C335.04 519.92, 313.67 523.89, 292.75 526.21 C271.83 528.54, 250.14 529.65, 229.25 526.82 C208.35 524, 187.11 517.16, 167.4 509.27 C147.69 501.38, 128.39 491.79, 110.99 479.47 C93.59 467.15, 76.95 451.54, 63 435.34 C49.06 419.15, 36.59 400.89, 27.33 382.3 C18.06 363.71, 11.97 344.38, 7.42 323.81 C2.87 303.23, -0.4 280.08, 0.03 258.83 C0.45 237.59, 4.64 216.69, 9.96 196.31 C15.28 175.94, 22.02 155, 31.92 136.58 C41.81 118.16, 54.94 101.32, 69.35 85.8 C83.76 70.27, 100.48 55.28, 118.4 43.43 C136.31 31.59, 156.89 21.6, 176.85 14.73 C196.82 7.86, 215.95 4.09, 238.17 2.22 C260.4 0.35, 296.32 2.09, 310.21 3.5 C324.1 4.92, 322.29 6.13, 321.49 10.71 M217.75 3.03 C236.85 -4.92, 261.37 -2.27, 282.19 -0.63 C303 1.01, 322.56 6.06, 342.66 12.85 C362.75 19.64, 384.65 29.02, 402.73 40.1 C420.82 51.18, 436.37 64.57, 451.19 79.31 C466.01 94.05, 480.72 110.82, 491.66 128.56 C502.6 146.29, 510.6 165.49, 516.83 185.7 C523.05 205.92, 527.94 228.75, 529.01 249.85 C530.08 270.95, 527.28 291.27, 523.26 312.3 C519.23 333.33, 513.35 356.63, 504.86 376.02 C496.37 395.42, 485.51 412.34, 472.33 428.66 C459.15 444.99, 442.7 461.29, 425.8 473.98 C408.89 486.68, 390.35 496.24, 370.91 504.84 C351.46 513.44, 330.19 521.74, 309.13 525.6 C288.07 529.45, 265.55 529.51, 244.57 527.98 C223.59 526.46, 203.19 522.79, 183.23 516.45 C163.27 510.11, 143.02 501.16, 124.79 489.92 C106.56 478.69, 88.36 464.23, 73.86 449.05 C59.36 433.87, 48.28 416.88, 37.8 398.85 C27.31 380.82, 17.33 361.38, 10.98 340.86 C4.62 320.34, 0.43 296.99, -0.31 275.72 C-1.06 254.45, 2.24 234.03, 6.5 213.24 C10.76 192.44, 16.58 169.96, 25.24 150.94 C33.9 131.92, 45.41 115.38, 58.45 99.13 C71.49 82.88, 86.38 66.14, 103.49 53.43 C120.59 40.72, 142.11 31.24, 161.09 22.88 C180.07 14.52, 207.84 5.36, 217.37 3.26 C226.9 1.15, 217.76 5.79, 218.27 10.24" stroke="#000000" stroke-width="1" fill="none"></path></g><g stroke-opacity="0.5" fill-opacity="0.5" stroke-linecap="round" transform="translate(18.085937500000057 476.25) rotate(0 264.3033854166667 264.3033854166667)"><path d="M331.77 9.52 C352.3 10.53, 372.63 23.16, 391.21 33.11 C409.79 43.06, 427.78 55.05, 443.25 69.24 C458.73 83.43, 472.38 100.46, 484.05 118.24 C495.72 136.03, 506.13 156.04, 513.27 175.93 C520.41 195.82, 524.95 216.74, 526.91 237.58 C528.87 258.43, 528.1 280.17, 525.03 300.99 C521.97 321.81, 516.24 342.65, 508.51 362.52 C500.77 382.38, 490.76 402.98, 478.62 420.16 C466.49 437.34, 452.03 452.09, 435.7 465.61 C419.37 479.13, 399.69 491.82, 380.66 501.27 C361.62 510.71, 342.14 517.57, 321.49 522.26 C300.85 526.96, 278.01 529.94, 256.78 529.42 C235.55 528.91, 214.32 525.01, 194.1 519.17 C173.89 513.33, 153.87 504.54, 135.51 494.39 C117.15 484.24, 99.41 472.49, 83.94 458.26 C68.47 444.03, 54.37 426.78, 42.69 409 C31.02 391.22, 20.67 371.68, 13.89 351.58 C7.1 331.48, 3.91 309.5, 2 288.4 C0.08 267.29, -0.76 245.95, 2.41 224.95 C5.58 203.96, 12.94 182.03, 21.03 162.44 C29.12 142.85, 38.42 124.42, 50.94 107.41 C63.45 90.39, 79.9 73.69, 96.11 60.36 C112.32 47.03, 129.17 36.65, 148.2 27.43 C167.23 18.22, 189.36 9.69, 210.3 5.08 C231.23 0.48, 251.58 -1.54, 273.82 -0.2 C296.06 1.13, 330.62 9.61, 343.72 13.07 C356.83 16.53, 353.88 16.4, 352.44 20.55 M329.64 9.67 C350.34 10.84, 371.32 23.38, 390.14 33.49 C408.97 43.59, 426.85 56.29, 442.59 70.32 C458.33 84.34, 473.01 100.08, 484.59 117.62 C496.17 135.17, 504.8 155.57, 512.04 175.6 C519.28 195.64, 525.67 216.86, 528.02 237.82 C530.37 258.79, 529.42 280.43, 526.14 301.41 C522.87 322.4, 516.02 344.37, 508.38 363.73 C500.74 383.1, 492.4 400.57, 480.32 417.62 C468.24 434.68, 452.2 452.43, 435.9 466.05 C419.59 479.66, 401.38 490.04, 382.51 499.31 C363.64 508.58, 343.41 516.81, 322.68 521.67 C301.95 526.53, 279.35 528.64, 258.12 528.47 C236.89 528.31, 215.41 525.94, 195.3 520.68 C175.19 515.42, 155.98 507.21, 137.48 496.9 C118.97 486.59, 99.73 473.45, 84.27 458.82 C68.81 444.2, 56.11 427.13, 44.7 409.14 C33.29 391.15, 22.97 371.04, 15.81 350.89 C8.65 330.75, 4.14 309.1, 1.75 288.27 C-0.63 267.45, -1.38 246.69, 1.49 225.95 C4.37 205.2, 10.74 183.42, 19 163.8 C27.26 144.18, 38.46 125.38, 51.04 108.22 C63.62 91.06, 78.12 74.4, 94.48 60.84 C110.83 47.29, 130.36 35.87, 149.17 26.89 C167.99 17.91, 186.96 11.55, 207.38 6.97 C227.79 2.39, 251.01 -0.95, 271.68 -0.58 C292.35 -0.22, 321.6 6.69, 331.42 9.16 C341.24 11.63, 331.91 9.92, 330.6 14.24" stroke="#000000" stroke-width="1" fill="none"></path></g><g stroke-opacity="0.5" fill-opacity="0.5" stroke-linecap="round" transform="translate(202.90039062499983 230.46875) rotate(0 264.3033854166667 264.3033854166667)"><path d="M254.55 -0.18 C274.45 -5.31, 297.4 0.79, 317.91 5.12 C338.42 9.46, 358.6 16.73, 377.59 25.83 C396.58 34.93, 415.48 46.22, 431.86 59.73 C448.23 73.24, 463.26 89.75, 475.84 106.9 C488.41 124.06, 499.02 143.22, 507.31 162.66 C515.6 182.11, 522.26 202.95, 525.56 223.59 C528.86 244.24, 528.96 265.35, 527.11 286.53 C525.25 307.71, 521.34 330.66, 514.44 350.67 C507.53 370.68, 497.21 388.99, 485.66 406.59 C474.12 424.2, 460.25 441.69, 445.15 456.33 C430.04 470.96, 413.26 483.82, 395.04 494.4 C376.82 504.99, 356.37 514.05, 335.82 519.84 C315.27 525.63, 292.82 528.75, 271.75 529.16 C250.67 529.56, 229.84 526.89, 209.36 522.26 C188.88 517.62, 167.99 510.6, 148.86 501.33 C129.74 492.07, 111 480.33, 94.62 466.69 C78.24 453.05, 62.89 436.35, 50.57 419.49 C38.25 402.64, 28.7 384.8, 20.7 365.53 C12.7 346.26, 5.71 325.03, 2.57 303.86 C-0.58 282.69, -0.05 259.64, 1.85 238.5 C3.74 217.36, 7.15 196.73, 13.93 177.02 C20.72 157.3, 30.96 137.93, 42.56 120.2 C54.16 102.48, 68.05 85.29, 83.55 70.68 C99.05 56.06, 116.83 42.64, 135.53 32.53 C154.24 22.41, 174.72 15.56, 195.76 10.01 C216.8 4.45, 249.87 -0.13, 261.8 -0.81 C273.74 -1.49, 267.39 1.28, 267.37 5.94 M181.36 13.04 C199.18 3.06, 222.49 3.46, 243.46 1.73 C264.44 0.01, 286.07 -0.87, 307.22 2.67 C328.37 6.21, 350.92 14.24, 370.36 22.97 C389.81 31.7, 407.03 42.44, 423.89 55.07 C440.75 67.7, 458.39 82.64, 471.53 98.74 C484.67 114.84, 493.98 132.53, 502.73 151.7 C511.48 170.86, 519.65 192.78, 524.03 213.72 C528.4 234.67, 530.06 256.13, 528.96 277.35 C527.86 298.58, 523.51 320.63, 517.42 341.06 C511.32 361.49, 503.25 381.79, 492.37 399.94 C481.49 418.09, 467.19 434.84, 452.14 449.94 C437.1 465.04, 419.66 479.38, 402.08 490.53 C384.51 501.68, 366.5 510.55, 346.69 516.85 C326.87 523.15, 304.69 527.17, 283.19 528.33 C261.68 529.49, 238.43 527.36, 217.65 523.8 C196.87 520.24, 177.67 515.53, 158.49 506.96 C139.31 498.4, 119.19 485.4, 102.55 472.42 C85.9 459.43, 71.62 445.46, 58.63 429.04 C45.63 412.62, 33.53 393.31, 24.59 373.89 C15.64 354.47, 9.04 333.03, 4.95 312.51 C0.85 291.99, -1.09 271.49, 0.03 250.75 C1.16 230, 5.28 208.63, 11.69 188.02 C18.11 167.4, 27.86 145.2, 38.53 127.08 C49.19 108.96, 60.74 94.08, 75.71 79.31 C90.67 64.54, 110.9 49.3, 128.32 38.47 C145.75 27.64, 171.06 17.75, 180.27 14.33 C189.49 10.9, 182.17 13.7, 183.61 17.91" stroke="#000000" stroke-width="1" fill="none"></path></g><g stroke-opacity="0.5" fill-opacity="0.5" stroke-linecap="round" transform="translate(600.498046875 10) rotate(0 264.30338541666674 264.3033854166667)"><path d="M193.68 10.33 C211.59 0.67, 233.92 0.29, 255.02 -0.46 C276.12 -1.22, 299.51 1.4, 320.29 5.8 C341.07 10.19, 360.77 16.76, 379.7 25.9 C398.62 35.04, 417.7 46.83, 433.84 60.62 C449.98 74.41, 464.06 91.5, 476.52 108.65 C488.98 125.81, 500.55 144.04, 508.6 163.56 C516.64 183.08, 521.65 204.76, 524.79 225.79 C527.93 246.81, 529.37 268.72, 527.46 289.69 C525.54 310.66, 520.37 331.73, 513.28 351.59 C506.2 371.45, 496.54 391.13, 484.96 408.84 C473.38 426.55, 459.08 443.46, 443.79 457.86 C428.51 472.25, 411.64 484.92, 393.26 495.21 C374.88 505.5, 353.91 513.99, 333.52 519.58 C313.13 525.17, 292.1 528.43, 270.91 528.76 C249.72 529.09, 227.04 526.24, 206.38 521.57 C185.72 516.9, 165.66 509.89, 146.95 500.75 C128.25 491.61, 110.4 480.45, 94.15 466.75 C77.89 453.05, 62 435.78, 49.43 418.53 C36.86 401.29, 26.65 382.86, 18.71 363.28 C10.78 343.71, 4.76 322.2, 1.83 301.09 C-1.11 279.98, -1.09 257.51, 1.09 236.6 C3.28 215.7, 7.7 195.28, 14.93 175.67 C22.15 156.06, 32.74 136.8, 44.47 118.95 C56.2 101.1, 69.68 83.1, 85.32 68.56 C100.95 54.02, 115.78 42.41, 138.25 31.72 C160.73 21.03, 202.02 8.72, 220.18 4.42 C238.34 0.11, 246.38 1.69, 247.22 5.89 M315.57 5.02 C336.34 4.66, 356.2 15.67, 375.07 24.6 C393.94 33.52, 412.49 45.36, 428.79 58.58 C445.09 71.8, 460.04 87.16, 472.87 103.91 C485.71 120.67, 497.06 139.63, 505.81 159.13 C514.55 178.64, 521.83 200.4, 525.35 220.95 C528.87 241.51, 528.58 261.82, 526.91 282.47 C525.25 303.12, 521.8 324.67, 515.37 344.84 C508.95 365.02, 499.59 385.34, 488.36 403.51 C477.13 421.68, 462.88 439.04, 447.99 453.87 C433.09 468.69, 417.09 482, 399 492.46 C380.9 502.92, 359.81 510.61, 339.42 516.64 C319.03 522.68, 297.89 527.56, 276.66 528.68 C255.43 529.79, 233.01 527.47, 212.05 523.33 C191.09 519.2, 169.73 512.84, 150.9 503.87 C132.08 494.91, 115.56 483.11, 99.08 469.55 C82.6 455.99, 64.97 439.58, 52.01 422.51 C39.05 405.45, 29.51 386.25, 21.33 367.16 C13.14 348.08, 6.37 328.71, 2.92 308 C-0.52 287.29, -0.95 263.91, 0.65 242.9 C2.25 221.89, 5.55 201.98, 12.51 181.92 C19.47 161.86, 31.08 140.45, 42.4 122.53 C53.72 104.61, 65.37 89.04, 80.44 74.4 C95.51 59.76, 114.52 45.45, 132.81 34.7 C151.11 23.94, 169.89 15.65, 190.2 9.87 C210.51 4.09, 234.2 0.84, 254.68 0.04 C275.15 -0.76, 303.35 3.57, 313.07 5.06 C322.79 6.54, 313.57 4.87, 313.01 8.95" stroke="#000000" stroke-width="1" fill="none"></path></g><g stroke-opacity="0.5" fill-opacity="0.5" stroke-linecap="round" transform="translate(1203.3756510416679 244.41731770833303) rotate(0 264.30338541666674 264.3033854166667)"><path d="M201.53 6.71 C220.12 -2.43, 244.23 -0.88, 265.6 -0.73 C286.97 -0.58, 309.1 2.28, 329.75 7.62 C350.41 12.95, 370.94 21.23, 389.52 31.27 C408.11 41.3, 425.52 53.72, 441.26 67.84 C456.99 81.95, 472.14 98.39, 483.94 115.96 C495.75 133.53, 504.83 153.36, 512.07 173.26 C519.31 193.16, 525.12 214.59, 527.41 235.37 C529.69 256.15, 528.55 276.88, 525.77 297.94 C522.99 319, 518.31 341.94, 510.72 361.73 C503.14 381.51, 492.65 399.47, 480.25 416.65 C467.84 433.83, 452.44 450.82, 436.31 464.81 C420.18 478.8, 402.12 491.13, 383.45 500.59 C364.78 510.05, 344.87 516.91, 324.29 521.58 C303.7 526.25, 281.07 528.77, 259.96 528.62 C238.84 528.46, 217.8 525.99, 197.61 520.66 C177.42 515.34, 157.59 507.04, 138.83 496.67 C120.08 486.3, 100.86 472.82, 85.08 458.42 C69.3 444.02, 55.72 427.69, 44.14 410.26 C32.57 392.83, 22.74 373.59, 15.61 353.85 C8.49 334.1, 3.46 312.71, 1.42 291.79 C-0.63 270.88, 0.3 249.48, 3.34 228.35 C6.39 207.21, 12.1 184.87, 19.69 165 C27.28 145.14, 36.8 126.04, 48.89 109.14 C60.98 92.25, 76.11 77.25, 92.24 63.66 C108.37 50.07, 126.14 37.34, 145.66 27.6 C165.19 17.87, 197.53 8.28, 209.36 5.26 C221.19 2.24, 215.77 5, 216.64 9.47 M218.33 5.31 C236.92 -2.57, 259.31 -1.07, 280.34 0.04 C301.37 1.14, 324.31 5.69, 344.51 11.95 C364.71 18.21, 383.4 26.26, 401.53 37.62 C419.66 48.99, 438.48 64.88, 453.27 80.13 C468.07 95.39, 479.38 111.25, 490.29 129.16 C501.19 147.07, 512.31 167.17, 518.71 187.58 C525.11 208, 527.78 230.64, 528.7 251.66 C529.62 272.67, 528.45 293.09, 524.25 313.68 C520.06 334.28, 512.47 356.04, 503.53 375.22 C494.58 394.4, 483.74 412.31, 470.59 428.77 C457.45 445.24, 441.64 461.23, 424.63 474 C407.63 486.76, 388.14 496.81, 368.57 505.36 C349 513.9, 328.01 521.38, 307.22 525.27 C286.42 529.16, 264.83 530.21, 243.81 528.7 C222.79 527.19, 201.09 523.09, 181.11 516.21 C161.12 509.33, 141.74 498.79, 123.91 487.43 C106.07 476.07, 88.71 463.09, 74.11 448.05 C59.51 433, 47.01 415.14, 36.29 397.15 C25.56 379.15, 15.77 360.31, 9.78 340.1 C3.79 319.88, 0.91 297.07, 0.33 275.84 C-0.26 254.6, 2.27 233.23, 6.24 212.68 C10.22 192.14, 15.32 171.71, 24.16 152.57 C33.01 133.42, 45.95 114.34, 59.31 97.83 C72.66 81.32, 87.26 66.13, 104.32 53.51 C121.37 40.88, 142.65 30.4, 161.65 22.08 C180.65 13.75, 208.74 5.53, 218.32 3.57 C227.9 1.6, 218.45 5.95, 219.14 10.28" stroke="#000000" stroke-width="1" fill="none"></path></g></svg>