<svg version="1.1" xmlns="http://www.w3.org/2000/svg" viewBox="0 0 312.96875 440.3154296875" width="312.96875" height="440.3154296875">
  <!-- svg-source:excalidraw -->
  
  <defs>
    <style>
      @font-face {
        font-family: "Virgil";
        src: url("https://excalidraw.com/Virgil.woff2");
      }
      @font-face {
        font-family: "Cascadia";
        src: url("https://excalidraw.com/Cascadia.woff2");
      }
    </style>
  </defs>
  <rect x="0" y="0" width="312.96875" height="440.3154296875" fill="#ffffff"></rect><g transform="translate(15.3359375 10) rotate(0 38 12.5)"><text x="0" y="18" font-family="Virgil, Segoe UI Emoji" font-size="20px" fill="#000000" text-anchor="start" style="white-space: pre;" direction="ltr">web app</text></g><g transform="translate(13.28125 204.65625) rotate(0 36 12.5)"><text x="0" y="18" font-family="Virgil, Segoe UI Emoji" font-size="20px" fill="#000000" text-anchor="start" style="white-space: pre;" direction="ltr">browser</text></g><g transform="translate(10 108.9921875) rotate(0 41 12.5)"><text x="0" y="18" font-family="Virgil, Segoe UI Emoji" font-size="20px" fill="#000000" text-anchor="start" style="white-space: pre;" direction="ltr">platform</text></g><g stroke-linecap="round"><g transform="translate(45.38280965159106 43.17578125) rotate(0 0.9371411205664799 32.0134003953077)"><path d="M-1 0.92 C-1.05 11.66, 0.2 53.3, 0.57 63.67 M0.68 0.36 C0.93 10.82, 2.92 51.24, 2.87 61.93" stroke="#000000" stroke-width="1" fill="none"></path></g><g transform="translate(45.38280965159106 43.17578125) rotate(0 0.9371411205664799 32.0134003953077)"><path d="M-6.56 32.7 C-2.93 44.38, 0.25 54.35, 2.86 61.25 M-8.31 33.2 C-4.83 42, -3.2 49.35, 1.9 60.95" stroke="#000000" stroke-width="1" fill="none"></path></g><g transform="translate(45.38280965159106 43.17578125) rotate(0 0.9371411205664799 32.0134003953077)"><path d="M13.95 32.18 C9.88 43.89, 5.36 54.05, 2.86 61.25 M12.21 32.68 C10.37 41.53, 6.68 49.01, 1.9 60.95" stroke="#000000" stroke-width="1" fill="none"></path></g></g><g stroke-linecap="round"><g transform="translate(46.749494123069894 143.79296875) rotate(0 0.7803437237273556 27.377027802634984)"><path d="M-0.42 0.16 C-0.53 9.29, -0.45 45.12, -0.17 54.11 M1.57 -0.8 C1.77 8.57, 2.14 46.2, 1.99 55.56" stroke="#000000" stroke-width="1" fill="none"></path></g><g transform="translate(46.749494123069894 143.79296875) rotate(0 0.7803437237273556 27.377027802634984)"><path d="M-7 28.32 C-4.53 39.4, -1.37 45.48, 2.33 55.14 M-7.98 30.47 C-4.22 37.85, -3.06 44.1, 2.7 55.72" stroke="#000000" stroke-width="1" fill="none"></path></g><g transform="translate(46.749494123069894 143.79296875) rotate(0 0.7803437237273556 27.377027802634984)"><path d="M11.56 28.33 C7.71 39.35, 4.53 45.42, 2.33 55.14 M10.58 30.48 C9.28 37.77, 5.38 44.01, 2.7 55.72" stroke="#000000" stroke-width="1" fill="none"></path></g></g><g stroke-linecap="round"><g transform="translate(124.27387350110223 186.30562189312627) rotate(271.0389002266437 -0.04859973840314069 30.399361224155996)"><path d="M0.15 0.95 C0.27 10.92, 1.1 49.15, 1.13 59.1 M-1.22 0.4 C-1.27 10.6, 0.28 50.66, 0.37 60.4" stroke="#000000" stroke-width="1" fill="none"></path></g><g transform="translate(124.27387350110223 186.30562189312627) rotate(271.0389002266437 -0.04859973840314069 30.399361224155996)"><path d="M-8.95 33.29 C-7.8 41.18, -1.62 51.14, 1.55 59.25 M-10.25 33.05 C-6.54 41.8, -2.88 48.88, -0.04 59.86" stroke="#000000" stroke-width="1" fill="none"></path></g><g transform="translate(124.27387350110223 186.30562189312627) rotate(271.0389002266437 -0.04859973840314069 30.399361224155996)"><path d="M11.41 32.77 C5.76 40.86, 5.14 50.99, 1.55 59.25 M10.11 32.53 C7.56 41.35, 4.96 48.58, -0.04 59.86" stroke="#000000" stroke-width="1" fill="none"></path></g></g><g transform="translate(161.96875 204.83984375) rotate(0 70.5 12.5)"><text x="0" y="18" font-family="Virgil, Segoe UI Emoji" font-size="20px" fill="#000000" text-anchor="start" style="white-space: pre;" direction="ltr">infinite canvas</text></g><g stroke-linecap="round"><g transform="translate(49.36756411484316 238.255859375) rotate(0 -1.0268371439285033 28.454851283598686)"><path d="M-0.05 0.77 C-0.25 10.17, -0.89 46.28, -1.24 55.25 M-1.53 0.12 C-1.86 9.83, -1.73 47.54, -2.01 56.79" stroke="#000000" stroke-width="1" fill="none"></path></g><g transform="translate(49.36756411484316 238.255859375) rotate(0 -1.0268371439285033 28.454851283598686)"><path d="M-9.89 31.28 C-8.7 37.58, -7 47.49, -3.35 54.94 M-11.63 31.43 C-8.56 38.26, -5.72 45.1, -1.37 56.77" stroke="#000000" stroke-width="1" fill="none"></path></g><g transform="translate(49.36756411484316 238.255859375) rotate(0 -1.0268371439285033 28.454851283598686)"><path d="M9.01 31.49 C4.57 37.72, 0.62 47.57, -3.35 54.94 M7.27 31.64 C5.09 38.43, 2.68 45.21, -1.37 56.77" stroke="#000000" stroke-width="1" fill="none"></path></g></g><g transform="translate(36.81640625 304.04296875) rotate(0 11 12.5)"><text x="0" y="18" font-family="Virgil, Segoe UI Emoji" font-size="20px" fill="#000000" text-anchor="start" style="white-space: pre;" direction="ltr">os</text></g><g stroke-linecap="round"><g transform="translate(45.736363299973846 339.5283203125) rotate(0 -1.307231444368199 27.353185716643935)"><path d="M-0.07 -1.18 C-0.1 8.14, -1.26 46.4, -1.37 55.89 M-1.57 0.81 C-1.69 9.78, -2.58 45.29, -2.54 54.1" stroke="#000000" stroke-width="1" fill="none"></path></g><g transform="translate(45.736363299973846 339.5283203125) rotate(0 -1.307231444368199 27.353185716643935)"><path d="M-13.64 27.3 C-8.79 33.62, -7.2 37.19, -0.72 53.61 M-11.42 27.7 C-10.13 33.08, -8.48 39.03, -2.93 53.44" stroke="#000000" stroke-width="1" fill="none"></path></g><g transform="translate(45.736363299973846 339.5283203125) rotate(0 -1.307231444368199 27.353185716643935)"><path d="M5.26 27.54 C6.32 33.8, 4.12 37.33, -0.72 53.61 M7.48 27.93 C4.87 33.29, 2.63 39.18, -2.93 53.44" stroke="#000000" stroke-width="1" fill="none"></path></g></g><g transform="translate(34.0859375 405.3154296875) rotate(0 11 12.5)"><text x="0" y="18" font-family="Virgil, Segoe UI Emoji" font-size="20px" fill="#000000" text-anchor="start" style="white-space: pre;" direction="ltr">ar</text></g></svg>