<?xml version="1.0" encoding="UTF-8"?>
<svg xmlns="http://www.w3.org/2000/svg">
  <symbol id="airtable" viewBox="0 0 24 24">
    <path d="M11.992 1.966c-.434 0-.87.086-1.28.257L1.779 5.917c-.503.208-.49.908.012 1.116l8.982 3.558a3.266 3.266 0 0 0 2.454 0l8.982-3.558c.503-.196.503-.908.012-1.116l-8.957-3.694a3.255 3.255 0 0 0-1.272-.257zM23.4 8.056a.589.589 0 0 0-.222.045l-10.012 3.877a.612.612 0 0 0-.38.564v8.896a.6.6 0 0 0 .821.552L23.62 18.1a.583.583 0 0 0 .38-.551V8.653a.6.6 0 0 0-.6-.596zM.676 8.095a.644.644 0 0 0-.48.19C.086 8.396 0 8.53 0 8.69v8.355c0 .442.515.737.908.54l6.27-3.006.307-.147 2.969-1.436c.466-.22.43-.908-.061-1.092L.883 8.138a.57.57 0 0 0-.207-.044z"></path>
  </symbol>
  <symbol id="apple" viewBox="0 0 24 24">
    <path d="M7.078 23.55c-.473-.316-.893-.703-1.244-1.15-.383-.463-.738-.95-1.064-1.454-.766-1.12-1.365-2.345-1.78-3.636-.5-1.502-.743-2.94-.743-4.347 0-1.57.34-2.94 1.002-4.09.49-.9 1.22-1.653 2.1-2.182.85-.53 1.84-.82 2.84-.84.35 0 .73.05 1.13.15.29.08.64.21 1.07.37.55.21.85.34.95.37.32.12.59.17.8.17.16 0 .39-.05.645-.13.145-.05.42-.14.81-.31.386-.14.692-.26.935-.35.37-.11.728-.21 1.05-.26.39-.06.777-.08 1.148-.05.71.05 1.36.2 1.94.42 1.02.41 1.843 1.05 2.457 1.96-.26.16-.5.346-.725.55-.487.43-.9.94-1.23 1.505-.43.77-.65 1.64-.644 2.52.015 1.083.29 2.035.84 2.86.387.6.904 1.114 1.534 1.536.31.21.582.355.84.45-.12.375-.252.74-.405 1.1-.347.807-.76 1.58-1.25 2.31-.432.63-.772 1.1-1.03 1.41-.402.48-.79.84-1.18 1.097-.43.285-.935.436-1.452.436-.35.015-.7-.03-1.034-.127-.29-.095-.576-.202-.856-.323-.293-.134-.596-.248-.905-.34-.38-.1-.77-.148-1.164-.147-.4 0-.79.05-1.16.145-.31.088-.61.196-.907.325-.42.175-.695.29-.855.34-.324.096-.656.154-.99.175-.52 0-1.004-.15-1.486-.45zm6.854-18.46c-.68.34-1.326.484-1.973.436-.1-.646 0-1.31.27-2.037.24-.62.56-1.18 1-1.68.46-.52 1.01-.95 1.63-1.26.66-.34 1.29-.52 1.89-.55.08.68 0 1.35-.25 2.07-.228.64-.568 1.23-1 1.76-.435.52-.975.95-1.586 1.26z"></path>
  </symbol>
  <symbol id="dropbox" viewBox="0 0 24 24">
    <path d="M6 1.807L0 5.629l6 3.822 6.001-3.822L6 1.807zM18 1.807l-6 3.822 6 3.822 6-3.822-6-3.822zM0 13.274l6 3.822 6.001-3.822L6 9.452l-6 3.822zM18 9.452l-6 3.822 6 3.822 6-3.822-6-3.822zM6 18.371l6.001 3.822 6-3.822-6-3.822L6 18.371z"></path>
  </symbol>
  <symbol id="facebook" viewBox="0 0 24 24">
    <path d="M23.9981 11.9991C23.9981 5.37216 18.626 0 11.9991 0C5.37216 0 0 5.37216 0 11.9991C0 17.9882 4.38789 22.9522 10.1242 23.8524V15.4676H7.07758V11.9991H10.1242V9.35553C10.1242 6.34826 11.9156 4.68714 14.6564 4.68714C15.9692 4.68714 17.3424 4.92149 17.3424 4.92149V7.87439H15.8294C14.3388 7.87439 13.8739 8.79933 13.8739 9.74824V11.9991H17.2018L16.6698 15.4676H13.8739V23.8524C19.6103 22.9522 23.9981 17.9882 23.9981 11.9991Z"></path>
  </symbol>
  <symbol id="github" viewBox="0 0 24 24">
    <path d="M12 .297c-6.63 0-12 5.373-12 12 0 5.303 3.438 9.8 8.205 11.385.6.113.82-.258.82-.577 0-.285-.01-1.04-.015-2.04-3.338.724-4.042-1.61-4.042-1.61C4.422 18.07 3.633 17.7 3.633 17.7c-1.087-.744.084-.729.084-.729 1.205.084 1.838 1.236 1.838 1.236 1.07 1.835 2.809 1.305 3.495.998.108-.776.417-1.305.76-1.605-2.665-.3-5.466-1.332-5.466-5.93 0-1.31.465-2.38 1.235-3.22-.135-.303-.54-1.523.105-3.176 0 0 1.005-.322 3.3 1.23.96-.267 1.98-.399 3-.405 1.02.006 2.04.138 3 .405 2.28-1.552 3.285-1.23 3.285-1.23.645 1.653.24 2.873.12 3.176.765.84 1.23 1.91 1.23 3.22 0 4.61-2.805 5.625-5.475 5.92.42.36.81 1.096.81 2.22 0 1.606-.015 2.896-.015 3.286 0 .315.21.69.825.57C20.565 22.092 24 17.592 24 12.297c0-6.627-5.373-12-12-12"></path>
  </symbol>
  <symbol id="gmail" viewBox="0 0 24 24">
    <path d="M24 4.5v15c0 .85-.65 1.5-1.5 1.5H21V7.387l-9 6.463-9-6.463V21H1.5C.649 21 0 20.35 0 19.5v-15c0-.425.162-.8.431-1.068C.7 3.16 1.076 3 1.5 3H2l10 7.25L22 3h.5c.425 0 .8.162 1.069.432.27.268.431.643.431 1.068z"></path>
  </symbol>
  <symbol id="google" viewBox="0 0 24 24">
    <path d="M12.24 10.285V14.4h6.806c-.275 1.765-2.056 5.174-6.806 5.174-4.095 0-7.439-3.389-7.439-7.574s3.345-7.574 7.439-7.574c2.33 0 3.891.989 4.785 1.849l3.254-3.138C18.189 1.186 15.479 0 12.24 0c-6.635 0-12 5.365-12 12s5.365 12 12 12c6.926 0 11.52-4.869 11.52-11.726 0-.788-.085-1.39-.189-1.989H12.24z"></path>
  </symbol>
  <symbol id="googlesheets" viewBox="0 0 24 24">
    <path d="M4.908 0c-.873 0-1.635.764-1.635 1.637v20.726c0 .873.762 1.637 1.635 1.637h14.184c.873 0 1.635-.764 1.635-1.637V7.045h-4.909a2.157 2.157 0 0 1-2.136-2.137V0H4.908zm9.774.5v4.408c0 .581.555 1.137 1.136 1.137h4.409L14.682.5zM7.637 11.781h8.726v7.856H7.637V11.78zm1.09 1.092v1.309h2.728v-1.309H8.727zm3.818 0v1.309h2.728v-1.309h-2.728zm-3.818 2.182v1.308h2.728v-1.308H8.727zm3.818 0v1.308h2.728v-1.308h-2.728zm-3.818 2.181v1.309h2.728v-1.309H8.727zm3.818 0v1.309h2.728v-1.309h-2.728z"></path>
  </symbol>
  <symbol id="microsoft" viewBox="0 0 24 24">
    <path d="M11.4 24H0V12.6h11.4V24zM24 24H12.6V12.6H24V24zM11.4 11.4H0V0h11.4v11.4zm12.6 0H12.6V0H24v11.4z"></path>
  </symbol>
  <symbol id="slack" viewBox="0 0 24 24">
    <path d="M5.042 15.165a2.528 2.528 0 0 1-2.52 2.523A2.528 2.528 0 0 1 0 15.165a2.527 2.527 0 0 1 2.522-2.52h2.52v2.52zM6.313 15.165a2.527 2.527 0 0 1 2.521-2.52 2.527 2.527 0 0 1 2.521 2.52v6.313A2.528 2.528 0 0 1 8.834 24a2.528 2.528 0 0 1-2.521-2.522v-6.313zM8.834 5.042a2.528 2.528 0 0 1-2.521-2.52A2.528 2.528 0 0 1 8.834 0a2.528 2.528 0 0 1 2.521 2.522v2.52H8.834zM8.834 6.313a2.528 2.528 0 0 1 2.521 2.521 2.528 2.528 0 0 1-2.521 2.521H2.522A2.528 2.528 0 0 1 0 8.834a2.528 2.528 0 0 1 2.522-2.521h6.312zM18.956 8.834a2.528 2.528 0 0 1 2.522-2.521A2.528 2.528 0 0 1 24 8.834a2.528 2.528 0 0 1-2.522 2.521h-2.522V8.834zM17.688 8.834a2.528 2.528 0 0 1-2.523 2.521 2.527 2.527 0 0 1-2.52-2.521V2.522A2.527 2.527 0 0 1 15.165 0a2.528 2.528 0 0 1 2.523 2.522v6.312zM15.165 18.956a2.528 2.528 0 0 1 2.523 2.522A2.528 2.528 0 0 1 15.165 24a2.527 2.527 0 0 1-2.52-2.522v-2.522h2.52zM15.165 17.688a2.527 2.527 0 0 1-2.52-2.523 2.526 2.526 0 0 1 2.52-2.52h6.313A2.527 2.527 0 0 1 24 15.165a2.528 2.528 0 0 1-2.522 2.523h-6.313z"></path>
  </symbol>
  <symbol id="trello" viewBox="0 0 24 24">
    <path d="M21 0H3C1.343 0 0 1.343 0 3v18c0 1.656 1.343 3 3 3h18c1.656 0 3-1.344 3-3V3c0-1.657-1.344-3-3-3zM10.44 18.18c0 .795-.645 1.44-1.44 1.44H4.56c-.795 0-1.44-.646-1.44-1.44V4.56c0-.795.645-1.44 1.44-1.44H9c.795 0 1.44.645 1.44 1.44v13.62zm10.44-6c0 .794-.645 1.44-1.44 1.44H15c-.795 0-1.44-.646-1.44-1.44V4.56c0-.795.646-1.44 1.44-1.44h4.44c.795 0 1.44.645 1.44 1.44v7.62z"></path>
  </symbol>
  <symbol id="twilio" viewBox="0 0 24 24">
    <path d="M12 0C5.381-.008.008 5.352 0 11.971V12c0 6.64 5.359 12 12 12 6.64 0 12-5.36 12-12 0-6.641-5.36-12-12-12zm0 20.801c-4.846.015-8.786-3.904-8.801-8.75V12c-.014-4.846 3.904-8.786 8.75-8.801H12c4.847-.014 8.786 3.904 8.801 8.75V12c.015 4.847-3.904 8.786-8.75 8.801H12zm5.44-11.76c0 1.359-1.12 2.479-2.481 2.479-1.366-.007-2.472-1.113-2.479-2.479 0-1.361 1.12-2.481 2.479-2.481 1.361 0 2.481 1.12 2.481 2.481zm0 5.919c0 1.36-1.12 2.48-2.481 2.48-1.367-.008-2.473-1.114-2.479-2.48 0-1.359 1.12-2.479 2.479-2.479 1.361-.001 2.481 1.12 2.481 2.479zm-5.919 0c0 1.36-1.12 2.48-2.479 2.48-1.368-.007-2.475-1.113-2.481-2.48 0-1.359 1.12-2.479 2.481-2.479 1.358-.001 2.479 1.12 2.479 2.479zm0-5.919c0 1.359-1.12 2.479-2.479 2.479-1.367-.007-2.475-1.112-2.481-2.479 0-1.361 1.12-2.481 2.481-2.481 1.358 0 2.479 1.12 2.479 2.481z"></path>
  </symbol>
  <symbol id="twitter" viewBox="0 0 24 24">
    <path d="M23.954 4.569c-.885.389-1.83.654-2.825.775 1.014-.611 1.794-1.574 2.163-2.723-.951.555-2.005.959-3.127 1.184-.896-.959-2.173-1.559-3.591-1.559-2.717 0-4.92 2.203-4.92 4.917 0 .39.045.765.127 1.124C7.691 8.094 4.066 6.13 1.64 3.161c-.427.722-.666 1.561-.666 2.475 0 1.71.87 3.213 2.188 4.096-.807-.026-1.566-.248-2.228-.616v.061c0 2.385 1.693 4.374 3.946 4.827-.413.111-.849.171-1.296.171-.314 0-.615-.03-.916-.086.631 1.953 2.445 3.377 4.604 3.417-1.68 1.319-3.809 2.105-6.102 2.105-.39 0-.779-.023-1.17-.067 2.189 1.394 4.768 2.209 7.557 2.209 9.054 0 13.999-7.496 13.999-13.986 0-.209 0-.42-.015-.63.961-.689 1.8-1.56 2.46-2.548l-.047-.02z"></path>
  </symbol>
  <symbol id="unit" viewBox="0 0 24 24">
    <circle cx="12" cy="12" r="11" />
  </symbol>
</svg>